<?xml version="1.0" encoding="utf-8"?>
<!-- Generator: Adobe Illustrator 28.2.0, SVG Export Plug-In . SVG Version: 6.00 Build 0)  -->
<svg version="1.1" xmlns="http://www.w3.org/2000/svg" xmlns:xlink="http://www.w3.org/1999/xlink" x="0px" y="0px"
	 viewBox="0 0 1920 1080" style="enable-background:new 0 0 1920 1080;" xml:space="preserve">
<style type="text/css">
	.st0{display:none;}
	.st1{display:inline;fill:#8EC146;}
	.st2{display:inline;fill:#73A24C;}
	.st3{display:inline;fill:#628B50;}
	.st4{fill:#8CC943;}
	.st5{fill:url(#SVGID_1_);}
	.st6{display:inline;}
	.st7{fill:url(#SVGID_00000130612408756122544800000013895218950375891388_);}
</style>
<g id="Слой_1" class="st0">
	
		<image style="display:inline;overflow:visible;" width="214" height="250" xlink:href="2F0EE527.png"  transform="matrix(0.6137 0 0 0.6137 1194 463)">
	</image>
	
		<image style="display:inline;overflow:visible;" width="214" height="250" xlink:href="2F0EE525.png"  transform="matrix(0.6137 0 0 0.6137 1357 466)">
	</image>
	<rect x="847" y="1300" class="st1" width="25" height="25"/>
	<rect x="807" y="1302" class="st2" width="25" height="25"/>
	<rect x="768" y="1304" class="st3" width="25" height="25"/>
</g>
<g id="Слой_2">
	<path class="st4" d="M944.6,599.7c-6.8,28.2-13.1,58.1-18.7,89.5c-8.3,46.8-13.8,91.2-17.4,132.5c-5.8-2-10.3-6.5-12.2-12.4
		c-12.4-38.1-29.3-81-52.5-126.2c-39.8-77.5-85.5-137.5-124.6-181.2c14.3-17.2,30.5-35.2,48.6-53.5c20-20.2,39.7-38,58.4-53.5
		c15.7,15.8,32.5,36.4,49.2,61.4c23.7,35.3,48,82.1,52.4,130.5c0.5,5.8,4.4,11.1,10.1,12.4c0,0,0.1,0,0.1,0
		C940.5,599.8,942.8,599.8,944.6,599.7z"/>
	<linearGradient id="SVGID_1_" gradientUnits="userSpaceOnUse" x1="952.4789" y1="728.5425" x2="1139.014" y2="341.6617">
		<stop  offset="0" style="stop-color:#628B50"/>
		<stop  offset="0.2796" style="stop-color:#69954E"/>
		<stop  offset="0.5316" style="stop-color:#73A24C"/>
		<stop  offset="1" style="stop-color:#8EC146"/>
	</linearGradient>
	<path class="st5" d="M1244.6,321.9c-14.6,14.6-136.2,194.6-199.5,374.6c-8.4,21.6-18.2,44.6-29.8,68.5c-9.4,19.3-18.9,37.3-28.4,54
		c-3.3,5.7-9.1,9.5-15.7,10.1c-10.6,1-23.5,1-38-1.3c-9.3-1.5-17.6-3.7-24.7-6.2c2.1-37.8,5.9-78.9,12.5-122.7
		c5.5-36.5,12.1-70.6,19.5-102.2c1.4-8.1,3-16.2,4.9-24.3C976.9,433.8,1065.8,329,1157,253.8c11,2.7,27.1,8.1,43.8,19.5
		C1225.2,289.9,1238.4,310.5,1244.6,321.9z"/>
	<path d="M1270.2,308.1c-12.7-23.7-31.1-44.1-53.1-59c-16.2-10.9-34.1-18.9-53.2-23.6l-5.6-1.4c-5.5-1.4-11.3,0-15.6,3.6l-4.4,3.7
		c-103,85.3-163.5,218.1-194,295.9c-9.7-28.2-24.6-57.4-44.7-87.2c-17.4-25.9-35.2-48.1-52.8-65.7l-9.7-9.7
		c-5.2-5.2-13.5-5.6-19.2-0.9l-10.5,8.8c-20.9,17.4-41.3,36-60.4,55.4c-17.5,17.7-34.4,36.3-50.4,55.4l-9,10.8
		c-4.1,4.9-4,12.1,0.3,16.9l9.4,10.4c47.6,53.2,88.1,112,120.5,175.1c20,39,37.1,80.1,50.7,121.9c4.7,14.4,16.1,26,30.5,30.9
		c9.5,3.3,19.5,5.7,29.4,7.3c9.5,1.6,19.3,2.3,28.9,2.3c5.4,0,10.9-0.2,16.3-0.7c16.1-1.5,30.5-10.8,38.5-24.8
		c10.3-18.1,20.1-36.9,29.3-55.8c11.1-23.1,21.5-46.8,30.7-70.6l0.3-0.9C1134,531.5,1251,358,1265.2,342.5l9-9
		c3.8-3.8,4.6-9.6,2.1-14.2L1270.2,308.1z M1045.1,696.5c-8.4,21.6-18.2,44.6-29.8,68.5c-9.4,19.3-18.9,37.3-28.4,54
		c-3.3,5.7-9.1,9.5-15.7,10.1c-10.6,1-23.5,1-38-1.3c-9.3-1.5-17.6-3.7-24.7-6.2c-5.8-2-10.3-6.5-12.2-12.4
		c-12.4-38.1-29.3-81-52.5-126.2c-39.8-77.5-85.5-137.5-124.6-181.2c14.3-17.2,30.5-35.2,48.6-53.5c20-20.2,39.7-38,58.4-53.5
		c15.7,15.8,32.5,36.4,49.2,61.4c23.7,35.3,48,82.1,52.4,130.5c0.5,5.8,4.4,11.1,10.1,12.4c0,0,0.1,0,0.1,0c2.5,0.5,4.7,0.6,6.5,0.5
		c2-0.1,3.8-1.4,4.7-3.3c13.2-29.1,72.4-230.6,207.7-342.6c11,2.7,27.1,8.1,43.8,19.5c24.5,16.6,37.6,37.2,43.8,48.6
		C1230,336.5,1108.3,516.5,1045.1,696.5z"/>
</g>
<g id="Слой_3" class="st0">
	<g class="st6">
		<path class="st4" d="M163.8,1273.6c-1.4,5.8-2.7,11.9-3.8,18.4c-1.7,9.6-2.8,18.8-3.6,27.2c-1.2-0.4-2.1-1.3-2.5-2.5
			c-2.5-7.8-6-16.6-10.8-25.9c-8.2-15.9-17.6-28.3-25.6-37.2c2.9-3.5,6.3-7.2,10-11c4.1-4.2,8.2-7.8,12-11
			c3.2,3.2,6.7,7.5,10.1,12.6c4.9,7.2,9.9,16.9,10.8,26.8c0.1,1.2,0.9,2.3,2.1,2.5c0,0,0,0,0,0
			C163,1273.6,163.5,1273.6,163.8,1273.6z"/>
		
			<linearGradient id="SVGID_00000091012006019196952440000007641714577680612770_" gradientUnits="userSpaceOnUse" x1="165.4627" y1="1300.0835" x2="203.8063" y2="1220.5576">
			<stop  offset="0" style="stop-color:#628B50"/>
			<stop  offset="0.2796" style="stop-color:#69954E"/>
			<stop  offset="0.5316" style="stop-color:#73A24C"/>
			<stop  offset="1" style="stop-color:#8EC146"/>
		</linearGradient>
		<path style="fill:url(#SVGID_00000091012006019196952440000007641714577680612770_);" d="M225.5,1216.5c-3,3-28,40-41,77
			c-1.7,4.4-3.8,9.2-6.1,14.1c-1.9,4-3.9,7.7-5.8,11.1c-0.7,1.2-1.9,2-3.2,2.1c-2.2,0.2-4.8,0.2-7.8-0.3c-1.9-0.3-3.6-0.8-5.1-1.3
			c0.4-7.8,1.2-16.2,2.6-25.2c1.1-7.5,2.5-14.5,4-21c0.3-1.7,0.6-3.3,1-5c6.5-28.5,24.7-50.1,43.5-65.5c2.3,0.6,5.6,1.7,9,4
			C221.5,1209.9,224.2,1214.2,225.5,1216.5z"/>
		<path d="M230.8,1213.7c-2.6-4.9-6.4-9.1-10.9-12.1c-3.3-2.2-7-3.9-10.9-4.9l-2.9-0.7l-2.3,1.9c-21.2,17.5-33.6,44.8-39.9,60.8
			c-2-5.8-5.1-11.8-9.2-17.9c-3.6-5.3-7.2-9.9-10.8-13.5l-3.9-3.9l-4.2,3.5c-4.3,3.6-8.5,7.4-12.4,11.4c-3.6,3.6-7.1,7.5-10.3,11.4
			l-3.3,4l3.5,3.9c9.8,10.9,18.1,23,24.8,36c4.1,8,7.6,16.5,10.4,25.1c1,3,3.3,5.3,6.3,6.4c2,0.7,4,1.2,6,1.5c2,0.3,4,0.5,6,0.5
			c1.1,0,2.2-0.1,3.4-0.2c3.3-0.3,6.3-2.2,7.9-5.1c2.1-3.7,4.1-7.6,6-11.5c2.3-4.7,4.4-9.6,6.3-14.5l0.1-0.2
			c12.6-35.9,36.7-71.6,39.6-74.8l3.2-3.2L230.8,1213.7z M184.5,1293.5c-1.7,4.4-3.8,9.2-6.1,14.1c-1.9,4-3.9,7.7-5.8,11.1
			c-0.7,1.2-1.9,2-3.2,2.1c-2.2,0.2-4.8,0.2-7.8-0.3c-1.9-0.3-3.6-0.8-5.1-1.3c-1.2-0.4-2.1-1.3-2.5-2.5c-2.5-7.8-6-16.6-10.8-25.9
			c-8.2-15.9-17.6-28.3-25.6-37.2c2.9-3.5,6.3-7.2,10-11c4.1-4.2,8.2-7.8,12-11c3.2,3.2,6.7,7.5,10.1,12.6
			c4.9,7.2,9.9,16.9,10.8,26.8c0.1,1.2,0.9,2.3,2.1,2.5c0,0,0,0,0,0c0.5,0.1,1,0.1,1.3,0.1c0.4,0,0.8-0.3,1-0.7
			c2.7-6,14.9-47.4,42.7-70.4c2.3,0.6,5.6,1.7,9,4c5,3.4,7.7,7.7,9,10C222.5,1219.5,197.5,1256.5,184.5,1293.5z"/>
	</g>
	
		<text transform="matrix(1 0 0 1 271.8936 1284.2979)" style="display:inline;fill:#FFFFFF; font-family:'MyriadPro-Regular'; font-size:60px;">Исходник</text>
</g>
</svg>
