<?xml version="1.0" encoding="UTF-8"?>
<svg id="_Слой_3" data-name="Слой 3" xmlns="http://www.w3.org/2000/svg" viewBox="0 0 1920 1080">
  <defs>
    <style>
      .cls-1 {
        fill: #b41f5b;
      }

      .cls-1, .cls-2, .cls-3, .cls-4, .cls-5, .cls-6, .cls-7, .cls-8, .cls-9 {
        stroke-width: 0px;
      }

      .cls-2 {
        fill: #ff9189;
      }

      .cls-4 {
        fill: #ff3888;
      }

      .cls-5 {
        fill: #ff7592;
      }

      .cls-6 {
        fill: #870642;
      }

      .cls-7 {
        fill: #ff7797;
      }

      .cls-8 {
        fill: #ffc16f;
      }

      .cls-9 {
        fill: #ff977c;
      }
    </style>
  </defs>
  <path class="cls-5" d="M1072.85,460.94c2.51,12.53,5.02,37.4-14.45,55.13-.51.43-.89.99-1.14,1.6-4.82,11.49-7.3,7.05-9.76,21.88-2.46,14.76-21.63,127.37-135.06,167.64-7.33,2.61-15.24,3.22-22.92,1.95-37.15-6.21-148.7-35.63-182.76-167.01-.2-.86-.63-1.67-1.22-2.33-17.83-19.42-45.34-24.17-5.45-89.01,2.46,19.65,2.54,46.41,30.15,48.1,1.55.08,2.92-.99,3.09-2.51,1.78-13.74,24.95-109.83,59.97-142.84,6.64-6.29,12.15-8.44,17.09-7.99,13.24,1.24,22.34,21.22,25.36,27.89,7.38,16.25,5.5,25.66,15.21,32.97,2.49,1.85,7.38,5.55,12.68,5.07,22.06-1.95,25.21-73.26,40.57-73.54,9.81-.18,18.28,28.73,20.29,40.57,1.12,6.57,1.98,11.66,0,17.75-1.93,5.91-4.87,7.68-4.62,12.68.23,4.64,2.49,10.73,7.25,11.82,2.71.63,6.44,1.24,11.64,1.88,1.37.15,2.71-.43,3.55-1.52,23.58-30.63,44.86-58.6,59.74-59.21,1.37-.08,2.69.41,3.78,1.24,10.63,8.17,31.44,27.46,38.9,100.7.13,1.27.91,2.38,2.08,2.89,6.67,2.92,12.1,8.11,26.02-5.81Z"/>
  <path class="cls-2" d="M1074.12,461.95v28.93c0,.66-.05,6.75-1.67,13.97-1.32,5.76-4.54,10.95-9.13,14.63-3.35,2.74-6.29,6.69-8.95,10.6-.33.46-.43.84-.46.99-1.8,16.66-7.28,32.48-13.01,45.24-2.32,1.02-5.69,2.18-9.89,2.54-6.93.59-12.4-1.31-15.21-2.54-98.05-18.6-196.1-37.19-294.15-55.79l-15.04-15.04c-.05-.91-.13-1.8-.18-2.71v-25.36c7.61,5.91,15.21,11.84,22.82,17.75,12.86-33.83,27.18-68.54,43.11-103.97,5.02-11.16,10.09-22.16,15.21-32.97,1.01-2.05,7.4-14.48,17.75-15.21,10.04-.71,18.36,11.28,22.82,17.75,15.6,22.54,11.23,41.79,22.82,45.64,5.86,1.95,13.34-.86,17.75-2.54,1.8-.68,7.13-2.84,12.68-7.61,5.33-4.59,8.44-9.51,10.14-12.68,1.7-18.59,3.37-37.2,5.07-55.79,9.31,15.21,18.59,30.43,27.89,45.64,6.09,38.34,11.26,48.18,15.21,48.18,2.79,0,4.94-4.87,15.21-10.14,3.75-1.93,3.91-1.5,5.83-2.89,4.74-3.42,5.1-7.4,10.47-13.85,1.65-1.98,3.45-4.08,5.48-6.26l.23-.25c2.92-5.43,9.23-15.32,21.1-22.39,5.73-3.42,8.8-5.25,12.68-5.07,11.82.51,19.02,18.97,32.97,55.79,11.28,29.82,13.47,43.31,7.71,55.53-.94.79-1.83,1.7-2.64,2.79-1.47,1.95-2.31,3.96-2.81,5.63,1.52-1.78,3.6-4.51,5.35-8.17.05-.08.08-.18.1-.25,4.94-4.18,11.06-4.72,12.58-4.82,3.37-1.78,6.77-3.55,10.14-5.33Z"/>
  <path class="cls-9" d="M1008.19,568.71c4.72.63,8.65,3.54,10.14,7.61,1.24,3.39.38,6.47,0,7.61v2.54c-1.69,3.38-3.38,6.76-5.07,10.14-4.27,7.92-10.84,19.13-20.13,31.68-13.32,17.97-24.26,32.35-43.26,44.4-7.57,4.8-19.35,11.07-35.5,15.21-5.9,1.6-14.73,3.28-25.36,2.54-2.67-.19-8.84-.77-22.82-5.07-9.75-3-20.63-6.35-32.97-12.68-9.43-4.84-19.93-11.47-35.5-25.36-56.77-50.62-80.76-105.72-85.68-117.43-.65-1.54-1.17-2.81-1.5-3.63-1.95-4.8-3.76-11.04-4.11-18.41-.08-1.77-.08-3.47,0-5.07,5.92,5.92,11.83,11.83,17.75,17.75,50.72,9.3,101.43,18.6,152.15,27.89,43.95,6.76,87.91,13.52,131.86,20.29Z"/>
  <path class="cls-8" d="M808.12,373.45s-24.71,9.88-56.77,144.08c-3.76,2.92-10.65,12-29.44.05,6.89,15.63,47.92,133.82,156.63,123.94,101.3-14.82,133.42-46.94,133.42-46.94,0,0,22.97-32.16,26.83-67.69.31-2.86,1.4-5.57,3.03-7.94,3.49-5.1,7.2-9.99,11.95-13.82,1.93-1.56,3.27-3.73,3.82-6.15,1.31-5.78,1.31-10.63,1.31-10.63-3.04,2.09-10.53,6.65-17.75,4.29-6.87-2.24-10.12-9.6-11.9-14.18-13.49-34.72-12.83-90.14-23.6-92.33-3.72-.76-12.19,4.15-17.64,10.02-.04.04-.07.08-.11.12-8.67,9.41-13.15,16.53-17.75,22.82-4.59,6.27-11.75,15.06-22.43,24.77-3.04.69-22.03-.38-37.95-7.74-2.84-1.31-4.58-4.29-4.21-7.39,1.29-10.77,8.78-30.59,2.62-36.75-9.88,19.77-24.71,37.06-32.12,39.53-7.25,2.42-19.22,7.19-38.22,7.4-.86,0-1.67-.46-2.09-1.21-6.99-12.46-15.27-61.79-27.63-64.26Z"/>
  <path class="cls-3" d="M900.24,343.37c3.4,5.91,6.41,10.87,9.09,15.28l.07.12c.56.92,1.3,2.04,2.16,3.35,3.38,5.09,9.03,13.62,10.57,23.43.43,2.74,1.15,7.33.09,13.04-.43,2.34-.99,3.92-1.47,5.32-3.47,9.95.23,15.88,3.94,19.09l.05.04.05.04c2.83,2.4,6.44,3.72,10.18,3.72,7.82,0,11.52,0,71.42-63.23,12.54,9.82,29.76,30.16,37.35,91.45l3.39,27.38,21.35-17.48c1.31-1.07,2.68-2.32,4.1-3.72l.56,1.29c4.05,22.06-.46,39.65-13.41,52.29l-1.15,1.12-.75,1.12-.02.03-.16.24-.66.99-.5,1.07c-1.47,3.19-2.71,4.92-4.08,6.73-.32.41-1,1.26-1.68,2.41l-.19.32-.17.33c-.84,1.61-1.85,4.1-2.9,10.41-4.97,29.84-29.41,130.12-135.04,167.65-4.83,1.72-9.93,2.59-15.16,2.59-2.58,0-5.19-.22-7.77-.65-33.86-5.66-147.08-34.28-182.12-164.64l-.56-1.98-.97-1.7-1.01-1.78-1.45-1.45c-2.28-2.27-4.69-4.39-7.01-6.43-9.63-8.46-15.42-15.21-16.52-24.69-1.45-12.45,5.02-30.63,19.25-54.07l1.05-1.02c.2,1.67.39,3.39.58,5.15,1.15,10.52,2.24,17.25,4.95,24.89,3.13,8.8,6.36,17.9,17.19,18.77l.6.06h.76c15.3,0,20.13-14.08,40.43-73.36,8.49-24.8,22.69-66.23,28.62-73.33,1.75-1.64,4.04-2.83,4.89-3.2,1.65-.65,3.41-.97,5.24-.97.4,0,.8.02,1.19.04,2.37.19,5.08,1.26,8.06,3.18,16.8,10.86,23.32,26.99,28.89,51.19l3.88,16.84,16.21-5.98c13.58-5.01,25.74-15.44,33.34-28.62,4.13-7.14,10.42-21.57,6.21-37.94-.43-1.69-.75-3.26-.97-4.74M908.03,286.85c-1.84,0-4.66,1.54-6.35,2.92-.82.67-.46.56-2.54,2.54-1.57,1.5-2.63,2.37-4.18,4.07-.39.42-.69.77-.89,1-1.54,1.63-3.56,4.19-5.02,7.78-.43,1.05-.67,1.91-1.03,3-1.16,3.54-1.79,6.76-2.14,9.45l-1.12,19.57c-.28,4.97.46,9.9,1.7,14.72,2.82,10.97-1.48,21.05-4.65,26.54-5.91,10.24-15.42,18.26-25.44,21.95-5.53-24-12.93-46-35.46-60.55-4.58-2.96-9.7-5.15-15.14-5.57-.79-.06-1.59-.09-2.37-.09-3.81,0-7.52.72-10.97,2.09,0,0-5.36,2.15-9.84,6.46-15.07,14.51-49.26,142.3-58.36,142.3-.02,0-.04,0-.06,0-1.07-.07-2.1-2.95-4.14-8.71-2.23-6.27-3.11-11.83-4.17-21.46-.22-2.02-.44-4.01-.68-5.93v-.05l3.91-24.68s0-.04,0-.07c-.36-2.7-3.4-4.46-6.17-4.46-1.61,0-3.13.6-3.97,1.96l-21.82,21.17-.03.04c-37.09,60.28-22.3,80.84-.77,99.75,2.23,1.96,4.37,3.84,6.31,5.77.02.03.03.05.05.08,37.39,139.07,158.04,169.63,194.31,175.7,3.4.57,6.86.86,10.28.86,6.97,0,13.78-1.17,20.25-3.46,113.46-40.31,139.64-147.57,144.96-179.49.78-4.65,1.34-5.79,1.36-5.82.22-.37.47-.65.72-.98,1.77-2.34,3.66-5.01,5.74-9.52.01-.02.03-.04.04-.05,16.95-16.54,22.97-39.89,17.41-67.7,0-.01,0-.03-.01-.04l-10.08-23.07c-.73-1.68-2.3-2.53-3.87-2.53-1.48,0-2.97.76-3.75,2.3l-7.95,15.52s-.02.03-.04.05c-1.29,1.29-2.36,2.25-3.22,2.95-8.37-67.58-28.8-90.59-43.72-102.05-3.7-2.85-8.26-4.41-12.85-4.41l-.87.02c-48.03,50.9-63.64,64.89-66.43,64.89-.14,0-.25-.03-.32-.1-.69-.6,1.3-3.48,2.54-10.14,1.53-8.27.49-14.88-.02-18.17-2.44-15.54-11.75-27.36-14.76-32.32-2.87-4.73-6.09-10.02-9.74-16.42-1.01-1.77-1.73-3.7-2.13-5.7l-2.49-12.31c-.85-4.22-.98-8.56-.37-12.83l1.08-7.57s0-.02,0-.03c.94-4.16,1.8-7.68.53-8.78-.31-.27-.75-.39-1.25-.39h0Z"/>
  <path class="cls-1" d="M889.39,658.93c-2.37,0-4.07-.12-5.63-.27-17.46-1.66-33.04-7.55-45.96-16.97-4.88-3.56-31.29-23.21-35.82-55.34-1.9-13.52-.21-31.14,5.89-32.85,3.41-.96,8.23,3.06,10.14,5.07,3.25,3.41,3.59,6.7,8.44,12.37,1.29,1.51,2.65,2.83,2.77,3.01,0,.01.02.03.03.04,1.76,2.5,5.74,1.06,5.57-1.99-.07-1.2-.16-2.11-.21-2.69l-.04-.45c1.58-8.34,9.95-49.45,37.31-74.88,13.54-12.59,28.97-18.76,29.83-19.1,2.06-.8,11.97-4.58,25.36-5.07,7.59-.28,13.64-.5,15.21,2.54,2.3,4.43-7.91,9.95-15.4,25.5-2.65,5.51-9.69,20.12-3.99,33.51,1.15,2.71,2.63,4.92,4.06,6.65,1.96,2.38,5.44,3.17,8.09,1.6.02-.01.04-.02.06-.03,2.3-1.39,3.08-3.42,4.64-6.36,3.01-5.71,5.25-9.94,7.61-10.14,3.49-.3,6.89,8.28,7.61,10.14,10.55,27.26,7.61,50.72,7.61,50.72-.77,6.1-4.39,30.33-22.54,51.58-.1.11-.17.2-.3.35-1.5,1.73-20.6,23.1-50.3,23.07Z"/>
  <path class="cls-4" d="M885.2,643.51c25.24,2.4,43.11-17.75,43.11-17.75,0,0,25.36-30.43,15.21-73.54,0,0-7.61,5.07-15.21,5.07s-35.5-22.82-15.21-65.93c-15.92,3.46-26.45,10.4-31.92,14.64-23.93,18.54-32.69,48.47-31.48,61.43.14,1.48.84,7.37,0,15.21-.33,3.08-.83,5.81-1.35,8.12-.65,2.87-3.15,4.98-6.1,5.02-2.94.04-6.63-.32-10.63-1.73-8.61-3.05-13.3-9.12-14.9-11.41,2.54,10.14,15.21,55.79,68.47,60.86Z"/>
  <path class="cls-6" d="M918.09,635.87c2.55-1.52,4.39-3.99,5.17-6.84,1.14-4.16,2.15-8.86,2.82-14.04,1.21-9.37.96-17.68.22-24.44-.24-2.15-2.1-3.78-4.26-3.69-1.86.09-4.04.01-6.42-.4-3.38-.59-6.2-1.08-8.71-3.11-3.83-3.11-2.97-6.62-6.5-12.1-.85-1.32-1.92-2.69-3.28-4.06-2.21-2.22-5.88-1.87-7.59.76-1.75,2.69-3.63,5.05-4.03,8.37-2.04,16.84,10.77,35.46,7.29,38.04-.79.59-2.34.28-3.8,0-2.44-.47-4.15-1.74-5.07-2.54-.72-.29-7.3-2.85-10.14,0-2.2,2.21-.84,6.33,1.27,12.68,0,0,4.57,13.55,14.28,19.72.6.38,1.29.54,1.99.47,5.12-.52,11.87-1.81,19.23-4.97,2.8-1.21,5.31-2.52,7.53-3.84Z"/>
  <path class="cls-7" d="M805.32,502.78c-1.14,0-2.31-.26-3.4-.8-.3-.15-1.1-.56-2.21-1.14-12.5-6.5-16.66-8.44-17.9-8.89-2.02-.51-3.74-1.83-4.77-3.66-3.62-6.49-4.42-12.44-2.36-17.7,3.15-8.06,11.34-13.32,20.95-14.27-.77-5.81-.91-11.68-.42-17.55.62-7.4,2.24-14.69,4.84-21.68,1.46-3.94,5.84-5.95,9.78-4.49,3.94,1.46,5.95,5.84,4.49,9.78-2.11,5.7-3.44,11.64-3.94,17.66-.63,7.57.03,15.15,1.96,22.55.68,2.59-.05,5.34-1.93,7.25s-4.61,2.7-7.21,2.07c-7.56-1.82-13.2,1.28-14.35,4.22-.11.29-.11,1.1.4,2.46,2.91,1.3,7.94,3.8,17.48,8.76,1.01.52,1.73.9,2,1.04,3.76,1.88,5.28,6.45,3.4,10.21-1.33,2.66-4.02,4.2-6.81,4.2ZM781.92,491.97c.13.03.25.06.34.07-.12-.02-.23-.05-.34-.07Z"/>
  <path class="cls-7" d="M832.74,501.99s-10.73,3.66-12.1,13.71c-1.37,10.05,5.49,16.1,5.49,16.1,0,0,7.14,3.95,8.22-4l2.6-19.16c.27-1.95-.55-3.9-2.12-5.08l-2.09-1.57Z"/>
  <path class="cls-7" d="M968.97,488.8s10.09,5.19,9.97,15.33c-.11,10.14-7.78,15.13-7.78,15.13,0,0-7.64,2.86-7.55-5.16-.55-2.34-1.03-5.32-1.07-8.79-.05-4.28.6-7.88,1.29-10.54,0-.49.08-1.59.78-2.74.49-.82,1.2-1.5,2.06-1.97l2.3-1.25Z"/>
  <g>
    <g>
      <path class="cls-7" d="M1000.99,490.57c-1.09-.05-5.51-.76-4-2.82.86-1.18,3.67.41,5.02.16,5.36-1.02,5.93-7.23,3.29-11.09-3.03-4.42-8.46-5.01-13.34-5.36-2.01-.14-6.32-.37-4.99-3.22s3.85-5.41,5.53-8.04c6.33-9.93,9.79-21.41,8.59-33.24-.24-2.33-.35-5.12-1.46-7.23-.54-1.01-3.95-2.9-1.79-4.1,1.27-.71,2.85,1.02,3.49,1.93,1.5,2.12,1.85,5.05,2.16,7.56,1.72,13.95-2.51,26.84-10.11,38.4-1.24,1.88-.11,5.22,2.27,5.59,5.74.88,11.54,3.55,13.33,9.56,1.73,5.81-1.73,11.58-7.99,11.9-4.87.25-4.9,7.86,0,7.61,9.93-.51,17.23-8.76,15.88-18.77-1.34-9.88-9.81-16.19-19.2-17.64.76,1.86,1.52,3.73,2.27,5.59,8.4-12.78,12.94-27.37,11.09-42.75-.7-5.8-2.17-12.08-7.6-15.27s-12.2-.79-13.68,5.39c-.69,2.9.24,6.19,2.37,8.28.42.41,1.02.71,1.41,1.14-1.49-1.64-.43.06-.27,1.12.32,1.99.44,4.02.45,6.04.05,7.63-1.97,15-5.72,21.63-1.79,3.16-3.85,6.17-5.94,9.13s-3.82,5.74-2.83,9.43c.87,3.23,3.36,5.36,6.42,6.46,3.41,1.22,6.96.66,10.39,1.55.76.2,1.65.45,2.29.95.37.29.71,1.06,1.01,1.22l2.54-1.14-.91-.38c-.86-.4-2.02-.5-2.95-.5-3.38,0-6.49,1.99-7.97,5.01-3.79,7.75,4.04,13.23,10.94,13.54,4.89.22,4.88-7.39,0-7.61Z"/>
      <path class="cls-7" d="M996.56,425.27h.03c.52.02,1.01-.09,1.47-.33.47-.15.88-.42,1.22-.79.37-.34.63-.75.79-1.22.24-.45.35-.94.33-1.47l-.14-1.01c-.18-.64-.51-1.2-.98-1.68l-.77-.59c-.59-.34-1.23-.52-1.92-.52h-.03c-.52-.02-1.01.09-1.47.33-.47.15-.88.42-1.22.79-.37.34-.63.75-.79,1.22-.24.45-.35.94-.33,1.47l.14,1.01c.18.64.51,1.2.98,1.68l.77.59c.59.34,1.23.52,1.92.52h.03c.52.02,1.01-.09,1.47-.33.47-.15.88-.42,1.22-.79.37-.34.63-.75.79-1.22.24-.45.35-.94.33-1.47l-.14-1.01c-.18-.64-.51-1.2-.98-1.68l-.77-.59c-.59-.34-1.23-.52-1.92-.52h-.03c-.52-.02-1.01.09-1.47.33-.47.15-.88.42-1.22.79-.37.34-.63.75-.79,1.22-.24.45-.35.94-.33,1.47l.14,1.01c.18.64.51,1.2.98,1.68l.77.59c.59.34,1.23.52,1.92.52Z"/>
    </g>
    <path class="cls-7" d="M996.48,420.02c2.72,1.42,2.29,8.53,2.32,11.16.04,4.36-.51,8.66-1.65,12.87-2.35,8.71-7.44,16.04-12.61,23.29-1.59,2.23.23,4.74,2.27,5.59,5.03,2.09,11.21.06,15.49,4.22,1.48,1.44,2.67,3.93,1.92,6.01-.58,1.63-2.61,2.92-4.28,2.05-4.33-2.27-8.18,4.3-3.84,6.57,8.69,4.54,17.67-3.91,15.56-12.95-1.08-4.64-4.48-8.29-8.73-10.27-2.1-.97-4.27-1.53-6.56-1.84-2.56-.34-5.13-.12-7.55-1.13.76,1.86,1.52,3.73,2.27,5.59,6.46-9.07,12.36-18.34,14.35-29.49.95-5.33,1.2-10.73.59-16.11-.52-4.54-1.25-9.79-5.73-12.12s-8.19,4.3-3.84,6.57h0Z"/>
  </g>
</svg>