<?xml version="1.0" encoding="UTF-8"?>
<svg id="_Готовый_котэ" data-name="Готовый котэ" xmlns="http://www.w3.org/2000/svg" xmlns:xlink="http://www.w3.org/1999/xlink" viewBox="0 0 1920 1080">
  <defs>
    <style>
      .cls-1 {
        opacity: .85;
      }

      .cls-2 {
        fill: #5ebce6;
      }

      .cls-2, .cls-3, .cls-4, .cls-5, .cls-6, .cls-7 {
        stroke-width: 0px;
      }

      .cls-3 {
        fill: #1e3967;
      }

      .cls-4 {
        fill: #315ead;
      }

      .cls-6 {
        fill: #1d446e;
      }

      .cls-8 {
        clip-path: url(#clippath);
      }

      .cls-9, .cls-7 {
        fill: #71e2fa;
      }
    </style>
    <clipPath id="clippath">
      <path class="cls-7" d="M996.51,686.34c56.99,7.38,140.76-51.97,198.02-177.51,5.99-13.13,8.5-27.62,7.27-42.05-4.95-58.02-25.07-187.84-67.85-185.54-50.06,2.7-69.13,86.73-78.66,86.73s-14.16-11.16-65.9-5.9c-26.25,2.67-51.67,15.6-51.67,15.6h-9.53c-3.18,0-24.75-75.62-58.45-71.75-7.29.84-65.47,13.57-68.65,184.87-1.87,100.56,108.04,184.23,195.42,195.54Z"/>
    </clipPath>
  </defs>
  <g id="_Котэ" data-name="Котэ">
    <g id="_Персонаж" data-name="Персонаж">
      <path class="cls-5" d="M1148.7,784c-29.64,0-48.43-21.15-57-33.76-.09-.13-.18-.26-.27-.4-23.71,16.29-53.95,24.84-88.31,24.84-33.26,0-69.3-8.24-100.7-22.84-8.07,5.39-19.24,10.57-34.14,10.57-6.78,0-13.69-1.04-21.18-3.18-15.21-4.34-27.15-14.81-33.59-29.46-5.67-12.89-6.22-27.48-4.34-41.37-1.11.04-2.21.06-3.28.06-24.62,0-44.07-10.69-54.78-30.1-.53-.97-1-1.92-1.44-2.89-.69-1.55-1.67-4.03-2.58-7.34-3.08-11.17-9.44-49.17,31.19-86.77,1.06-68.06,8.76-181.71,45.99-238.04,9.94-15.04,26.61-24.01,44.58-24.01,2.79,0,5.62.22,8.39.65,16.1,2.53,30.14,12.55,38.54,27.51,2.63,4.69,5.45,9.94,8.36,15.36,3.49,6.51,7.27,13.56,10.88,19.83,18.16-3.95,42.81-8.71,68.73-8.71h38.35c23.42-38.99,43.66-62.82,61.72-72.74,7.36-4.04,15.71-6.17,24.14-6.17,7.58,0,15.21,1.74,22.08,5.03,32.87,15.76,66.64,61.79,69.57,280.52,15.02,4.45,26.26,14.81,32.43,30.23,8.32,20.79,4.3,51.05-10,75.29-8,13.56-18.48,23.83-30.54,30.17,4.34,16.38,1.45,34.13-8.78,54.11-6.12,11.94-15.92,21.65-27.61,27.36-8.45,4.13-17.34,6.22-26.41,6.22h0Z"/>
      <path class="cls-4" d="M1148.7,764.93c-20.86,0-34.78-15.92-41.22-25.4-3.03-4.48-4.86-9.69-5.29-15.09-.18-2.19-.52-4.01-.89-5.39-2.4,1.18-6.35,3.59-12.05,8.47-21.45,18.39-51.23,28.1-86.12,28.1-34.45,0-71.69-9.5-102.9-26.17-.05.05-.11.09-.16.14-6.83,5.81-16.19,13.76-31.78,13.76-4.96,0-10.17-.8-15.93-2.45-9.67-2.76-17.27-9.44-21.39-18.81-8-18.19-1.39-43.32,4.11-58.47.1-.29-.15-.56-.44-.47-2.77.85-6.03,1.98-9.86,3.47-2.38.93-4.93,1.6-7.55,1.96-4.02.54-7.82.81-11.33.81-17.61,0-30.78-7-38.08-20.24-.26-.48-.5-.96-.72-1.46-.33-.74-.98-2.33-1.61-4.62-2.5-9.07-7.45-40.74,31.64-72.83.08-.07.13-.17.14-.28.46-54.77,5.76-179.89,42.93-236.12,7.39-11.18,20.56-17.16,34.12-15.03,10.6,1.66,19.61,8.64,24.86,18,2.58,4.59,5.33,9.73,8.18,15.04,5.97,11.13,12.63,23.56,18.43,32.16.08.13.22.18.37.15,1.75-.38,3.65-.8,5.68-1.25,17.69-3.93,44.42-9.87,71.93-9.87h49.24c16.73-28.94,40.1-64.17,60-75.09,4.56-2.5,9.73-3.82,14.97-3.82,4.74,0,9.52,1.09,13.83,3.16,24.69,11.84,57.52,53.82,58.91,279.92.28,0,.56,0,.84,0,16.26,0,27.29,6.97,32.79,20.72,6.14,15.35,2.55,39.42-8.72,58.52-9.47,16.05-23.1,25.94-38.39,27.85-1.15.14-2.28.28-3.39.4,3.47,3.63,6.49,8.15,8.44,13.85,4.19,12.31,2.06,26.43-6.52,43.17-4.25,8.29-11,15.01-19.01,18.92-5.83,2.85-11.9,4.29-18.06,4.29Z"/>
      <path class="cls-2" d="M784.51,639.96s-.3-.67-.64-1.93c-1.82-6.61-4.95-29.37,27.6-54.85,3.02-2.36,4.81-5.97,4.83-9.81.19-35.32,2.8-173.05,39.8-229.01,6.27-9.48,20.25-9.17,25.85.73,9.22,16.29,20.9,40.26,31.01,53.8,2.9,3.88,7.72,5.83,12.48,4.9,15.4-3.03,46.86-11.68,78.33-11.68h52.99c4.52,0,8.69-2.41,10.93-6.33,9.48-16.63,35.99-60.95,54.51-71.11,3.52-1.93,7.76-1.92,11.38-.18,21.26,10.19,47.41,64.16,48.12,269.17.02,6.57,5.06,12.14,11.62,12.57,9.56.63,18.85-2.47,23.35,8.79,6.36,15.89-6.36,57.2-31.78,60.37-11.52,1.44-19.13,1.57-24,1.29-6.31-.37-12.12,3.83-13.22,10.05-.72,4.07.21,8.29,5.44,10.9,12.08,6.04,32.77,12.08,15.7,45.4-2.29,4.48-5.89,8.28-10.41,10.49-17.13,8.36-30.38-7.66-35.15-14.69-1.19-1.75-1.89-3.78-2.06-5.89-.81-10.14-6.36-42.45-44.35-9.89-42.58,36.49-120.08,26.42-171.23-2.37-4.47-2.52-10.02-2.05-14.02,1.16-10.26,8.23-15.63,15.99-34,10.74-22.24-6.36-5.68-52.18,0-63.55.91-1.82,1.3-3.63,1.32-5.37.08-7.11-6.32-12.44-13.43-12.05-5.53.3-14.22,2.04-27.64,7.28-1.02.4-2.13.68-3.21.83-20.81,2.81-27.1-4.25-30.12-9.74Z"/>
    </g>
    <g class="cls-1">
      <path class="cls-9" d="M996.51,686.34c56.99,7.38,140.76-51.97,198.02-177.51,5.99-13.13,8.5-27.62,7.27-42.05-4.95-58.02-25.07-187.84-67.85-185.54-50.06,2.7-69.13,86.73-78.66,86.73s-14.16-11.16-65.9-5.9c-26.25,2.67-51.67,15.6-51.67,15.6h-9.53c-3.18,0-24.75-75.62-58.45-71.75-7.29.84-65.47,13.57-68.65,184.87-1.87,100.56,108.04,184.23,195.42,195.54Z"/>
      <g class="cls-8">
        <g id="_Персонаж-2" data-name="Персонаж">
          <path class="cls-7" d="M1149.4,790.84c-29.64,0-48.43-21.51-57-34.34-.09-.14-.18-.27-.27-.41-23.71,16.57-53.95,25.27-88.31,25.27-33.26,0-69.3-8.38-100.7-23.23-8.07,5.48-19.24,10.75-34.14,10.75-6.78,0-13.69-1.06-21.18-3.24-15.21-4.42-27.15-15.06-33.59-29.97-5.67-13.11-6.22-27.95-4.34-42.08-1.11.04-2.21.06-3.28.06-24.62,0-44.07-10.87-54.78-30.61-.53-.99-1-1.95-1.44-2.94-.69-1.58-1.67-4.1-2.58-7.47-3.08-11.36-9.44-50.01,31.19-88.26,1.06-69.23,8.76-184.83,45.99-242.13,9.94-15.29,26.61-24.42,44.58-24.42,2.79,0,5.62.22,8.39.67,16.1,2.57,30.14,12.77,38.54,27.98,2.63,4.77,5.45,10.11,8.36,15.63,3.49,6.62,7.27,13.79,10.88,20.17,18.16-4.01,42.81-8.86,68.73-8.86h38.35c23.42-39.66,43.66-63.9,61.72-73.99,7.36-4.11,15.71-6.28,24.14-6.28,7.58,0,15.21,1.77,22.08,5.12,32.87,16.03,66.64,62.85,69.57,285.34,15.02,4.53,26.26,15.06,32.43,30.74,8.32,21.15,4.3,51.93-10,76.59-8,13.79-18.48,24.23-30.54,30.69,4.34,16.66,1.45,34.71-8.78,55.03-6.12,12.14-15.92,22.03-27.61,27.83-8.45,4.2-17.34,6.33-26.41,6.33h0Z"/>
          <path class="cls-7" d="M1149.4,771.44c-20.86,0-34.78-16.19-41.22-25.84-3.03-4.55-4.86-9.86-5.29-15.35-.18-2.23-.52-4.07-.89-5.49-2.4,1.2-6.35,3.65-12.05,8.62-21.45,18.7-51.23,28.58-86.12,28.59-34.45,0-71.69-9.66-102.9-26.62-.05.05-.11.09-.16.14-6.83,5.91-16.19,14-31.78,14-4.96,0-10.17-.81-15.93-2.49-9.67-2.81-17.27-9.6-21.39-19.13-8-18.5-1.39-44.07,4.11-59.47.1-.29-.15-.57-.44-.48-2.77.86-6.03,2.01-9.86,3.53-2.38.95-4.93,1.63-7.55,1.99-4.02.55-7.82.83-11.33.83-17.61,0-30.78-7.12-38.08-20.59-.26-.49-.5-.98-.72-1.48-.33-.75-.98-2.37-1.61-4.7-2.5-9.23-7.45-41.44,31.64-74.08.08-.07.13-.17.14-.28.46-55.71,5.76-182.98,42.93-240.18,7.39-11.38,20.56-17.46,34.12-15.29,10.6,1.69,19.61,8.79,24.86,18.31,2.58,4.67,5.33,9.9,8.18,15.3,5.97,11.32,12.63,23.97,18.43,32.71.08.13.22.19.37.15,1.75-.39,3.65-.82,5.68-1.28,17.69-4,44.42-10.04,71.93-10.04h49.24c16.73-29.43,40.1-65.27,60-76.38,4.56-2.54,9.73-3.89,14.97-3.89,4.74,0,9.52,1.11,13.83,3.21,24.69,12.04,57.52,54.74,58.91,284.72.28,0,.56,0,.84,0,16.26,0,27.29,7.09,32.79,21.08,6.14,15.61,2.55,40.09-8.72,59.53-9.47,16.32-23.1,26.38-38.39,28.33-1.15.15-2.28.28-3.39.41,3.47,3.69,6.49,8.29,8.44,14.09,4.19,12.52,2.06,26.89-6.52,43.91-4.25,8.44-11,15.27-19.01,19.25-5.83,2.89-11.9,4.36-18.06,4.37Z"/>
          <path class="cls-7" d="M785.21,644.32s-.3-.68-.64-1.96c-1.82-6.72-4.95-29.88,27.6-55.79,3.02-2.4,4.81-6.08,4.83-9.97.19-35.93,2.8-176.02,39.8-232.95,6.27-9.64,20.25-9.32,25.85.74,9.22,16.57,20.9,40.96,31.01,54.73,2.9,3.95,7.72,5.93,12.48,4.98,15.4-3.08,46.86-11.88,78.33-11.88h52.99c4.52,0,8.69-2.45,10.93-6.44,9.48-16.91,35.99-62,54.51-72.34,3.52-1.97,7.76-1.95,11.38-.19,21.26,10.37,47.41,65.26,48.12,273.79.02,6.68,5.06,12.35,11.62,12.79,9.56.64,18.85-2.52,23.35,8.94,6.36,16.16-6.36,58.18-31.78,61.41-11.52,1.46-19.13,1.6-24,1.31-6.31-.37-12.12,3.9-13.22,10.22-.72,4.14.21,8.43,5.44,11.09,12.08,6.14,32.77,12.29,15.7,46.18-2.29,4.55-5.89,8.42-10.41,10.67-17.13,8.5-30.38-7.8-35.15-14.94-1.19-1.78-1.89-3.84-2.06-5.99-.81-10.31-6.36-43.18-44.35-10.06-42.58,37.12-120.08,26.87-171.23-2.41-4.47-2.56-10.02-2.08-14.02,1.18-10.26,8.37-15.63,16.26-34,10.92-22.24-6.46-5.68-53.08,0-64.64.91-1.85,1.3-3.69,1.32-5.47.08-7.24-6.32-12.65-13.43-12.26-5.53.31-14.22,2.07-27.64,7.4-1.02.4-2.13.69-3.21.84-20.81,2.86-27.1-4.32-30.12-9.91Z"/>
        </g>
      </g>
    </g>
    <path class="cls-5" d="M1127.97,294.13c4.74,0,9.53,1.09,13.84,3.16,23.86,11.44,55.9,51.2,58.75,263.58l.19,14.03,13.46,3.99c9.57,2.84,16.16,9.06,20.15,19.03,6.14,15.35,2.55,39.42-8.72,58.52-6.1,10.33-14.05,18.28-23,22.99l-13.44,7.07,3.89,14.68c3.08,11.63.69,24.89-7.32,40.52-4.25,8.29-11,15.01-19.02,18.93-5.82,2.84-11.9,4.29-18.05,4.29-20.86,0-34.78-15.91-41.24-25.43l-.11-.16-10.7-16.23-16.02,11.01c-20.46,14.06-47.26,21.49-77.51,21.49-30.54,0-63.45-7.48-92.67-21.06l-9.72-4.52-8.91,5.95c-7.51,5.02-15,7.36-23.55,7.36-4.97,0-10.18-.8-15.94-2.45-9.81-2.8-17.2-9.3-21.38-18.8-3.61-8.2-4.58-18.68-2.9-31.14l3.03-22.43-22.62.82c-.88.03-1.75.05-2.6.05-12.28,0-28.86-3.51-38.07-20.21-.27-.5-.51-.98-.71-1.43-.41-.94-1.03-2.51-1.64-4.69-2.26-8.2-7.09-37.3,25.76-67.7l5.99-5.54.13-8.16c.97-62.35,7.82-174.85,42.83-227.82,6.4-9.68,17.12-15.46,28.68-15.46,1.81,0,3.64.14,5.43.42,10.29,1.62,19.35,8.18,24.86,18,2.46,4.39,5.05,9.21,8.26,15.18,3.45,6.43,7.36,13.72,11.08,20.19l6.95,12.08,13.62-2.96c18.83-4.09,41.23-8.27,64.68-8.27h49.14l5.56-9.25c21.35-35.54,39.7-57.69,54.55-65.84,4.56-2.5,9.74-3.82,14.97-3.82M1127.97,275.07c-8.43,0-16.78,2.13-24.14,6.17-18.06,9.92-38.3,33.75-61.72,72.74h-38.35c-25.91,0-50.56,4.76-68.73,8.71-3.61-6.27-7.39-13.32-10.88-19.83-2.91-5.43-5.73-10.67-8.36-15.36-8.39-14.95-22.44-24.98-38.54-27.51-2.77-.43-5.6-.65-8.39-.65-17.98,0-34.64,8.98-44.58,24.01-37.24,56.33-44.94,169.98-45.99,238.04-40.63,37.6-34.28,75.59-31.19,86.77.91,3.31,1.89,5.79,2.58,7.34.43.97.9,1.91,1.44,2.89,10.7,19.41,30.16,30.1,54.78,30.1,1.08,0,2.17-.02,3.28-.06-1.88,13.89-1.33,28.48,4.34,41.37,6.45,14.65,18.38,25.12,33.59,29.46,7.48,2.14,14.4,3.18,21.18,3.18,14.91,0,26.07-5.18,34.14-10.57,31.4,14.6,67.44,22.84,100.7,22.84,34.35,0,64.6-8.55,88.31-24.84.09.14.18.27.27.4,8.56,12.61,27.35,33.76,57,33.76h0c9.08,0,17.96-2.1,26.41-6.22,11.69-5.71,21.5-15.42,27.61-27.36,10.24-19.98,13.13-37.72,8.78-54.11,12.06-6.35,22.54-16.62,30.54-30.17,14.3-24.24,18.32-54.5,10-75.29-6.17-15.42-17.41-25.77-32.43-30.23-2.93-218.73-36.7-264.76-69.57-280.52-6.86-3.29-14.5-5.03-22.08-5.03h0Z"/>
  </g>
  <g id="_Сердце" data-name="Сердце">
    <g id="_Лев_сердце" data-name="Лев сердце">
      <path class="cls-3" d="M918.15,640.17c-19.1-12.42-46.08-47.76-51.48-80.77-4.12-24.4-5.57-51.18,7.36-73.21,11.18-16.11,30.64-25.86,50-28.23,27.55-4.52,64.14,14,80.08,44.28,6.1,15.84-2.26,35.65-3.47,52.55-.81,4.36-.79,9.8-2.89,13.67-2.04,3-6.21,1.21-9.17.39-5.73-1.87-11.77-3.99-16.5-5.23-9.28-3.01-13.65,2.09-15.08,10.66-4.86,24.51-7.99,42.12-10.65,56.67-5.76,32.67-2.04,25.87-27.95,9.38l-.24-.16Z"/>
      <path class="cls-6" d="M928.19,622.8s-57.75-39.51-42.45-115.56c1.01-5.03,3.34-9.68,6.93-13.34,15.32-15.61,55.35-32.36,92.08,12.76,2.37,2.91,3.34,6.74,2.56,10.41-2.71,12.73-5.1,29.47-5.1,29.47,0,0-17.74-5.91-29.93-5.32-4.79.23-8.76,3.77-9.83,8.44-4.58,19.89-14.26,73.14-14.26,73.14Z"/>
    </g>
    <g id="_Прав_сердце" data-name="Прав сердце">
      <path class="cls-3" d="M989.22,690.25c-8.83,0-15.69-4.97-21.74-9.36-.72-.52-1.42-1.03-2.09-1.5l-.75-.53-.7-.6c-.37-.29-.85-.59-1.32-.9-3.79-2.54-12.65-8.49-13.72-20.1l-.28-3.05.69-2.99c1.55-6.69,5.62-18.75,11.19-35.04,2.49-7.29,4.85-14.18,6.04-18.06l.17-.56.32-.86c5.07-14.11,16.21-15.88,20.77-15.98h.66s.66.02.66.02c2.36.11,4.88.34,7.51.58,3.27.3,6.65.61,9.69.61.84,0,1.61-.02,2.34-.07.26-1.14.54-2.35.84-3.65,14.24-62.02,26.5-99.94,47-110.24l1.49-.75,1.59-.48c8.49-2.55,17.47-3.89,25.96-3.89,11.29,0,21.57,2.28,30.54,6.78,19.3,9.5,32.15,35.96,32.93,54.99l.08,1.96-.32,1.93c-8.63,52.09-31.21,69.4-80.68,107.32-6.13,4.7-12.74,9.77-19.89,15.33-15.28,11.73-26.54,20.56-40.26,31.59-2.83,2.23-7.81,6.14-14.86,7.18l-.53.07c-1.09.16-2.19.25-3.3.25Z"/>
      <path class="cls-6" d="M989.86,671.12c-3.09.69-9.06-4.23-13.54-7.36-3.19-2.72-8.09-4.6-8.43-8.25,2.31-10.01,13.47-40.66,16.89-51.81.69-1.85,1.17-3.87,3.45-3.92,6.75.32,15.01,1.75,23.05.99,9.05-1.05,13.37-2.7,14.82-9.83,4.97-20.59,20.45-96.64,38.95-105.93,13.2-3.96,29.54-4.82,42.48,1.67,11.9,5.86,21.86,24.98,22.42,38.72-8.35,50.38-30.26,61.54-93.47,110.72-14.24,10.93-25.9,20.04-40.5,31.78-2.03,1.6-3.81,2.9-5.7,3.18l-.41.05Z"/>
    </g>
  </g>
</svg>