<svg width="196" height="212" viewBox="0 0 196 212" fill="none" xmlns="http://www.w3.org/2000/svg">
<path d="M185.99 20.823C189.49 22.536 190.48 25.178 192.07 28.5L191.94 30.849C189.42 31.256 186.31 30.469 183.75 30.159C183.43 28.355 182.21 27.501 181 26.167C181.96 25.226 182.76 24.594 183.15 23.262L183.31 22.5L185.99 20.823Z" fill="black"/>
<path d="M98.8 200.075C102.1 202.171 102.92 202.123 106.87 202.181C106.94 205.961 105.27 207.116 103.06 209.951C93.0101 211.509 81.38 213.282 71.72 209.104C75.5 208.634 76.23 208.754 79.01 206.242C80.48 206.543 79.91 206.519 81.21 206.491C83.5 206.441 84.55 206.583 86.65 207.336C90.36 208.666 92.82 207.698 96.01 206.001L95.5699 203.041C97.0299 202.135 97.87 201.533 98.8 200.075Z" fill="black"/>
<path d="M67.0601 193.303C68.7601 195.305 69.88 196.838 70.78 199.319C79.89 204.223 85.3499 204.175 95.5699 203.041L96.01 206.001C92.82 207.698 90.36 208.666 86.65 207.336C84.55 206.583 83.5 206.441 81.21 206.491C79.91 206.519 80.48 206.543 79.01 206.242C76.23 208.754 75.5 208.634 71.72 209.104C67.69 207.379 64.71 204.084 61.54 201.127L64 194.88L66.5 194.913L67.0601 193.303Z" fill="black"/>
<path d="M183.75 30.159C186.31 30.469 189.42 31.256 191.94 30.849L195.17 33C195.36 37.081 186.17 48.844 182.94 52C181.96 52.96 181.13 53.369 179.92 53.983C177.56 53.007 175.39 52.501 172.89 52.049C177.62 46.893 182.17 39.917 185.96 34L183.75 30.159Z" fill="black"/>
<path d="M151.02 4.12199C153.47 2.59699 155.95 0.221995 159 1.23099L161.76 2.75599C162.91 3.42299 164.03 3.81799 165.26 4.29899C170.8 6.44999 183.61 13.818 185.99 19.164V20.823L183.31 22.5L183.15 23.262C182.76 24.594 181.96 25.226 181 26.167L180.57 24.164C175.08 17.971 164.37 10.602 155.95 10.081C153.05 8.64499 152.38 6.96599 151.02 4.12199Z" fill="url(#paint0_linear_1_251)"/>
<path d="M41.5 50.915C44.61 49.873 45.7 48.958 48.76 50.741L50.4301 51.925C54.4901 56.609 66.5099 68.151 66.9399 73.862C68.0899 78.15 67.94 81.147 65.85 85.092L65.75 84.58C64.06 79.509 58.15 71.799 53.65 68.887L53.52 67.413C50.77 64.08 48.1701 59.962 43.6801 59.093C32.9401 61.403 25.43 68.719 18.76 77.122C15.57 81.149 12.83 85.684 8.63 88.68C7.7 89.337 7.11998 90.065 6.47998 90.98L1.94995 91.775C12.2 76.1 28.4 64.033 41.5 50.915Z" fill="black"/>
<path d="M41.5 50.915C44.61 49.873 45.7 48.958 48.76 50.741L50.4301 51.925C49.2701 54.227 48.62 55.138 46.5 56.596L42.8101 55.5L41.5 50.915Z" fill="black"/>
<path d="M66.9399 73.862C75.1599 77.996 80.93 96.74 83.75 105.247L85.49 110.583C86.47 108.339 88.06 105.691 87.65 103.223C90.82 102.346 93.67 101.213 96.66 99.829C97.74 104.162 91.29 119.605 88.74 123.742L86.8199 126.5L82.76 127.083C75.58 113.813 76.27 97.186 65.85 85.092C67.94 81.147 68.0899 78.15 66.9399 73.862Z" fill="url(#paint1_linear_1_251)"/>
<path d="M151.02 4.12201C152.38 6.96601 153.05 8.64501 155.95 10.081L154.57 11.106C150.05 18.31 142.79 24.413 137.4 31.097C133.35 36.107 129.64 41.211 126.13 46.614C123.88 50.088 121.65 55.099 117.91 57.003C118.03 58.085 118.18 58.915 117.8 59.97C116.2 64.418 112.56 69.123 110.37 73.435L102.77 89.467C101.62 92.144 100.37 96.394 98.4399 98.474L96.66 99.829C93.67 101.213 90.82 102.346 87.65 103.223C92.9 96.789 95.7101 86.034 99.3101 78.416C104.09 68.301 109.52 58.291 115.46 48.814C121.54 39.133 128.33 29.531 135.87 20.94C140.67 15.469 147.26 10.316 151.02 4.12201Z" fill="black"/>
<path d="M117.91 57.003C118.96 54.299 119.36 52.256 119.3 49.344L119.28 48.5C125.84 37.813 133.12 27.516 141.88 18.502C145.97 14.297 148.43 11.185 154.57 11.106C150.05 18.31 142.79 24.413 137.4 31.097C133.35 36.107 129.64 41.211 126.13 46.614C123.88 50.088 121.65 55.099 117.91 57.003Z" fill="black"/>
<path d="M1.07996 97.144L0.560059 93.5L1.94995 91.775L6.47998 90.98L8.79004 96.884L13.45 99.092C18.44 102.65 22.26 108.387 26 113.225C39.06 130.119 50.06 148.613 58.84 168.071C61.88 174.805 65.6499 182.775 67.0699 190.01C67.3099 191.26 67.2901 192.073 67.0601 193.303L66.5 194.913L64 194.88L61.54 201.127L61.8 198.803C61.64 194.741 59.06 189.707 57.72 185.844C46.8 154.207 25.63 119.975 1.07996 97.144ZM1.07996 97.144L8.79004 96.884L6.47998 90.98L1.94995 91.775L0.560059 93.5L1.07996 97.144Z" fill="black"/>
<path d="M1.07996 97.144L0.560059 93.5L1.94995 91.775L6.47998 90.98L8.79004 96.884L1.07996 97.144Z" fill="black"/>
<path d="M172.89 52.049C175.39 52.501 177.56 53.007 179.92 53.983C179.45 60.768 169.61 73.014 165.88 79.245L156.54 96.64L138.12 134.873L120.1 177.45C116.97 184.795 112.89 196.857 106.87 202.181C102.92 202.123 102.1 202.171 98.8 200.075C103.85 196.075 106.82 188.008 109.4 182.228L123.71 148.496L145.3 101.197L159.99 74.211C164.18 67.178 170.14 59.638 172.89 52.049Z" fill="black"/>
<path d="M43.6801 59.093C48.1701 59.962 50.77 64.08 53.52 67.413L53.65 68.887C58.15 71.799 64.06 79.509 65.75 84.58L65.85 85.092C76.27 97.186 75.58 113.813 82.76 127.083C83.42 128.344 83.89 129.543 83.89 131C83.88 138.495 80.2 147.819 78.89 155.468C76.53 169.179 75.07 183.631 74.01 197.5L70.78 199.319C69.88 196.838 68.7601 195.305 67.0601 193.303C67.2901 192.073 67.3099 191.26 67.0699 190.01C65.6499 182.775 61.88 174.805 58.84 168.071C50.06 148.613 39.06 130.119 26 113.225C22.26 108.387 18.44 102.65 13.45 99.092L8.79004 96.884L6.47998 90.98C7.11998 90.065 7.7 89.337 8.63 88.68C12.83 85.684 15.57 81.149 18.76 77.122C25.43 68.719 32.9401 61.403 43.6801 59.093ZM43.6801 59.093L40.4301 62.715C45.4901 65.443 47.67 70.035 53.65 68.887L53.52 67.413C50.77 64.08 48.1701 59.962 43.6801 59.093Z" fill="#A9E366" fill-opacity="0.988235"/>
<path d="M43.6801 59.093C48.1701 59.962 50.77 64.08 53.52 67.413L53.65 68.887C47.67 70.035 45.4901 65.443 40.4301 62.715L43.6801 59.093Z" fill="#A9E366" fill-opacity="0.980392"/>
<path d="M6.47998 90.98C7.11998 90.065 7.7 89.337 8.63 88.68C12.83 85.684 15.57 81.149 18.76 77.122C25.43 68.719 32.9401 61.403 43.6801 59.093L40.4301 62.715C30.4101 71.691 17.13 82.372 10.27 94L13.45 99.092L8.79004 96.884L6.47998 90.98Z" fill="black"/>
<path d="M155.95 10.081C164.37 10.602 175.08 17.971 180.57 24.164L181 26.167C182.21 27.501 183.43 28.355 183.75 30.159L185.96 34C182.17 39.917 177.62 46.893 172.89 52.049C170.14 59.638 164.18 67.178 159.99 74.211L145.3 101.197L123.71 148.496L109.4 182.228C106.82 188.008 103.85 196.075 98.8 200.075C97.87 201.533 97.0299 202.135 95.5699 203.041C85.3499 204.175 79.89 204.223 70.78 199.319L74.01 197.5C75.07 183.631 76.53 169.179 78.89 155.468C80.2 147.819 83.88 138.495 83.89 131C83.89 129.543 83.42 128.344 82.76 127.083L86.8199 126.5L88.74 123.742C91.29 119.605 97.74 104.162 96.66 99.829L98.4399 98.474C100.37 96.394 101.62 92.144 102.77 89.467L110.37 73.435C112.56 69.123 116.2 64.418 117.8 59.97C118.18 58.915 118.03 58.085 117.91 57.003C121.65 55.099 123.88 50.088 126.13 46.614C129.64 41.211 133.35 36.107 137.4 31.097C142.79 24.413 150.05 18.31 154.57 11.106L155.95 10.081Z" fill="#71A75C"/>
<defs>
<linearGradient id="paint0_linear_1_251" x1="169.753" y1="7.78305" x2="163.247" y2="15.2169" gradientUnits="userSpaceOnUse">
<stop stop-opacity="0.945098"/>
<stop offset="1"/>
</linearGradient>
<linearGradient id="paint1_linear_1_251" x1="72.3522" y1="101.009" x2="91.6195" y2="96.3232" gradientUnits="userSpaceOnUse">
<stop stop-opacity="0.960784"/>
<stop offset="1" stop-color="#090B06"/>
</linearGradient>
</defs>
</svg>
