<svg width="267" height="268" viewBox="0 0 267 268" fill="none" xmlns="http://www.w3.org/2000/svg">
<path d="M97.7 6.77499L104.75 16.194C110.18 23.565 116.18 40.347 117.11 49.458L117.78 50.231C139.82 44.357 159.32 44.499 180.91 52.542C185.45 42.711 192.09 31.389 201.24 25.318C207.89 20.904 215.55 16.252 223.92 18.191C226.33 18.75 228.35 20.36 230.27 21.844C229.95 23.981 229.8 26.038 228.78 27.957C227.86 29.703 228.07 31.784 228.04 33.726C224.62 30.278 222.53 27.582 217.38 27.093L214.42 29.34C208.17 32.421 200.06 37.19 197.6 44.148L192.72 50.291C190.73 54.626 189.03 59.461 185.5 62.788C182.38 63.604 180.78 63.86 177.71 62.292L176.99 61.772C160.83 55.524 144.28 54.538 127.35 57.985C120.92 59.295 117.49 62.514 110.5 60.579C106.71 56.763 107.02 48.9 105.49 43.815C103.36 36.71 100.93 30.056 97.58 23.417L92.849 16.322C93.666 14.639 94.589 13.775 95.977 12.589C96.99 11.725 97.38 8.20399 97.7 6.77499Z" fill="black"/>
<path d="M217.38 27.093L217.48 25.47C218.62 25.373 221.03 25.498 222 25.087C222.84 24.733 223.66 22.82 224.49 22.495C225.82 21.975 228.77 22.013 230.27 21.844C229.95 23.981 229.8 26.038 228.78 27.957C227.86 29.703 228.07 31.784 228.04 33.726C224.62 30.278 222.53 27.582 217.38 27.093Z" fill="black"/>
<path d="M176.99 61.772C178.31 61.533 179.24 61.065 180.44 60.5C179.71 58.007 180.25 57.403 181.1 55.014C183.87 53.904 183.7 55.654 185.5 55.418C185.88 55.368 187.89 52.046 188.5 51.614C189.34 51.016 191.65 50.627 192.72 50.291C190.73 54.626 189.03 59.461 185.5 62.788C182.38 63.604 180.78 63.86 177.71 62.292L176.99 61.772Z" fill="black"/>
<path d="M230.27 21.844C233.86 25.7 238.67 30.079 241.1 34.729C253.24 57.966 252.41 85.616 253.19 111L253.55 163.74C258.63 170.763 263.38 178.691 265.56 187.152C267.94 196.393 266.9 212.249 261.89 220.5C258.77 225.629 253.84 230.283 247.91 231.619L246.5 231.913C242.77 232.752 240.29 233.04 236.51 232.489L235.5 232.328C234.85 234.971 235.02 237.751 234.48 240.436C233.18 246.903 229.03 252.705 224.36 257.228C219.36 262.07 209.58 267.588 202.51 267.19C193.28 266.67 186.3 256.262 180.71 249.912C174.71 251.832 168.27 255.014 162.11 255.97C156.29 256.873 150.34 258.413 144.5 258.893C130.14 260.074 114.62 257.214 101.26 251.919C96.01 249.837 90.062 244.823 84.97 243.645C83.864 243.389 77.349 248.83 75.956 249.805C69.585 254.263 57.457 255.288 49.938 253.729C43.141 252.319 37.852 247.965 34.19 242.192C28.53 233.271 28.197 223.589 30.518 213.643L19.894 211.69C13.881 209.88 6.096 204.654 3.339 198.821C-3.71 183.908 1.67799 164.102 13.079 152.989C15.212 150.911 21.821 146.95 23.058 144.821C23.744 143.64 23.114 136.022 23.264 134.067C23.867 126.155 25.564 118.037 26.829 110.191C30.65 86.5 38.942 63.249 46.695 40.535C51.094 27.648 60.263 7.57501 73.739 1.92001C77.514 0.337011 85.841 0.057989 89.582 1.64099L95.339 4.095L97.7 6.77499C97.38 8.20399 96.99 11.725 95.977 12.589C94.589 13.775 93.666 14.639 92.849 16.322L97.58 23.417L97.2 30.106C95.798 27.41 94.555 24.943 92.5 22.674C88.3 21.175 87.29 20.206 83.001 21.979C78.593 23.203 75.596 26.676 73.381 30.702C69.37 37.99 66.493 46.293 63.502 54.051C53.564 79.828 47.386 106.172 44.004 133.587C43.272 139.522 41.47 146.692 42.828 152.5C40.347 158.438 33.287 161.491 28.067 164.771C23.946 169.126 19.965 175.269 20.031 181.441C20.059 184.125 20.371 187.226 22.5 189.153C24.854 191.283 30.68 191.412 33.778 191.155C38.476 190.765 43.76 188.159 48.059 186.202C45.978 189.734 43.041 197.438 39.801 199.448C43.349 202.661 43.43 202.95 44.288 207.673C46.906 205.727 49.334 203.015 51.735 200.775C49.521 206.144 45.935 213.723 47.5 219.663C47.996 221.545 47.588 222.69 47.054 224.5C47.78 227.472 48.207 230.235 51 231.924C54.342 233.946 60.133 233.112 63.77 232.075C71.781 229.791 79.4 225.95 86.448 221.582C97.16 232.387 118.49 240.967 133.89 241.2C144.13 241.355 167.12 238.344 175.07 232C175.49 230.656 175.78 229.964 175.62 228.54L178.5 230.332C180.76 229.426 182.52 228.437 184.5 227.022C188.21 227.297 188.67 227.248 191.5 229.603C193.71 235.251 195.58 244.589 201 247.877C207.52 248.074 210.68 244.826 215.35 240.691L216.96 239.349L217.51 230C221.13 235.377 220.98 239.818 220.87 246.146C224.05 242.096 224.72 237.031 225.03 232.068C223.62 229.74 222.56 227.578 221.7 225C222.27 221.497 223.05 221.075 225.4 218.55L225.57 212.299C228.68 212.838 231.97 213.542 235.12 213.563C238.11 213.582 242.47 213.045 244.55 210.725C248.63 206.18 246.46 193.557 246.07 187.712C244.96 183.752 243.07 178.67 240.43 175.496C239.41 174.268 236.2 171.811 235.73 170.578C234.96 168.517 236.07 161.22 235.98 158.5L233.81 97.021C233.23 85.032 231.83 73.006 230.14 61.127C229.23 55.916 231.23 51.73 230.21 46.51C229.92 45.022 229.8 45.84 230.68 44.316L233.83 43.767C232.97 39.754 230.47 36.904 228.04 33.726C228.07 31.784 227.86 29.703 228.78 27.957C229.8 26.038 229.95 23.981 230.27 21.844ZM44.288 207.673L42.276 210.83C40.29 215.795 38.902 219.577 38.97 225L39.067 228.88C40.812 233.513 43.208 240.139 48.168 242.325C49.064 242.72 49.972 242.991 50.935 243.137C55.774 244.926 64.84 244.004 69.5 241.762C73.456 239.858 81.515 231.242 85.383 232.45C90.4 234.017 93.914 237.361 98.54 239.696C112.65 246.809 129.91 250.609 145.72 248.879C151.41 248.256 158.53 247.143 163.95 245.454C169.45 243.737 177.27 239.007 183 239.141C186.08 239.213 188.7 241.019 190.05 243.619C190.62 244.715 190.41 244.294 190.79 245.403C192.45 250.298 198.38 254.89 202.6 257.699C210.38 254.85 215.4 252.497 220.87 246.146C220.98 239.818 221.13 235.377 217.51 230L216.96 239.349L215.35 240.691C210.68 244.826 207.52 248.074 201 247.877C195.58 244.589 193.71 235.251 191.5 229.603C188.67 227.248 188.21 227.297 184.5 227.022C182.52 228.437 180.76 229.426 178.5 230.332L175.62 228.54C175.78 229.964 175.49 230.656 175.07 232C167.12 238.344 144.13 241.355 133.89 241.2C118.49 240.967 97.16 232.387 86.448 221.582C79.4 225.95 71.781 229.791 63.77 232.075C60.133 233.112 54.342 233.946 51 231.924C48.207 230.235 47.78 227.472 47.054 224.5C47.588 222.69 47.996 221.545 47.5 219.663C45.935 213.723 49.521 206.144 51.735 200.775C49.334 203.015 46.906 205.727 44.288 207.673ZM230.14 61.127C231.83 73.006 233.23 85.032 233.81 97.021L235.98 158.5C236.07 161.22 234.96 168.517 235.73 170.578C236.2 171.811 239.41 174.268 240.43 175.496C243.07 178.67 244.96 183.752 246.07 187.712C246.46 193.557 248.63 206.18 244.55 210.725C242.47 213.045 238.11 213.582 235.12 213.563C231.97 213.542 228.68 212.838 225.57 212.299L225.4 218.55C227.44 219.505 230.44 221.4 232.66 221.13L240.98 223.388C243.3 222.804 245.91 222.194 248 220.992C250.77 219.398 254.08 215.949 254.67 212.752C257.39 198.027 257.77 188.72 249.59 175.5C248.12 173.118 244.56 169.423 243.75 166.966C243.31 165.644 243.76 162.305 243.76 160.835L243.95 143.198L243.32 113.739C243.05 89.148 242.53 67.086 233.83 43.767L230.68 44.316C229.8 45.84 229.92 45.022 230.21 46.51C231.23 51.73 229.23 55.916 230.14 61.127ZM32.399 149.691C25.456 155.234 17.117 161.234 13.468 169.5L12.847 170.84C9.02999 179.235 10.272 186.732 12.526 195.254C19.074 201.103 24.151 203.228 32.976 202.775L34.64 202.647C36.001 201.409 38.193 200.403 39.801 199.448C43.041 197.438 45.978 189.734 48.059 186.202C43.76 188.159 38.476 190.765 33.778 191.155C30.68 191.412 24.854 191.283 22.5 189.153C20.371 187.226 20.059 184.125 20.031 181.441C19.965 175.269 23.946 169.126 28.067 164.771C28.778 162.765 29.432 160.765 30.493 158.911C32.466 155.464 32.539 153.575 32.399 149.691ZM32.804 148.971C36.071 146.172 36.909 143.552 37.999 139.5C33.3 128.367 41.229 112.988 42.147 101.796C42.667 95.463 45.528 89.047 47.412 82.962L46.5 82L48.451 76.047C50.216 75.11 50.549 72.834 51.274 71L50.5 69.51C51.709 65.172 52.519 60.88 55.073 57.106C55.793 56.041 55.491 54.913 55.492 53.649L56.404 54.39C57.777 46.393 64.546 28.639 70.428 23.1C74.11 19.632 75.981 19.124 80.963 19.5L83.001 21.979C87.29 20.206 88.3 21.175 92.5 22.674C94.555 24.943 95.798 27.41 97.2 30.106L97.58 23.417L92.849 16.322L88.78 11.898C85.086 10.456 80.426 10.077 76.743 11.87C73.407 13.493 70.599 17.035 68.379 19.919C59.564 31.373 56.242 44.02 51.926 57.5C48.183 69.193 43.574 80.705 40.408 92.609C35.687 110.356 32.869 130.593 32.804 148.971Z" fill="black"/>
<path d="M95.339 4.095L97.7 6.77499C97.38 8.20399 96.99 11.725 95.977 12.589C94.589 13.775 93.666 14.639 92.849 16.322L88.78 11.898C88.989 9.44801 89.342 7.779 90.26 5.5L95.339 4.095Z" fill="black"/>
<path d="M225.4 218.55C227.44 219.505 230.44 221.4 232.66 221.13L240.98 223.388C238.32 224.319 235.87 225.063 233.09 225.5L233.82 229C232.45 230.686 232 230.71 229.91 231.397L226.63 230.4L225.03 232.068C223.62 229.74 222.56 227.578 221.7 225C222.27 221.497 223.05 221.075 225.4 218.55Z" fill="black"/>
<path d="M39.801 199.448C43.349 202.661 43.43 202.95 44.288 207.673L42.276 210.83C40.29 215.795 38.902 219.577 38.97 225L39.067 228.88L36.5 228.49C34.666 224.511 35.584 217.607 35.626 213.156L33.172 211.828C32.638 209.044 33.994 205.4 34.64 202.647C36.001 201.409 38.193 200.403 39.801 199.448Z" fill="black"/>
<path d="M32.804 148.971C32.869 130.593 35.687 110.356 40.408 92.609C43.574 80.705 48.183 69.193 51.926 57.5C56.242 44.02 59.564 31.373 68.379 19.919C70.599 17.035 73.407 13.493 76.743 11.87C80.426 10.077 85.086 10.456 88.78 11.898L92.849 16.322L97.58 23.417L97.2 30.106C95.798 27.41 94.555 24.943 92.5 22.674C88.3 21.175 87.29 20.206 83.001 21.979L80.963 19.5C75.981 19.124 74.11 19.632 70.428 23.1C64.546 28.639 57.777 46.393 56.404 54.39L55.492 53.649C55.491 54.913 55.793 56.041 55.073 57.106C52.519 60.88 51.709 65.172 50.5 69.51L51.274 71C50.549 72.834 50.216 75.11 48.451 76.047L46.5 82L47.412 82.962C45.528 89.047 42.667 95.463 42.147 101.796C41.229 112.988 33.3 128.367 37.999 139.5C36.909 143.552 36.071 146.172 32.804 148.971Z" fill="#D2A16C" fill-opacity="0.964706"/>
<path d="M32.399 149.691C32.539 153.575 32.466 155.464 30.493 158.911C29.432 160.765 28.778 162.765 28.067 164.771C23.946 169.126 19.965 175.269 20.031 181.441C20.059 184.125 20.371 187.226 22.5 189.153C24.854 191.283 30.68 191.412 33.778 191.155C38.476 190.765 43.76 188.159 48.059 186.202C45.978 189.734 43.041 197.438 39.801 199.448C38.193 200.403 36.001 201.409 34.64 202.647L32.976 202.775C24.151 203.228 19.074 201.103 12.526 195.254C10.272 186.732 9.02998 179.235 12.847 170.84L13.468 169.5C17.117 161.234 25.456 155.234 32.399 149.691Z" fill="#D2A16C" fill-opacity="0.984314"/>
<path d="M32.804 148.971C36.071 146.172 36.909 143.552 37.999 139.5C33.3 128.367 41.229 112.988 42.147 101.796C42.667 95.463 45.528 89.047 47.412 82.962L46.5 82L48.451 76.047C50.216 75.11 50.549 72.834 51.274 71L50.5 69.51C51.709 65.172 52.519 60.88 55.073 57.106C55.793 56.041 55.491 54.913 55.492 53.649L56.404 54.39C57.777 46.393 64.546 28.639 70.428 23.1C74.11 19.632 75.981 19.124 80.963 19.5L83.001 21.979C78.593 23.203 75.596 26.676 73.381 30.702C69.37 37.99 66.493 46.293 63.502 54.051C53.564 79.828 47.386 106.172 44.004 133.587C43.272 139.522 41.47 146.692 42.828 152.5C40.347 158.438 33.287 161.491 28.067 164.771C28.778 162.765 29.432 160.765 30.493 158.911C32.466 155.464 32.539 153.575 32.399 149.691L32.804 148.971Z" fill="#D2A16C"/>
<path d="M230.14 61.127C229.23 55.916 231.23 51.73 230.21 46.51C229.92 45.022 229.8 45.84 230.68 44.316L233.83 43.767C242.53 67.086 243.05 89.148 243.32 113.739L243.95 143.198L243.76 160.835C243.76 162.305 243.31 165.644 243.75 166.966C244.56 169.423 248.12 173.118 249.59 175.5C257.77 188.72 257.39 198.027 254.67 212.752C254.08 215.949 250.77 219.398 248 220.992C245.91 222.194 243.3 222.804 240.98 223.388L232.66 221.13C230.44 221.4 227.44 219.505 225.4 218.55L225.57 212.299C228.68 212.838 231.97 213.542 235.12 213.563C238.11 213.582 242.47 213.045 244.55 210.725C248.63 206.18 246.46 193.557 246.07 187.712C244.96 183.752 243.07 178.67 240.43 175.496C239.41 174.268 236.2 171.811 235.73 170.578C234.96 168.517 236.07 161.22 235.98 158.5L233.81 97.021C233.23 85.032 231.83 73.006 230.14 61.127Z" fill="#D2A16C" fill-opacity="0.972549"/>
<path d="M246.07 187.712C249.99 194.353 252.86 203.574 251.01 211.309C250.26 214.466 247.37 216.713 244.61 218.023C240.64 219.911 237.03 220.756 232.66 221.13C230.44 221.4 227.44 219.505 225.4 218.55L225.57 212.299C228.68 212.838 231.97 213.542 235.12 213.563C238.11 213.582 242.47 213.045 244.55 210.725C248.63 206.18 246.46 193.557 246.07 187.712Z" fill="#D2A16C"/>
<path d="M44.288 207.673C46.906 205.727 49.334 203.015 51.735 200.775C49.521 206.144 45.935 213.723 47.5 219.663C47.996 221.545 47.588 222.69 47.054 224.5C47.78 227.472 48.207 230.235 51 231.924C54.342 233.946 60.133 233.112 63.77 232.075C71.781 229.791 79.4 225.95 86.448 221.582C97.16 232.387 118.49 240.967 133.89 241.2C144.13 241.355 167.12 238.344 175.07 232C175.49 230.656 175.78 229.964 175.62 228.54L178.5 230.332C180.76 229.426 182.52 228.437 184.5 227.022C188.21 227.297 188.67 227.248 191.5 229.603C193.71 235.251 195.58 244.589 201 247.877C207.52 248.074 210.68 244.826 215.35 240.691L216.96 239.349L217.51 230C221.13 235.377 220.98 239.818 220.87 246.146C215.4 252.497 210.38 254.85 202.6 257.699C198.38 254.89 192.45 250.298 190.79 245.403C190.41 244.294 190.62 244.715 190.05 243.619C188.7 241.019 186.08 239.213 183 239.141C177.27 239.007 169.45 243.737 163.95 245.454C158.53 247.143 151.41 248.256 145.72 248.879C129.91 250.609 112.65 246.809 98.54 239.696C93.914 237.361 90.4 234.017 85.383 232.45C81.515 231.242 73.456 239.858 69.5 241.762C64.84 244.004 55.774 244.926 50.935 243.137C49.972 242.991 49.064 242.72 48.168 242.325C43.208 240.139 40.812 233.513 39.067 228.88L38.97 225C38.902 219.577 40.29 215.795 42.276 210.83L44.288 207.673ZM42.276 210.83C40.29 215.795 38.902 219.577 38.97 225L39.067 228.88C40.812 233.513 43.208 240.139 48.168 242.325C49.064 242.72 49.972 242.991 50.935 243.137L50.092 240.877C46.834 238.469 44.777 235.431 44.455 231.257C44.274 228.908 45.049 226.217 44.143 224C42.302 219.489 42.371 215.658 42.276 210.83Z" fill="#F2BF78"/>
<path d="M42.276 210.83C42.371 215.658 42.302 219.489 44.143 224C45.049 226.217 44.274 228.908 44.455 231.257C44.777 235.431 46.834 238.469 50.092 240.877L50.935 243.137C49.972 242.991 49.064 242.72 48.168 242.325C43.208 240.139 40.812 233.513 39.067 228.88L38.97 225C38.902 219.577 40.29 215.795 42.276 210.83Z" fill="#F2BF78" fill-opacity="0.968627"/>
<path d="M48.059 186.202L48.721 185.808C53.39 182.857 57.01 178.059 60.733 174.029L78.171 156.056C96.14 138.22 115.82 122.902 135.81 107.464C140.47 103.867 148.19 96.48 153.79 94.889C155 94.545 158.26 95.181 159.6 95.269C165.5 95.655 172.84 95.142 178.48 96.586C180.4 97.076 181.77 97.802 182.84 99.539C185.09 103.196 185.11 110.483 185.87 114.854C190.04 139.009 192.34 164.056 202.97 186.5C206.67 194.308 211.61 201.063 216.73 207.965L225.57 212.299L225.4 218.55C223.05 221.075 222.27 221.497 221.7 225C222.56 227.578 223.62 229.74 225.03 232.068C224.72 237.031 224.05 242.096 220.87 246.146C220.98 239.818 221.13 235.377 217.51 230L216.96 239.349L215.35 240.691C210.68 244.826 207.52 248.074 201 247.877C195.58 244.589 193.71 235.251 191.5 229.603C188.67 227.248 188.21 227.297 184.5 227.022C182.52 228.437 180.76 229.426 178.5 230.332L175.62 228.54C175.78 229.964 175.49 230.656 175.07 232C167.12 238.344 144.13 241.355 133.89 241.2C118.49 240.967 97.16 232.387 86.448 221.582C79.4 225.95 71.781 229.791 63.77 232.075C60.133 233.112 54.342 233.946 51 231.924C48.207 230.235 47.78 227.472 47.054 224.5C47.588 222.69 47.996 221.545 47.5 219.663C45.935 213.723 49.521 206.144 51.735 200.775C49.334 203.015 46.906 205.727 44.288 207.673C43.43 202.95 43.349 202.661 39.801 199.448C43.041 197.438 45.978 189.734 48.059 186.202ZM216.73 207.965L214.14 222.327C212.91 228.349 216.11 234.25 215.35 240.691L216.96 239.349L217.51 230C221.13 235.377 220.98 239.818 220.87 246.146C224.05 242.096 224.72 237.031 225.03 232.068C223.62 229.74 222.56 227.578 221.7 225C222.27 221.497 223.05 221.075 225.4 218.55L225.57 212.299L216.73 207.965Z" fill="#C0793B"/>
<path d="M216.73 207.965L225.57 212.299L225.4 218.55C223.05 221.075 222.27 221.497 221.7 225C222.56 227.578 223.62 229.74 225.03 232.068C224.72 237.031 224.05 242.096 220.87 246.146C220.98 239.818 221.13 235.377 217.51 230L216.96 239.349L215.35 240.691C216.11 234.25 212.91 228.349 214.14 222.327L216.73 207.965Z" fill="#F2BF78" fill-opacity="0.984314"/>
<path d="M162.4 106.556L173.54 107.343L180.12 149.11C181.06 154.39 182.35 159.844 183.77 165.019C184.63 168.137 186.22 171.312 185.5 174.557L182.42 175.5C178.84 173.362 175.78 170.93 173 167.813C171.54 167.42 168.35 167.082 167.61 165.781C166.61 164.033 166.4 161.957 166.05 160L163.5 157.49L159.22 157.683C156.25 152.509 161.44 114.027 162.4 106.556Z" fill="#C69CB6"/>
<path d="M122.15 132.594L147.43 112.668C149.63 110.975 154.41 106.68 157 106.242C158.48 105.993 160.84 106.465 162.4 106.556C161.44 114.027 156.25 152.509 159.22 157.683C158.85 160.822 158.4 163.177 156.9 165.974C152.08 164.229 152.69 162.555 149.37 159.647C148.01 158.462 143.45 157.354 141.61 156.562C129.68 151.438 126.6 143.844 122.15 132.594Z" fill="#D8D8E0"/>
<path d="M122.15 132.594C126.6 143.844 129.68 151.438 141.61 156.562C143.45 157.354 148.01 158.462 149.37 159.647C152.69 162.555 152.08 164.229 156.9 165.974C157.37 172.684 158.68 179.307 159.04 186L159.28 200.311C159.28 201.447 158.93 204.297 159.28 205.285C162.35 213.708 171.56 220.364 175.62 228.54C175.78 229.964 175.49 230.656 175.07 232C167.12 238.344 144.13 241.355 133.89 241.2C118.49 240.967 97.16 232.387 86.448 221.582C79.4 225.95 71.781 229.791 63.77 232.075C60.133 233.112 54.342 233.946 51 231.924C48.207 230.235 47.78 227.472 47.054 224.5C47.588 222.69 47.996 221.545 47.5 219.663C45.935 213.723 49.521 206.144 51.735 200.775C53.408 198.093 56.736 195.492 58.854 193.012C77.213 171.508 98.78 148.72 122.15 132.594Z" fill="#F3E364"/>
<path d="M126.84 165.572C129.49 165.579 131.69 166.019 134.25 166.663C136.36 168.691 138.42 170.866 138.43 174C138.44 178.337 136.28 180.089 133.67 183.102C131.33 182.995 128.51 182.707 126.58 181.261C124.68 179.835 122.93 177.446 122.78 175C122.5 170.498 124.3 168.804 126.84 165.572Z" fill="#D8D8E0"/>
<path d="M83.001 21.979C87.29 20.206 88.3 21.175 92.5 22.674C94.555 24.943 95.798 27.41 97.2 30.106L97.58 23.417C100.93 30.056 103.36 36.71 105.49 43.815C107.02 48.9 106.71 56.763 110.5 60.579C117.49 62.514 120.92 59.295 127.35 57.985C144.28 54.538 160.83 55.524 176.99 61.772L177.71 62.292C180.78 63.86 182.38 63.604 185.5 62.788C189.03 59.461 190.73 54.626 192.72 50.291L197.6 44.148C200.06 37.19 208.17 32.421 214.42 29.34L217.38 27.093C222.53 27.582 224.62 30.278 228.04 33.726C230.47 36.904 232.97 39.754 233.83 43.767L230.68 44.316C229.8 45.84 229.92 45.022 230.21 46.51C231.23 51.73 229.23 55.916 230.14 61.127C231.83 73.006 233.23 85.032 233.81 97.021L235.98 158.5C236.07 161.22 234.96 168.517 235.73 170.578C236.2 171.811 239.41 174.268 240.43 175.496C243.07 178.67 244.96 183.752 246.07 187.712C246.46 193.557 248.63 206.18 244.55 210.725C242.47 213.045 238.11 213.582 235.12 213.563C231.97 213.542 228.68 212.838 225.57 212.299L216.73 207.965C211.61 201.063 206.67 194.308 202.97 186.5C192.34 164.056 190.04 139.009 185.87 114.854C185.11 110.483 185.09 103.196 182.84 99.539C181.77 97.802 180.4 97.076 178.48 96.586C172.84 95.142 165.5 95.655 159.6 95.269C158.26 95.181 155 94.545 153.79 94.889C148.19 96.48 140.47 103.867 135.81 107.464C115.82 122.902 96.14 138.22 78.171 156.056L60.733 174.029C57.01 178.059 53.39 182.857 48.721 185.808L48.059 186.202C43.76 188.159 38.476 190.765 33.778 191.155C30.68 191.412 24.854 191.283 22.5 189.153C20.371 187.226 20.059 184.125 20.031 181.441C19.965 175.269 23.946 169.126 28.067 164.771C33.287 161.491 40.347 158.438 42.828 152.5C41.47 146.692 43.272 139.522 44.004 133.587C47.386 106.172 53.564 79.828 63.502 54.051C66.493 46.293 69.37 37.99 73.381 30.702C75.596 26.676 78.593 23.203 83.001 21.979ZM97.58 23.417L97.2 30.106C99.22 38.765 99.74 47.228 102.01 55.752C102.85 58.904 102.35 62.295 102.11 65.51C103.3 68.295 103.5 69.098 106 70.959C111.5 71.035 115.17 69.355 120.41 68.207C130.88 65.911 141.23 64.25 152 65.18C158.73 65.761 165.09 67.461 171.44 69.659C177 71.579 182.25 75.065 188.08 74.295C189.5 72.818 190.49 72.446 190.55 70.308L190.51 64C191.85 62.651 192.68 61.068 193.28 59.263C194.99 54.174 196.83 49.498 197.6 44.148L192.72 50.291C190.73 54.626 189.03 59.461 185.5 62.788C182.38 63.604 180.78 63.86 177.71 62.292L176.99 61.772C160.83 55.524 144.28 54.538 127.35 57.985C120.92 59.295 117.49 62.514 110.5 60.579C106.71 56.763 107.02 48.9 105.49 43.815C103.36 36.71 100.93 30.056 97.58 23.417ZM217.38 27.093L214.42 29.34L214.95 29.86C216.83 31.64 218.01 32.288 220.5 32.971L221.89 35C221.31 35.638 220.72 36.414 220.03 36.926C225.05 45.036 227.72 51.925 230.14 61.127C229.23 55.916 231.23 51.73 230.21 46.51C229.92 45.022 229.8 45.84 230.68 44.316L233.83 43.767C232.97 39.754 230.47 36.904 228.04 33.726C224.62 30.278 222.53 27.582 217.38 27.093Z" fill="#F3E364"/>
<path d="M83.001 21.979C87.29 20.206 88.3 21.175 92.5 22.674C94.555 24.943 95.798 27.41 97.2 30.106C99.22 38.765 99.74 47.228 102.01 55.752C102.85 58.904 102.35 62.295 102.11 65.51C98.04 52.793 97.22 34.184 87.579 24.32C86.658 23.378 84.647 23.455 83.001 21.979Z" fill="#D2A16C"/>
<path d="M217.38 27.093C222.53 27.582 224.62 30.278 228.04 33.726C230.47 36.904 232.97 39.754 233.83 43.767L230.68 44.316C229.8 45.84 229.92 45.022 230.21 46.51C231.23 51.73 229.23 55.916 230.14 61.127C227.72 51.925 225.05 45.036 220.03 36.926C220.72 36.414 221.31 35.638 221.89 35L220.5 32.971C218.01 32.288 216.83 31.64 214.95 29.86L214.42 29.34L217.38 27.093Z" fill="url(#paint0_linear_1_254)"/>
<path d="M197.6 44.148C200.06 37.19 208.17 32.421 214.42 29.34L214.95 29.86C216.83 31.64 218.01 32.288 220.5 32.971L221.89 35C221.31 35.638 220.72 36.414 220.03 36.926C216 36.976 212.87 38.72 210.1 41.543C202.3 49.474 195.16 60.201 190.55 70.308L190.51 64C191.85 62.651 192.68 61.068 193.28 59.263C194.99 54.174 196.83 49.498 197.6 44.148Z" fill="#D2A16C"/>
<path d="M97.58 23.417C100.93 30.056 103.36 36.71 105.49 43.815C107.02 48.9 106.71 56.763 110.5 60.579C117.49 62.514 120.92 59.295 127.35 57.985C144.28 54.538 160.83 55.524 176.99 61.772L177.71 62.292C180.78 63.86 182.38 63.604 185.5 62.788C189.03 59.461 190.73 54.626 192.72 50.291L197.6 44.148C196.83 49.498 194.99 54.174 193.28 59.263C192.68 61.068 191.85 62.651 190.51 64L190.55 70.308C190.49 72.446 189.5 72.818 188.08 74.295C182.25 75.065 177 71.579 171.44 69.659C165.09 67.461 158.73 65.761 152 65.18C141.23 64.25 130.88 65.911 120.41 68.207C115.17 69.355 111.5 71.035 106 70.959C103.5 69.098 103.3 68.295 102.11 65.51C102.35 62.295 102.85 58.904 102.01 55.752C99.74 47.228 99.22 38.765 97.2 30.106L97.58 23.417Z" fill="url(#paint1_linear_1_254)"/>
<defs>
<linearGradient id="paint0_linear_1_254" x1="228.808" y1="38.7594" x2="223.933" y2="42.6495" gradientUnits="userSpaceOnUse">
<stop stop-color="#DAA769" stop-opacity="0.960784"/>
<stop offset="1" stop-color="#DBAB68"/>
</linearGradient>
<linearGradient id="paint1_linear_1_254" x1="146.965" y1="44.2501" x2="142.303" y2="74.4498" gradientUnits="userSpaceOnUse">
<stop stop-color="#D8A768" stop-opacity="0.968627"/>
<stop offset="1" stop-color="#D9A868"/>
</linearGradient>
</defs>
</svg>
