<svg width="263" height="257" viewBox="0 0 263 257" fill="none" xmlns="http://www.w3.org/2000/svg">
<path d="M234.315 112.243C236.82 108.527 234.629 100.662 235.196 96C235.455 93.874 235.919 94.091 237.5 92.833L241.801 93.67C244.586 111.42 244.968 129.902 242.553 147.703L243.689 148.174C251.27 151.365 256.501 156.264 259.66 164.038C263.591 173.713 262.953 185.465 258.761 194.964C254.47 204.69 247.096 211.151 237.749 215.749C235.549 214.178 236.355 212.496 234.75 210.25L228.944 209.994L235.738 206.965C244.066 203.054 249.218 196.235 252.196 187.681C254.778 180.263 254.246 171.9 250.738 164.884C246.492 156.392 239.221 156.382 231.265 153.913C231.05 152.979 231.06 152.483 231.345 151.562C235.171 139.215 235.33 126.639 233.99 113.871L234.315 112.243Z" fill="url(#paint0_linear_1_252)"/>
<path d="M34.465 208.021C29.954 208.576 25.226 208.999 20.726 208.093C14.674 206.874 7.647 200.962 4.341 195.908C-0.110002 189.105 0.396991 178.053 2.24299 170.5C4.40699 161.643 9.603 154.216 17.432 149.65C19.721 148.316 18.906 142.832 18.892 140.166C18.696 102.688 21.158 65.599 38.154 31.348C43.463 20.649 49.871 12.31 61.602 8.62799C66.183 7.19099 69.633 7.561 73.855 9.806C72.553 14.284 72.487 14.502 68.691 17.186L64.768 16.779C57.044 18.626 52.244 23.453 48.25 30.053C38.475 46.207 33.457 67.11 30.423 85.548C29.358 92.021 27.852 98.735 27.955 105.297L26.918 121.355C27.188 129.598 29.595 147.779 25.666 154.5C23.627 155.859 21.632 157.346 19.368 158.306C14.804 161.547 11.222 168.056 10.19 173.522L9.92199 176C9.42099 181.591 8.539 187.981 12.263 192.756C14.889 196.124 19.409 198.686 22.925 201.056C26.771 203.907 28.644 204.566 33.5 204.223L34.722 205L34.465 208.021Z" fill="black"/>
<path d="M64.768 16.779L65.233 12.144C68.449 9.79201 69.991 10.013 73.855 9.806C72.553 14.284 72.487 14.502 68.691 17.186L64.768 16.779Z" fill="black"/>
<path d="M19.368 158.306C19.538 157.576 19.919 156.369 19.871 155.588C19.704 152.86 19.403 152.485 20.535 149.978C21.826 149.503 22.38 149.335 23.783 149.597L24.821 149.848C26.165 143.18 24.596 135.468 25.5 128.51C25.897 125.456 24.709 123.936 26.918 121.355C27.188 129.598 29.595 147.779 25.666 154.5C23.627 155.859 21.632 157.346 19.368 158.306Z" fill="black"/>
<path d="M73.855 9.806L74.91 10.451C87.638 18.34 93.867 35.427 99.015 48.899C112.125 42.942 129.897 39.325 144.21 40.619C146.827 40.856 154.92 43.335 156.852 42.876C157.691 42.677 157.543 41.295 157.897 40.508C162.966 29.213 168.886 16.697 179.011 9.13501L180.177 8.24301C185.996 3.88501 192.78 -0.0590028 200.31 1.224C208.896 2.686 214.509 8.06999 219.291 14.934C230.741 31.366 235.821 52.712 238.749 72.227C239.802 79.248 240.053 86.818 241.801 93.67L237.5 92.833C235.919 94.091 235.455 93.874 235.196 96C234.629 100.662 236.82 108.527 234.315 112.243C233.039 80.312 228.633 37.723 206.731 12.737C202.521 10.384 198.917 9.53001 194.194 8.73001C189.905 11.617 185.067 14.573 181.359 18.167C174.384 24.927 170.151 34.478 165.846 43.037C163.893 43.485 161.921 43.787 160.117 44.675L157.984 44.58C157.245 45.302 155.732 47.222 154.887 47.604C151.695 49.046 145.666 46.849 142.199 48.524C126.547 49.668 113.089 51.991 98.5 57.847C96.406 57.52 94.938 57.5 93.387 55.919C91.438 53.931 90.245 49.783 89.171 47.184C85.083 37.287 79.86 22.377 69.545 17.563L68.691 17.186C72.487 14.502 72.553 14.284 73.855 9.806Z" fill="black"/>
<path d="M194.194 8.73L194.5 6.773C196.144 6.703 199.42 6.97099 200.896 6.49999C203.465 5.67899 204.651 3.78299 207.551 5.99999C207.153 8.22599 206.605 10.467 206.731 12.737C202.521 10.384 198.917 9.53 194.194 8.73Z" fill="black"/>
<path d="M22.925 201.056C30.039 199.85 36.336 199.236 42.5 195.172C45.267 195.764 45.179 195.729 46.875 198C47.126 202.532 44.741 204.185 43.024 208C39.022 216.89 40.992 228.177 48.219 234.855C52.431 238.746 58.964 240.643 64.622 240.226C72.591 239.64 78.009 235.559 84.305 231.056C86.985 233.764 89.962 237.262 93.195 239.27C102.075 244.787 115.815 245.877 125.98 245.998C140.95 246.177 153.471 243.053 167.52 238.408L167.928 238.356C172.702 235.439 177.87 230.21 183.5 229.844C189.996 233.405 188.865 239.178 194.152 243.847C198.084 247.319 203.118 248.502 208.272 248.051C219.314 247.085 223.886 240.257 230.316 232.678C231.276 226.128 231.348 221.611 228.787 215.395C227.946 213.354 228.551 212.113 228.944 209.994L234.75 210.25C236.355 212.496 235.549 214.178 237.749 215.749L238.099 216.322C240.657 221.196 240.288 227.553 238.764 232.693C236.271 241.097 229.994 248.53 222.308 252.682C215.056 256.6 206.138 258.275 198.146 255.824C190.645 253.524 185.43 248.638 181.901 241.75L181.44 240.822C170.054 246.984 158.933 251.062 146.119 253.204C124.879 256.755 100.943 255.567 82.982 242.678L79.22 244.848C71.171 248.96 61.455 250.212 52.824 247.239C44.978 244.536 38.411 238.51 35.059 230.903C31.832 223.583 31.548 215.442 34.465 208.021L34.722 205L33.5 204.223C28.644 204.566 26.771 203.907 22.925 201.056Z" fill="black"/>
<path d="M167.928 238.356C172.702 235.439 177.87 230.21 183.5 229.844C189.996 233.405 188.865 239.178 194.152 243.847C198.084 247.319 203.118 248.502 208.272 248.051C219.314 247.085 223.886 240.257 230.316 232.678C230.423 237.549 228.437 240.4 225.206 243.751C219.532 249.639 214.404 250.643 206.856 252.446C202.985 253.37 196.972 250.616 193.755 248.396C190.306 246.016 185.943 240.187 185.328 236.087L185.156 234.674L183.231 232.643C177.856 235.466 174.137 238.538 167.928 238.356Z" fill="black"/>
<path d="M26.918 121.355L27.955 105.297L37.351 152.671C34.569 161.385 24.749 165.277 21.148 173.497L20.753 174.5C19.125 178.573 19.646 183.146 20.5 187.333C30.29 198.874 43.582 184.035 54.735 187.403C57.32 188.184 57.609 189.385 58.856 191.5C59.334 196.901 53.911 202.076 52.386 207.47C50.827 212.983 51.211 218.806 54.126 223.723C55.818 226.575 57.244 228.775 60.684 229.473C67.836 230.925 70.271 226.046 75.789 222.691C83.24 218.159 90.879 226.956 97.227 230.08C100.828 231.852 105.178 232.518 109.106 233.246C127.325 236.623 148.046 238.158 165 229.1C171.068 225.859 176.706 221.33 182.383 217.438C197.065 216.881 191.395 234.419 202.199 239.636C205.112 241.042 207.232 240.698 210.186 239.572C214.616 237.883 218.08 234.515 219.892 230.113C221.3 226.693 221.883 221.506 220.117 218.066C218.537 214.989 217.198 213.859 213.917 212.732C210.778 211.654 209.654 210.726 207.755 208C207.286 204.645 207.299 204.441 208.97 201.5C212.374 199.567 213.879 199.56 217.833 200.617C220.631 201.366 222.378 201.224 225.199 200.469C231.83 198.697 236.228 194.2 239.5 188.341C242.472 183.019 244.612 175.987 242.118 170C240.734 166.68 239.039 166.152 236 164.723L232.403 165.049C228.287 165.255 226.792 164.546 223.833 162C220.965 154.601 222.872 142.549 224.893 135.046L225.297 133.589L226.581 132.622L233.99 113.871C235.33 126.639 235.171 139.215 231.345 151.562C231.06 152.483 231.05 152.979 231.265 153.913C239.221 156.382 246.492 156.392 250.738 164.884C254.246 171.9 254.778 180.263 252.196 187.681C249.218 196.235 244.066 203.054 235.738 206.965L228.944 209.994C228.551 212.113 227.946 213.354 228.787 215.395C231.348 221.611 231.276 226.128 230.316 232.678C223.886 240.257 219.314 247.085 208.272 248.051C203.118 248.502 198.084 247.319 194.152 243.847C188.865 239.178 189.996 233.405 183.5 229.844C177.87 230.21 172.702 235.439 167.928 238.356L167.52 238.408C153.471 243.053 140.95 246.177 125.98 245.998C115.815 245.877 102.075 244.787 93.195 239.27C89.962 237.262 86.985 233.764 84.305 231.056C78.009 235.559 72.591 239.64 64.622 240.226C58.964 240.643 52.431 238.746 48.219 234.855C40.992 228.177 39.022 216.89 43.024 208C44.741 204.185 47.126 202.532 46.875 198C45.179 195.729 45.267 195.764 42.5 195.172C36.336 199.236 30.039 199.85 22.925 201.056C19.409 198.686 14.889 196.124 12.263 192.756C8.53897 187.981 9.42097 181.591 9.92197 176L10.19 173.522C11.222 168.056 14.804 161.547 19.368 158.306C21.632 157.346 23.627 155.859 25.666 154.5C29.595 147.779 27.188 129.598 26.918 121.355Z" fill="#3C5DA8"/>
<path d="M127.364 211.347L128 212.742L129.501 213.161C134.905 214.332 154.005 210.023 158.439 206.835C164.215 202.683 171.161 200.424 177.055 196.418C187.887 189.056 197.538 176.49 205.281 166.099C207.57 163.026 210.5 160.008 212.16 156.546C215.764 149.033 220.006 141.018 224.832 134.234L225.297 133.589L224.893 135.046C222.872 142.549 220.965 154.601 223.833 162C226.792 164.546 228.287 165.255 232.403 165.049L236 164.723C239.039 166.152 240.734 166.68 242.118 170C244.612 175.987 242.472 183.019 239.5 188.341C236.228 194.2 231.83 198.697 225.199 200.469C222.378 201.224 220.631 201.366 217.833 200.617C213.879 199.56 212.374 199.567 208.97 201.5C207.299 204.441 207.286 204.645 207.755 208C209.654 210.726 210.778 211.654 213.917 212.732C217.198 213.859 218.537 214.989 220.117 218.066C221.883 221.506 221.3 226.693 219.892 230.113C218.08 234.515 214.616 237.883 210.186 239.572C207.232 240.698 205.112 241.042 202.199 239.636C191.395 234.419 197.065 216.881 182.383 217.438C176.706 221.33 171.068 225.859 165 229.1C148.046 238.158 127.325 236.623 109.106 233.246C105.178 232.518 100.828 231.852 97.227 230.08C90.879 226.956 83.24 218.159 75.789 222.691C70.271 226.046 67.836 230.925 60.684 229.473C57.244 228.775 55.818 226.575 54.126 223.723C51.211 218.806 50.827 212.983 52.386 207.47C53.911 202.076 59.334 196.901 58.856 191.5C57.609 189.385 57.32 188.184 54.735 187.403C43.582 184.035 30.29 198.874 20.5 187.333C19.646 183.146 19.125 178.573 20.753 174.5L21.148 173.497C24.749 165.277 34.569 161.385 37.351 152.671L38.098 153.56C43.081 159.579 45.481 167.169 50.37 173.082C55.421 179.19 62.949 183.815 69.362 188.379C80.032 195.972 91.161 204.484 104 208.104C108.804 209.459 113.555 211.179 118.5 211.934L119.934 209.744C123.097 211.329 123.836 211.515 127.364 211.347Z" fill="#76BAE2"/>
<path d="M194.194 8.73001C198.917 9.53001 202.521 10.384 206.731 12.737C228.633 37.723 233.039 80.312 234.315 112.243L233.99 113.871L226.581 132.622L225.297 133.589L224.832 134.234C220.006 141.018 215.764 149.033 212.16 156.546C210.5 160.008 207.57 163.026 205.281 166.099C197.538 176.49 187.887 189.056 177.055 196.418C171.161 200.424 164.215 202.683 158.439 206.835C154.005 210.023 134.905 214.332 129.501 213.161L128 212.742L127.364 211.347C123.836 211.515 123.097 211.329 119.934 209.744L118.5 211.934C113.555 211.179 108.804 209.459 104 208.104C91.161 204.484 80.032 195.972 69.362 188.379C62.949 183.815 55.421 179.19 50.37 173.082C45.481 167.169 43.081 159.579 38.098 153.56L37.351 152.671L27.955 105.297C27.852 98.735 29.358 92.021 30.423 85.548C33.457 67.11 38.475 46.207 48.25 30.053C52.244 23.453 57.044 18.626 64.768 16.779L68.691 17.186L69.545 17.563C79.86 22.377 85.083 37.287 89.171 47.184C90.245 49.783 91.438 53.931 93.387 55.919C94.938 57.5 96.406 57.52 98.5 57.847C113.089 51.991 126.547 49.668 142.199 48.524C145.666 46.849 151.695 49.046 154.887 47.604C155.732 47.222 157.245 45.302 157.984 44.58L160.117 44.675C161.921 43.787 163.893 43.485 165.846 43.037C170.151 34.478 174.384 24.927 181.359 18.167C185.067 14.573 189.905 11.617 194.194 8.73001ZM170.487 91.657L163.482 100.809C165.953 101.098 168.832 101.072 171.14 102.016L167.469 103.042C163.963 105.534 156.576 110.657 155.756 114.906L145.191 159C141.946 162.691 140.597 163.744 135.584 164.056L122.539 163.954L114.329 192.231C117.791 194.809 121.345 197.991 125.277 199.781C128.774 197.71 132.381 195.909 135.003 192.737L140.561 193.446C150.244 189.085 155.231 183.567 162.902 176.463C164.972 174.546 166.561 174.701 169.205 174.852C170.739 174.939 173.509 172.753 174.92 171.888L175.634 176.245L195.371 156.881C202.678 150.147 208.286 135.959 208.882 126.044C209.369 117.934 204.442 107.075 198.898 101.239C192.317 94.311 183.896 92.515 174.723 92.17L170.487 91.657ZM119.934 209.744C123.097 211.329 123.836 211.515 127.364 211.347C129.187 210.067 131.06 208.623 133.057 207.634C138.849 204.769 144.961 200.165 150.217 196.282C152.294 194.749 153.898 192.548 156.276 191.484C162.997 188.48 170.364 181.285 175.634 176.245L174.92 171.888C173.509 172.753 170.739 174.939 169.205 174.852C166.561 174.701 164.972 174.546 162.902 176.463C155.231 183.567 150.244 189.085 140.561 193.446L135.003 192.737C132.381 195.909 128.774 197.71 125.277 199.781C121.345 197.991 117.791 194.809 114.329 192.231L122.539 163.954L135.584 164.056C140.597 163.744 141.946 162.691 145.191 159L155.756 114.906C156.576 110.657 163.963 105.534 167.469 103.042L171.14 102.016C168.832 101.072 165.953 101.098 163.482 100.809L170.487 91.657C161.585 92.912 154.904 96.717 149.333 103.936C146.474 107.64 145.922 112.699 144.965 117.158L140.093 140.479C138.921 145.891 138.444 150.415 133.5 153.655C127.702 153.135 121.128 151.5 116.083 155.018C112.886 162.696 110.644 171.508 109.297 179.721C108.166 186.613 108.039 192.539 105.622 199.255C110.222 203.3 114.539 206.814 119.934 209.744Z" fill="#8DDCF6"/>
<path d="M142.199 48.524C145.666 46.849 151.695 49.046 154.887 47.604C155.732 47.222 157.245 45.302 157.984 44.58L160.117 44.675C161.921 43.787 163.893 43.485 165.846 43.037C164.457 46.611 163.587 49.974 160 51.918C154.637 52.453 147.706 49.447 142.199 48.524Z" fill="black"/>
<path d="M119.934 209.744C114.539 206.814 110.222 203.3 105.622 199.255C108.039 192.539 108.166 186.613 109.297 179.721C110.644 171.508 112.886 162.696 116.083 155.018C121.128 151.5 127.702 153.135 133.5 153.655C138.444 150.415 138.921 145.891 140.093 140.479L144.965 117.158C145.922 112.699 146.474 107.64 149.333 103.936C154.904 96.717 161.585 92.912 170.487 91.657L163.482 100.809C165.953 101.098 168.832 101.072 171.14 102.016L167.469 103.042C163.963 105.534 156.576 110.657 155.756 114.906L145.191 159C141.946 162.691 140.597 163.744 135.584 164.056L122.539 163.954L114.329 192.231C117.791 194.809 121.345 197.991 125.277 199.781C128.774 197.71 132.381 195.909 135.003 192.737L140.561 193.446C150.244 189.085 155.231 183.567 162.902 176.463C164.972 174.546 166.561 174.701 169.205 174.852C170.739 174.939 173.509 172.753 174.92 171.888L175.634 176.245C170.364 181.285 162.997 188.48 156.276 191.484C153.898 192.548 152.294 194.749 150.217 196.282C144.961 200.165 138.849 204.769 133.057 207.634C131.06 208.623 129.187 210.067 127.364 211.347C123.836 211.515 123.097 211.329 119.934 209.744Z" fill="url(#paint1_linear_1_252)"/>
<path d="M170.487 91.657L174.723 92.17C183.896 92.515 192.317 94.311 198.898 101.239C204.442 107.075 209.369 117.934 208.882 126.044C208.286 135.959 202.678 150.147 195.371 156.881L175.634 176.245L174.92 171.888C173.509 172.753 170.739 174.939 169.205 174.852C166.561 174.701 164.972 174.546 162.902 176.463C155.231 183.567 150.244 189.085 140.561 193.446L135.003 192.737C132.381 195.909 128.774 197.71 125.277 199.781C121.345 197.991 117.791 194.809 114.329 192.231L122.539 163.954L135.584 164.056C140.597 163.744 141.946 162.691 145.191 159L155.756 114.906C156.576 110.657 163.963 105.534 167.469 103.042L171.14 102.016C168.832 101.072 165.953 101.098 163.482 100.809L170.487 91.657ZM170.487 91.657L163.482 100.809C165.953 101.098 168.832 101.072 171.14 102.016L167.469 103.042C175.377 103.865 185.387 103.352 190.905 110C194.244 114.024 196.212 119.175 197.744 124.111C196.106 130.939 194.79 137.737 191.227 143.877C187.549 150.215 177.091 156.548 176.255 163.231C174.943 163.549 174.738 163.451 173.5 163.068C161.173 174.525 148.815 183.277 135.003 192.737L140.561 193.446C150.244 189.085 155.231 183.567 162.902 176.463C164.972 174.546 166.561 174.701 169.205 174.852C170.739 174.939 173.509 172.753 174.92 171.888L175.634 176.245L195.371 156.881C202.678 150.147 208.286 135.959 208.882 126.044C209.369 117.934 204.442 107.075 198.898 101.239C192.317 94.311 183.896 92.515 174.723 92.17L170.487 91.657Z" fill="#334569"/>
<path d="M170.487 91.657L174.723 92.17C183.896 92.515 192.317 94.311 198.898 101.239C204.442 107.075 209.369 117.934 208.882 126.044C208.286 135.959 202.678 150.147 195.371 156.881L175.634 176.245L174.92 171.888C173.509 172.753 170.739 174.939 169.205 174.852C166.561 174.701 164.972 174.546 162.902 176.463C155.231 183.567 150.244 189.085 140.561 193.446L135.003 192.737C148.815 183.277 161.173 174.525 173.5 163.068C174.738 163.451 174.943 163.549 176.255 163.231C177.091 156.548 187.549 150.215 191.227 143.877C194.79 137.737 196.106 130.939 197.744 124.111C196.212 119.175 194.244 114.024 190.905 110C185.387 103.352 175.377 103.865 167.469 103.042L171.14 102.016C168.832 101.072 165.953 101.098 163.482 100.809L170.487 91.657ZM174.92 171.888L175.634 176.245L195.371 156.881L195.356 155.827C195.357 152.401 195.611 150.752 197.609 148L198.198 147.176L199.665 145.25L198.251 144.636L197.905 145.156C195.747 148.258 192.829 150.132 190.373 152.881C184.933 158.971 181.183 166.431 174.92 171.888ZM170.487 91.657L163.482 100.809C165.953 101.098 168.832 101.072 171.14 102.016L173.29 101.647C174.553 100.61 175.664 99.99 177.085 99.198C180.019 98.929 182.182 98.72 184.877 100.102C186.939 101.16 188.072 101.473 190.381 101.648L190.995 100.338C186.124 98.866 178.015 97.028 175.067 92.732L174.723 92.17L170.487 91.657Z" fill="#222C54"/>
<path d="M170.487 91.657L174.723 92.17L175.067 92.732C178.015 97.028 186.124 98.866 190.995 100.338L190.381 101.648C188.072 101.473 186.939 101.16 184.877 100.102C182.182 98.72 180.019 98.929 177.085 99.198C175.664 99.99 174.553 100.61 173.29 101.647L171.14 102.016C168.832 101.072 165.953 101.098 163.482 100.809L170.487 91.657Z" fill="#222C54" fill-opacity="0.964706"/>
<path d="M174.92 171.888C181.183 166.431 184.933 158.971 190.373 152.881C192.829 150.132 195.747 148.258 197.905 145.156L198.251 144.636L199.665 145.25L198.198 147.176L197.609 148C195.611 150.752 195.357 152.401 195.356 155.827L195.371 156.881L175.634 176.245L174.92 171.888Z" fill="#222C54" fill-opacity="0.968627"/>
<path d="M93.713 88.217C111.696 88.073 124.471 101.371 136.673 112.655L129.828 143.577L106.381 141.92C105.618 143.103 105.675 142.68 105.556 143.861L98.639 187.034L97.864 189.98L96 190.838C94.488 190.563 92.87 190.234 91.5 189.51C88.771 188.069 85.835 184.57 83.714 182.325C75.582 173.715 66.675 162.372 62.943 151.066C58.686 138.168 55.254 121.117 61.908 108.488C68.242 96.466 81.502 91.887 93.713 88.217Z" fill="#222C54"/>
<path d="M93.261 100.069C106.747 98.964 117.076 110.246 126.746 117.802C125.762 123.715 123.071 130.29 121.665 136.313L111.063 134.058C108.872 133.641 105.299 132.797 103.368 134.222C96.658 139.175 96.934 152.625 95.932 160.227L92.569 174.507L91.833 174.372C84.503 166.826 77.564 157.711 73.896 147.835C70.462 138.587 67.068 123.211 71.804 114.125C76.125 105.836 84.933 102.761 93.261 100.069Z" fill="#334569"/>
<defs>
<linearGradient id="paint0_linear_1_252" x1="264.566" y1="159.109" x2="222.604" y2="148.863" gradientUnits="userSpaceOnUse">
<stop stop-color="#030303" stop-opacity="0.964706"/>
<stop offset="1" stop-color="#030303"/>
</linearGradient>
<linearGradient id="paint1_linear_1_252" x1="172.296" y1="171.518" x2="125.273" y2="143.242" gradientUnits="userSpaceOnUse">
<stop stop-color="#1D2D58" stop-opacity="0.964706"/>
<stop offset="1" stop-color="#1E2F5A"/>
</linearGradient>
</defs>
</svg>
