<svg width="284" height="291" viewBox="0 0 284 291" fill="none" xmlns="http://www.w3.org/2000/svg">
<path d="M61.656 2.98199L62.474 3.19C70.17 5.343 77.191 13.068 80.803 20L87.87 35.991C95.461 34.185 103.484 31.812 111.241 31.036C118.763 30.284 126.318 30.955 133.832 31.525C140.766 18.585 150.125 5.94499 164.889 1.58499C170.1 0.0469894 175.874 1.15999 180.502 3.93399C182.915 5.38099 184.345 7.447 185.849 9.759C181.422 9.576 181.276 9.284 177.956 12.134L172.713 9.64001C166.97 8.78801 162.056 11.531 157.593 14.864C150.83 19.916 146.418 26.806 141.858 33.766L141.955 34.705C140.611 38.562 140.655 39.712 137 41.879C135.192 41.683 133.352 41.75 131.938 40.478C121.713 38.994 113.35 39.117 103.225 40.904L92.856 43.49C90.655 44.048 88.113 44.897 85.832 44.753C82.909 44.569 82.144 42.836 80.316 40.811L78.192 35.332C74.703 27.215 72.022 21.18 66.117 14.466C62.402 11.991 58.95 9.95599 54.361 10.46C54.941 9.24899 55.216 8.49699 55.325 7.12799L55.374 6C57.234 3.34 58.001 3.545 61.035 2.69L61.656 2.98199Z" fill="black"/>
<path d="M61.035 2.69L61.656 2.98199L61.791 7.5C65.192 10.259 65.44 10.185 66.117 14.466C62.402 11.991 58.95 9.95599 54.361 10.46C54.941 9.24899 55.216 8.49699 55.325 7.12799L55.374 6C57.234 3.34 58.001 3.545 61.035 2.69Z" fill="black"/>
<path d="M131.938 40.478L133.054 39.153C133.156 37.618 133.192 38.267 132.954 36.662L132.765 35.5L135.016 33.821C137.325 34.022 139.552 33.896 141.858 33.766L141.955 34.705C140.611 38.562 140.655 39.712 137 41.879C135.192 41.683 133.352 41.75 131.938 40.478Z" fill="black"/>
<path d="M80.316 40.811L85.5 37.341L88.067 37.933L89.5 40.807C94.086 40.654 98.658 40.357 103.225 40.904L92.856 43.49C90.655 44.048 88.113 44.897 85.832 44.753C82.909 44.569 82.144 42.836 80.316 40.811Z" fill="black"/>
<path d="M177.956 12.134C181.276 9.284 181.422 9.576 185.849 9.759L189.874 17.73C200.007 36.477 202.711 62.779 202.992 83.781C203.089 90.965 203.375 98.407 201.343 105.378L201.125 106.081C200.765 110.118 200.456 110.598 197.92 113.786L193.436 111.774L192.992 110.939C190.612 109.882 188.991 109.15 187.648 106.766L187.264 106L184.921 109.2C184.498 108.8 182.442 107.145 182.329 106.754C181.792 104.883 182.638 100.844 182.803 98.804C183.674 87.994 182.938 80.132 178.542 70.224L178.188 69.385C179.501 66.845 179.455 63.583 179.587 60.761C180.171 48.298 176.644 38.251 175.083 26.191L174.992 25.434L178.349 33.072C178.743 28.692 178.265 23.427 176.793 19.265L176.51 18.5C176.102 17.324 175.86 16.382 175.031 15.428C173.326 13.467 173.066 12.206 172.713 9.64001L177.956 12.134ZM177.956 12.134L181.451 17.463C190.584 40.974 194.401 64.327 194.209 89.517C194.155 96.57 192.254 104.019 192.992 110.939L193.436 111.774L197.92 113.786C200.456 110.598 200.765 110.118 201.125 106.081L201.343 105.378C203.375 98.407 203.089 90.965 202.992 83.781C202.711 62.779 200.007 36.477 189.874 17.73L185.849 9.759C181.422 9.576 181.276 9.284 177.956 12.134ZM174.992 25.434L175.083 26.191C176.644 38.251 180.171 48.298 179.587 60.761C179.455 63.583 179.501 66.845 178.188 69.385L178.542 70.224C182.938 80.132 183.674 87.994 182.803 98.804C182.638 100.844 181.792 104.883 182.329 106.754C182.442 107.145 184.498 108.8 184.921 109.2C186.561 103.612 185.847 96.76 185.778 90.962C185.55 71.608 184.485 51.541 178.349 33.072L174.992 25.434Z" fill="url(#paint0_linear_1_253)"/>
<path d="M174.992 25.434L178.349 33.072C184.485 51.541 185.55 71.608 185.778 90.962C185.847 96.76 186.561 103.612 184.921 109.2C184.498 108.8 182.442 107.145 182.329 106.754C181.792 104.883 182.638 100.844 182.803 98.804C183.674 87.994 182.938 80.132 178.542 70.224L178.188 69.385C179.501 66.845 179.455 63.583 179.587 60.761C180.171 48.298 176.644 38.251 175.083 26.191L174.992 25.434Z" fill="#C382DD" fill-opacity="0.988235"/>
<path d="M177.956 12.134C181.276 9.28401 181.422 9.57601 185.849 9.75901L189.874 17.73C200.007 36.477 202.711 62.779 202.992 83.781C203.089 90.965 203.375 98.407 201.343 105.378L201.125 106.081C200.765 110.118 200.456 110.598 197.92 113.786L193.436 111.774L192.992 110.939C192.254 104.019 194.155 96.57 194.209 89.517C194.401 64.327 190.584 40.974 181.451 17.463L177.956 12.134Z" fill="black"/>
<path d="M177.956 12.134C181.276 9.28401 181.422 9.57601 185.849 9.75901L189.874 17.73L186.204 19.513L181.451 17.463L177.956 12.134Z" fill="black"/>
<path d="M197.92 113.786C200.456 110.598 200.765 110.118 201.125 106.081L230.026 118.404C240.125 109.783 250.247 103.697 263.896 104.854C269.468 105.326 274.853 106.676 278.705 111.028C282.326 115.12 283.98 122.165 283.5 127.51C282.515 138.472 279.537 148.587 276.524 159.106C270.379 180.564 262.866 197.78 251.006 216.851C248.375 221.082 245.064 223.454 247.673 228.414C250.214 233.244 250.502 239.96 248.785 245.093L247.897 247.261C247.341 240.423 248.35 235.064 244.483 228.801C243.503 227.213 244.417 226.621 244.104 225C243.953 224.216 242.305 222.271 241.797 221.5C243.463 219.285 243.456 217.818 243.503 215.074L243.509 214.087C245.647 207.402 251.194 200.029 254.476 193.696C261.496 183.008 266.493 166.796 268.759 154.205C268.623 151.691 268.912 149.642 269.226 147.16C269.715 143.299 268.055 141.922 265.786 139.069C266.889 132.268 267.991 125.597 264.615 119.317C259.191 119.066 255.915 119.902 250.97 122.094C243.1 125.581 236.837 132.567 228.764 135.355C226.43 135.828 224.621 135.218 222.387 134.616C217.119 129.663 210.778 126.733 204.374 123.562C202.226 119.654 198.376 118.445 194.5 116.655L193.436 111.774L197.92 113.786ZM193.436 111.774L194.5 116.655C198.376 118.445 202.226 119.654 204.374 123.562C210.778 126.733 217.119 129.663 222.387 134.616C224.621 135.218 226.43 135.828 228.764 135.355C236.837 132.567 243.1 125.581 250.97 122.094C255.915 119.902 259.191 119.066 264.615 119.317C267.991 125.597 266.889 132.268 265.786 139.069C268.055 141.922 269.715 143.299 269.226 147.16C268.912 149.642 268.623 151.691 268.759 154.205C272.526 144.109 276.473 131.163 274.356 120.343L273.77 118.614C269.173 113.993 266.397 113.108 259.885 113.074C252.345 113.034 244.476 117.404 238.724 121.978C235.241 125.11 233.456 127.866 228.437 127.696L227.614 127.626C220.243 120.957 207.13 117.353 197.92 113.786L193.436 111.774Z" fill="black"/>
<path d="M273.77 118.614C274.714 116.087 274.565 115.374 277 114.04L279.51 114.5C279.839 116.94 280.474 117.91 279 119.96L274.356 120.343L273.77 118.614Z" fill="black"/>
<path d="M227.614 127.626C227.699 125.716 227.656 123.735 228.537 121.992C229.254 120.574 229.584 120.827 231 120.349C233.158 122.044 234.943 121.901 237.628 121.963L238.724 121.978C235.241 125.11 233.456 127.866 228.437 127.696L227.614 127.626Z" fill="black"/>
<path d="M193.436 111.774L197.92 113.786C207.13 117.353 220.243 120.957 227.614 127.626L228.437 127.696C233.456 127.866 235.241 125.11 238.724 121.978C244.476 117.404 252.345 113.034 259.885 113.074C266.397 113.108 269.173 113.993 273.77 118.614L274.356 120.343C276.473 131.163 272.526 144.109 268.759 154.205C268.623 151.691 268.912 149.642 269.226 147.16C269.715 143.299 268.055 141.922 265.786 139.069C266.889 132.268 267.991 125.597 264.615 119.317C259.191 119.066 255.915 119.902 250.97 122.094C243.1 125.581 236.837 132.567 228.764 135.355C226.43 135.828 224.621 135.218 222.387 134.616C217.119 129.663 210.778 126.733 204.374 123.562C202.226 119.654 198.376 118.445 194.5 116.655L193.436 111.774Z" fill="#A962DB" fill-opacity="0.968627"/>
<path d="M228.764 135.355L233.183 130.5C238.675 125.506 252.342 114.299 260 115.251C262.544 115.568 263.303 117.421 264.615 119.317C259.191 119.066 255.915 119.902 250.97 122.094C243.1 125.581 236.837 132.567 228.764 135.355Z" fill="#A962DB"/>
<path d="M219.763 266.081L219.27 268.3C217.091 277.082 212.32 283.038 204.627 287.638C199.99 290.41 191.832 291.857 186.59 290.408L185.5 290.066C182.054 289.039 179.563 287.669 176.832 285.372C170.572 280.108 168.469 274.589 167.739 266.557L167.63 265.284C160.238 265.255 151.821 265.45 144.75 263.132C128.603 257.838 111.021 245.348 103.223 229.847L102.929 229.241L99.5 229.107C96.653 228.991 94.176 228.812 91.545 227.674C80.954 223.092 77.569 214.103 73.807 204.035L75 204.016C70.547 201.7 66.983 199.458 63.365 195.944C63.035 195.624 62.835 195.054 62.382 194.979C61.805 194.883 56.945 197.137 56.008 197.46C52.207 198.77 46.959 199.667 43 199.168C37.368 198.458 33.226 194.855 30.101 190.313C25.937 184.262 24.659 176.279 25.967 169.151C26.27 167.497 26.382 168.37 25.5 166.69C22.444 166.914 19.456 167.073 16.471 166.235C11.247 164.769 6.97602 161.509 4.34002 156.708C-0.210975 148.417 0.130974 138.19 2.86297 129.387C5.22397 121.782 10.829 117.825 17.558 114.37C14.908 90.459 19.42 67.271 26.596 44.551C29.093 36.645 31.436 28.598 35.001 21.093C38.841 13.009 46.622 4.52599 55.382 1.77199C58.009 0.945994 58.675 1.57999 61.035 2.68999C58.001 3.54499 57.234 3.33999 55.374 5.99999L55.325 7.12798C55.216 8.49698 54.941 9.24898 54.361 10.46L53.71 11.392C51.227 14.814 47.357 16.792 44.927 20.475C40.764 26.78 38.136 35.329 35.903 42.5C32.028 54.951 28.666 66.759 26.715 79.672C27.274 87.179 28.9 94.325 30.55 101.645C30.704 99.35 30.992 97.447 31.686 95.25C31.51 99.806 31.022 103.251 33.5 107.235C40.532 118.538 46.874 129.543 56.006 139.424C62.073 145.99 69.322 151.537 75.493 158.037C73.668 162.643 71.372 167.509 73.299 172.489C75.259 177.554 81.144 182.459 86.137 184.362L89.615 185.5L89.5 187.017L87 188.877C81.039 187.66 76.934 185.794 71.715 182.764L71.32 183.863C74.593 187.825 83.132 190.853 83.927 195.058L86.091 198.131C88.894 200.429 87.127 202.302 89.182 204.751C91.208 208.743 92.5 211.028 96.452 213.456L98.832 214.902L94.527 216.86L94.749 219.02L95.14 220.191C99.439 220.386 104.393 219.509 108.411 221.029L112.964 217.975C119.625 231.448 135.159 243.083 149.263 247.909L151.51 248.645L154.035 249.472L155 251.187L173.986 254.557L177.458 258.825L175.794 267.89C177.791 273.609 180.299 278.351 185.981 281.132C189.313 282.763 194.861 282.315 198.236 280.929C202.118 279.336 204.452 276.321 207.869 274.442C212.638 271.474 211.975 269.782 215.088 265.585L219.763 266.081ZM30.55 101.645L30.112 121.649C27.038 124.412 24.226 126.725 20.599 128.759C17.199 129.701 14.553 133.021 12.841 136.018C10.948 139.328 10.645 143.132 11.882 146.754C12.726 149.228 15.855 152.397 18.263 153.332C23.368 155.315 30.091 153.924 35.509 155.12L39.516 159.491C40.247 160.712 40.881 161.716 41.319 163.077C40.304 169.157 38.838 175.631 42.852 181.005C43.917 182.431 45.546 183.632 46.926 184.734C52.028 186.375 55.684 185.56 60.807 184.407L64.769 184.248C67.925 182.983 68.081 182.887 71.32 183.863L71.715 182.764C76.934 185.794 81.039 187.66 87 188.877L89.5 187.017L89.615 185.5L86.137 184.362C81.144 182.459 75.259 177.554 73.299 172.489C71.372 167.509 73.668 162.643 75.493 158.037C69.322 151.537 62.073 145.99 56.006 139.424C46.874 129.543 40.532 118.538 33.5 107.235C31.022 103.251 31.51 99.806 31.686 95.25C30.992 97.447 30.704 99.35 30.55 101.645ZM25.267 88.657C21.698 93.643 22.028 101.094 21.641 107.245C21.536 108.925 21.524 112.637 20.859 114C20.289 115.17 18.617 115.178 18.132 116.796C17.185 119.955 15.285 121.781 15.084 125.088C10.812 130.623 8.38699 137.816 9.32599 144.917C9.92499 149.449 11.756 154.213 15.702 156.844C17.529 158.063 19.777 158.641 21.874 159.21C26.629 158.389 30.991 156.762 35.509 155.12C30.091 153.924 23.368 155.315 18.263 153.332C15.855 152.397 12.726 149.228 11.882 146.754C10.645 143.132 10.948 139.328 12.841 136.018C14.553 133.021 17.199 129.701 20.599 128.759C24.226 126.725 27.038 124.412 30.112 121.649L30.55 101.645C28.9 94.325 27.274 87.179 26.715 79.672C26.31 82.364 26.243 86.187 25.267 88.657ZM108.411 221.029C109.974 223.902 111.607 226.688 112.644 229.802C123.172 242.331 137.81 254.354 154.709 256.235C161.351 257.047 167.65 256.848 173.986 254.557L155 251.187L154.035 249.472L151.51 248.645L149.263 247.909C135.159 243.083 119.625 231.448 112.964 217.975L108.411 221.029ZM39.516 159.491C35.919 166.658 33.298 170.724 34.089 179.116C36.511 185.252 38.721 188.759 44.897 191.809C51.091 190.179 55.99 188.858 60.807 184.407C55.684 185.56 52.028 186.375 46.926 184.734C45.546 183.632 43.917 182.431 42.852 181.005C38.838 175.631 40.304 169.157 41.319 163.077C40.881 161.716 40.247 160.712 39.516 159.491ZM86.091 198.131C84.922 202.185 83.789 205.764 84.118 210.05L85.176 211.015C88.37 213.963 90.369 217.689 94.749 219.02L94.527 216.86L98.832 214.902L96.452 213.456C92.5 211.028 91.208 208.743 89.182 204.751C87.127 202.302 88.894 200.429 86.091 198.131ZM64.769 184.248L68.296 188.906C71.876 192.146 75.226 195.443 80.339 195.776L83.927 195.058C83.132 190.853 74.593 187.825 71.32 183.863C68.081 182.887 67.925 182.983 64.769 184.248ZM95.14 220.191L95.5 222.955L101.993 223.336L102.047 224.011C102.255 225.325 102.891 226.351 103.5 227.51L107.68 227.263L108.169 227.905C109.369 229.107 111.057 229.377 112.644 229.802C111.607 226.688 109.974 223.902 108.411 221.029C104.393 219.509 99.439 220.386 95.14 220.191Z" fill="black"/>
<path d="M80.339 195.776L83.927 195.058L86.091 198.131C84.922 202.185 83.789 205.764 84.118 210.05C83.249 209.533 82.219 209.221 81.51 208.5C81.136 208.12 81.102 205.459 80.761 205.221C79.098 204.064 78.808 205.237 77.006 203C77.22 199.35 78.197 198.642 80.339 195.776Z" fill="black"/>
<path d="M95.14 220.191C99.439 220.386 104.393 219.509 108.411 221.029C109.974 223.902 111.607 226.688 112.644 229.802C111.057 229.377 109.369 229.107 108.169 227.905L107.68 227.263L103.5 227.51C102.891 226.351 102.255 225.325 102.047 224.011L101.993 223.336L95.5 222.955L95.14 220.191Z" fill="black"/>
<path d="M60.807 184.407L64.769 184.248L68.296 188.906L63.5 192.594C62.131 192.07 61.124 191.642 60 190.69L58.716 191.265C55.001 192.852 48.702 193.113 44.897 191.809C51.091 190.179 55.99 188.858 60.807 184.407Z" fill="black"/>
<path d="M64.769 184.248C67.925 182.983 68.081 182.887 71.32 183.863C74.593 187.825 83.132 190.853 83.927 195.058L80.339 195.776C75.226 195.443 71.876 192.146 68.296 188.906L64.769 184.248Z" fill="#7733CF" fill-opacity="0.968627"/>
<path d="M173.986 254.557L177.458 258.825L175.794 267.89L174.343 262.759L174.18 262.005L171.445 263.957C165.147 263.001 170.749 262.321 167.5 259.871C167.327 259.741 164.695 259.65 164.4 259.624C160.052 259.232 157.737 259.558 154.709 256.235C161.351 257.047 167.65 256.848 173.986 254.557Z" fill="black"/>
<path d="M86.091 198.131C88.894 200.429 87.127 202.302 89.182 204.751C91.208 208.743 92.5 211.028 96.452 213.456L98.832 214.902L94.527 216.86L94.749 219.02C90.369 217.689 88.37 213.963 85.176 211.015L84.118 210.05C83.789 205.764 84.922 202.185 86.091 198.131Z" fill="#7733CF" fill-opacity="0.968627"/>
<path d="M35.509 155.12L39.516 159.491C35.919 166.658 33.298 170.724 34.089 179.116C32.523 178.737 31.913 178.372 30.606 177.5L30.62 166.5L28.5 165.68C28.295 163.934 28.495 162.242 28.648 160.5C26.659 160.624 25.068 160.694 23.209 159.849L21.874 159.21C26.629 158.389 30.991 156.762 35.509 155.12Z" fill="black"/>
<path d="M39.516 159.491C40.247 160.712 40.881 161.716 41.319 163.077C40.304 169.157 38.838 175.631 42.852 181.005C43.917 182.431 45.546 183.632 46.926 184.734C52.028 186.375 55.684 185.56 60.807 184.407C55.99 188.858 51.091 190.179 44.897 191.809C38.721 188.759 36.511 185.252 34.089 179.116C33.298 170.724 35.919 166.658 39.516 159.491Z" fill="#7733CF" fill-opacity="0.964706"/>
<path d="M108.411 221.029L112.964 217.975C119.625 231.448 135.159 243.083 149.263 247.909L151.51 248.645L154.035 249.472L155 251.187L173.986 254.557C167.65 256.848 161.351 257.047 154.709 256.235C137.81 254.354 123.172 242.331 112.644 229.802C111.607 226.688 109.974 223.902 108.411 221.029Z" fill="#7733CF" fill-opacity="0.968627"/>
<path d="M25.267 88.657C26.243 86.187 26.31 82.364 26.715 79.672C27.274 87.179 28.9 94.325 30.55 101.645L30.112 121.649C27.038 124.412 24.226 126.725 20.599 128.759C17.199 129.701 14.553 133.021 12.841 136.018C10.948 139.328 10.645 143.132 11.882 146.754C12.726 149.228 15.855 152.397 18.263 153.332C23.368 155.315 30.091 153.924 35.509 155.12C30.991 156.762 26.629 158.389 21.874 159.21C19.777 158.641 17.529 158.063 15.702 156.844C11.756 154.213 9.92497 149.449 9.32597 144.917C8.38697 137.816 10.812 130.623 15.084 125.088C15.285 121.781 17.185 119.955 18.132 116.796C18.617 115.178 20.289 115.17 20.859 114C21.524 112.637 21.536 108.925 21.641 107.245C22.028 101.094 21.698 93.643 25.267 88.657Z" fill="#7733CF" fill-opacity="0.968627"/>
<path d="M15.084 125.088C15.285 121.781 17.185 119.955 18.132 116.796C18.617 115.178 20.289 115.17 20.859 114C21.524 112.637 21.536 108.925 21.641 107.245C22.028 101.094 21.698 93.643 25.267 88.657C25.129 94.404 24.843 100.259 25.143 106C25.382 110.551 26.919 116.255 25.311 120.5C23.288 122.395 22.194 122.783 19.51 123.285C17.897 123.586 16.522 124.331 15.084 125.088Z" fill="black"/>
<path d="M30.55 101.645C30.704 99.35 30.992 97.447 31.686 95.25C31.51 99.806 31.022 103.251 33.5 107.235C40.532 118.538 46.874 129.543 56.006 139.424C62.073 145.99 69.322 151.537 75.493 158.037C73.668 162.643 71.372 167.509 73.299 172.489C75.259 177.554 81.144 182.459 86.137 184.362L89.615 185.5L89.5 187.017L87 188.877C81.039 187.66 76.934 185.794 71.715 182.764L71.32 183.863C68.081 182.887 67.925 182.983 64.769 184.248L60.807 184.407C55.684 185.56 52.028 186.375 46.926 184.734C45.546 183.632 43.917 182.431 42.852 181.005C38.838 175.631 40.304 169.157 41.319 163.077C40.881 161.716 40.247 160.712 39.516 159.491L35.509 155.12C30.091 153.924 23.368 155.315 18.263 153.332C15.855 152.397 12.726 149.228 11.882 146.754C10.645 143.132 10.948 139.328 12.841 136.018C14.553 133.021 17.199 129.701 20.599 128.759C24.226 126.725 27.038 124.412 30.112 121.649L30.55 101.645ZM46.926 184.734C52.028 186.375 55.684 185.56 60.807 184.407L64.769 184.248C67.925 182.983 68.081 182.887 71.32 183.863L71.715 182.764C69.011 180.375 67.055 178.585 63.5 177.536C57.207 178.544 53.7 183.841 46.926 184.734Z" fill="#A962DB" fill-opacity="0.988235"/>
<path d="M46.926 184.734C53.7 183.841 57.207 178.544 63.5 177.536C67.055 178.585 69.011 180.375 71.715 182.764L71.32 183.863C68.081 182.887 67.925 182.983 64.769 184.248L60.807 184.407C55.684 185.56 52.028 186.375 46.926 184.734Z" fill="#7733CF" fill-opacity="0.984314"/>
<path d="M35.509 155.12C30.091 153.924 23.368 155.315 18.263 153.332C15.855 152.397 12.726 149.228 11.882 146.754C10.645 143.132 10.948 139.328 12.841 136.018C14.553 133.021 17.199 129.701 20.599 128.759C16.575 135.088 14.358 138.779 15.223 146.5C17.839 149.383 21.203 150.94 25.205 151.228C31.716 151.697 36.543 147.507 44 148.867C46.301 151.228 46.137 151.5 46.5 154.618L41.319 163.077C40.881 161.716 40.247 160.712 39.516 159.491L35.509 155.12Z" fill="#7733CF"/>
<path d="M115.593 115.806C115.921 123.614 112.149 130.494 111.841 138.04L112.713 137.885C112.406 146.669 116.249 154.22 117.148 162.738C117.377 164.909 118.069 165.743 119.26 167.494C120.062 168.674 120.43 169.812 120.923 171.139C122.298 174.841 124.758 177.328 126.885 180.559C136.382 194.99 147.05 206.361 163.137 213.381C179.856 220.676 200.346 224.228 218.349 220.344C223.898 219.147 229.478 217.011 234.878 215.229C236.699 213.511 238.095 210.53 239.444 208.383L254.476 193.696C251.194 200.029 245.647 207.402 243.509 214.087L243.503 215.074C243.456 217.818 243.463 219.285 241.797 221.5C242.305 222.271 243.953 224.216 244.104 225C244.417 226.621 243.503 227.213 244.483 228.801C248.35 235.064 247.341 240.423 247.897 247.261C243.89 255.699 238.099 262.08 229 265.103C225.984 266.105 222.906 266.27 219.763 266.081L215.088 265.585C211.975 269.782 212.638 271.474 207.869 274.442C204.452 276.321 202.118 279.336 198.236 280.929C194.861 282.315 189.313 282.763 185.981 281.132C180.299 278.351 177.791 273.609 175.794 267.89L177.458 258.825L173.986 254.557L155 251.187L154.035 249.472L151.51 248.645L149.263 247.909C135.159 243.083 119.625 231.448 112.964 217.975L108.411 221.029C104.393 219.509 99.439 220.386 95.14 220.191L94.749 219.02L94.527 216.86L98.832 214.902L96.452 213.456C92.5 211.028 91.208 208.743 89.182 204.751C87.127 202.302 88.894 200.429 86.091 198.131L83.927 195.058C83.132 190.853 74.593 187.825 71.32 183.863L71.715 182.764C76.934 185.794 81.039 187.66 87 188.877L89.5 187.017L89.615 185.5L86.137 184.362C81.144 182.459 75.259 177.554 73.299 172.489C71.372 167.509 73.668 162.643 75.493 158.037C80.547 151.403 86.097 147.978 94.111 145.897C95.013 145.663 97.951 145.243 98.576 144.816C99.728 144.028 102.266 138.081 103.096 136.554L115.593 115.806ZM239.444 208.383C238.095 210.53 236.699 213.511 234.878 215.229C232.516 219.025 229.496 222.952 229.028 227.5C229.85 229.105 230.016 230.19 231.677 231.021C234.683 232.526 236.472 233.364 238.055 236.5C238.497 240.206 237.632 243.357 235.446 246.425C232.479 250.592 225.305 253.999 220.367 254.453C215.459 254.904 212.086 253.538 208.524 250.335L207 248.912C203.793 248.665 203.903 248.754 201.5 250.555C200.99 253.937 201.031 255.15 203.216 258.002L205.261 260.5C205.405 264.048 205.25 267.045 202.831 269.87C200.291 272.836 196.552 275.126 192.575 275.049C190.044 275.001 187.326 274.692 185.5 272.775C183.816 271.006 183.043 268.404 183.058 266C183.093 260.583 185.622 256.132 182.5 250.979C177.76 248.303 171.094 250.671 165.717 250.781C161.871 250.859 157.831 250.073 154.035 249.472L155 251.187L173.986 254.557L177.458 258.825L175.794 267.89C177.791 273.609 180.299 278.351 185.981 281.132C189.313 282.763 194.861 282.315 198.236 280.929C202.118 279.336 204.452 276.321 207.869 274.442C212.638 271.474 211.975 269.782 215.088 265.585L219.763 266.081C222.906 266.27 225.984 266.105 229 265.103C238.099 262.08 243.89 255.699 247.897 247.261C247.341 240.423 248.35 235.064 244.483 228.801C243.503 227.213 244.417 226.621 244.104 225C243.953 224.216 242.305 222.271 241.797 221.5C243.463 219.285 243.456 217.818 243.503 215.074L243.509 214.087C245.647 207.402 251.194 200.029 254.476 193.696L239.444 208.383ZM98.832 214.902L94.527 216.86L94.749 219.02L95.14 220.191C99.439 220.386 104.393 219.509 108.411 221.029L112.964 217.975C111.764 215.389 110.393 214.556 108 213.088C104.344 212.971 102.016 212.981 98.832 214.902Z" fill="#A962DB" fill-opacity="0.988235"/>
<path d="M98.832 214.902C102.016 212.981 104.344 212.971 108 213.088C110.393 214.556 111.764 215.389 112.964 217.975L108.411 221.029C104.393 219.509 99.439 220.386 95.14 220.191L94.749 219.02L94.527 216.86L98.832 214.902Z" fill="#7733CF" fill-opacity="0.980392"/>
<path d="M115.593 115.806C115.921 123.614 112.149 130.494 111.841 138.04L104.727 152.209C97.647 154.052 87.143 155.51 83.233 162.5C81.269 166.011 81.292 167.309 82.5 170.839C84.314 172.519 86.692 175.154 89.025 176.013C95.635 178.446 100.986 176.346 105.691 183C105.244 185.82 105.03 186.769 102.5 188.314L100.311 189.376C96.753 191.09 91.916 194.618 90.444 198.428C89.682 200.401 89.442 202.663 89.182 204.751C87.127 202.302 88.894 200.429 86.091 198.131L83.927 195.058C83.132 190.853 74.593 187.825 71.32 183.863L71.715 182.764C76.934 185.794 81.039 187.66 87 188.877L89.5 187.017L89.615 185.5L86.137 184.362C81.144 182.459 75.259 177.554 73.299 172.489C71.372 167.509 73.668 162.643 75.493 158.037C80.547 151.403 86.097 147.978 94.111 145.897C95.013 145.663 97.951 145.243 98.576 144.816C99.728 144.028 102.266 138.081 103.096 136.554L115.593 115.806Z" fill="#7733CF"/>
<path d="M239.444 208.383L254.476 193.696C251.194 200.029 245.647 207.402 243.509 214.087L243.503 215.074C243.456 217.818 243.463 219.285 241.797 221.5C242.305 222.271 243.953 224.216 244.104 225C244.417 226.621 243.503 227.213 244.483 228.801C248.35 235.064 247.341 240.423 247.897 247.261C243.89 255.699 238.099 262.08 229 265.103C225.984 266.105 222.906 266.27 219.763 266.081L215.088 265.585C211.975 269.782 212.638 271.474 207.869 274.442C204.452 276.321 202.118 279.336 198.236 280.929C194.861 282.315 189.313 282.763 185.981 281.132C180.299 278.351 177.791 273.609 175.794 267.89L177.458 258.825L173.986 254.557L155 251.187L154.035 249.472C157.831 250.073 161.871 250.859 165.717 250.781C171.094 250.671 177.76 248.303 182.5 250.979C185.622 256.132 183.093 260.583 183.058 266C183.043 268.404 183.816 271.006 185.5 272.775C187.326 274.692 190.044 275.001 192.575 275.049C196.552 275.126 200.291 272.836 202.831 269.87C205.25 267.045 205.405 264.048 205.261 260.5L203.216 258.002C201.031 255.15 200.99 253.937 201.5 250.555C203.903 248.754 203.793 248.665 207 248.912L208.524 250.335C212.086 253.538 215.459 254.904 220.367 254.453C225.305 253.999 232.479 250.592 235.446 246.425C237.632 243.357 238.497 240.206 238.055 236.5C236.472 233.364 234.683 232.526 231.677 231.021C230.016 230.19 229.85 229.105 229.028 227.5C229.496 222.952 232.516 219.025 234.878 215.229C236.699 213.511 238.095 210.53 239.444 208.383ZM177.458 258.825L175.794 267.89C177.791 273.609 180.299 278.351 185.981 281.132C189.313 282.763 194.861 282.315 198.236 280.929C202.118 279.336 204.452 276.321 207.869 274.442L209.185 271.125L209.655 269.838C211.216 265.659 210.34 262.766 209.318 258.601C208.444 263.359 209.17 267.061 206.314 271.5C204.55 274.24 201.376 276.519 198.214 277.194L197 277.416C193.183 278.136 189.484 278.788 185.775 277.126C178.984 274.084 179.76 265.579 177.767 259.714L177.458 258.825Z" fill="#7733CF"/>
<path d="M177.458 258.825L177.767 259.714C179.76 265.579 178.984 274.084 185.775 277.126C189.484 278.788 193.183 278.136 197 277.416L198.214 277.194C201.376 276.519 204.55 274.24 206.314 271.5C209.17 267.061 208.444 263.359 209.318 258.601C210.34 262.766 211.216 265.659 209.655 269.838L209.185 271.125L207.869 274.442C204.452 276.321 202.118 279.336 198.236 280.929C194.861 282.315 189.313 282.763 185.981 281.132C180.299 278.351 177.791 273.609 175.794 267.89L177.458 258.825Z" fill="#7733CF" fill-opacity="0.964706"/>
<path d="M209.318 258.601L213.5 256.731L220.726 257.781C225.774 258.204 230.624 255.67 234.3 252.315C237.894 249.036 241.096 243.809 241.193 238.854C241.258 235.549 240.609 232.614 238.336 230.158L236.493 228.062L235.573 227C237.196 221.588 239.809 218.295 243.509 214.087L243.503 215.074C243.456 217.818 243.463 219.285 241.797 221.5C242.305 222.271 243.953 224.216 244.104 225C244.417 226.621 243.503 227.213 244.483 228.801C248.35 235.064 247.341 240.423 247.897 247.261C243.89 255.699 238.099 262.08 229 265.103C225.984 266.105 222.906 266.27 219.763 266.081L215.088 265.585C211.975 269.782 212.638 271.474 207.869 274.442L209.185 271.125L209.655 269.838C211.216 265.659 210.34 262.766 209.318 258.601Z" fill="black"/>
<path d="M141.858 33.766C146.418 26.806 150.83 19.916 157.593 14.864C162.056 11.531 166.97 8.78801 172.713 9.64001C173.066 12.206 173.326 13.467 175.031 15.428C175.86 16.382 176.102 17.324 176.51 18.5L176.793 19.265C178.265 23.427 178.743 28.692 178.349 33.072L174.992 25.434L175.083 26.191C176.644 38.251 180.171 48.298 179.587 60.761C179.455 63.583 179.501 66.845 178.188 69.385C174.23 67.054 171.807 66.824 167.34 66.9C149.236 74.157 134.256 89.471 122.957 104.98C120.751 108.007 117.406 111.563 115.843 114.873L115.593 115.806L103.096 136.554C102.266 138.081 99.728 144.028 98.576 144.816C97.951 145.243 95.013 145.663 94.111 145.897C86.097 147.978 80.547 151.403 75.493 158.037C69.322 151.537 62.073 145.99 56.006 139.424C46.874 129.543 40.532 118.538 33.5 107.235C31.022 103.251 31.51 99.806 31.686 95.25C30.992 97.447 30.704 99.35 30.55 101.645C28.9 94.325 27.274 87.179 26.715 79.672C28.666 66.759 32.028 54.951 35.903 42.5C38.136 35.329 40.764 26.78 44.927 20.475C47.357 16.792 51.227 14.814 53.71 11.392L54.361 10.46C58.95 9.95598 62.402 11.991 66.117 14.466C72.022 21.18 74.703 27.215 78.192 35.332L80.316 40.811C82.144 42.836 82.909 44.569 85.832 44.753C88.113 44.897 90.655 44.048 92.856 43.49L103.225 40.904C113.35 39.117 121.713 38.994 131.938 40.478C133.352 41.75 135.192 41.683 137 41.879C140.655 39.712 140.611 38.562 141.955 34.705L141.858 33.766ZM54.361 10.46L53.71 11.392C51.227 14.814 47.357 16.792 44.927 20.475C40.764 26.78 38.136 35.329 35.903 42.5C32.028 54.951 28.666 66.759 26.715 79.672C27.274 87.179 28.9 94.325 30.55 101.645C30.704 99.35 30.992 97.447 31.686 95.25C33.083 74.183 36.511 55.352 45.467 36.08C48.334 29.913 51.141 23.804 56 18.946C58.819 18.142 59.66 18.516 62.441 19.194C64.912 20.876 67.255 22.468 69.081 24.881C71.896 28.603 73.792 33.234 78.192 35.332C74.703 27.215 72.022 21.18 66.117 14.466C62.402 11.991 58.95 9.95598 54.361 10.46ZM141.955 34.705C140.611 38.562 140.655 39.712 137 41.879C135.192 41.683 133.352 41.75 131.938 40.478C121.713 38.994 113.35 39.117 103.225 40.904L92.856 43.49L90.041 47.28C99.29 44.234 108.011 45.539 117.547 45.526C123.035 45.519 128.277 44.875 133.5 46.51L136.852 46.735L138.966 48.086L139.558 47.828C139.946 46.011 140.192 44.963 141.483 43.569L142.5 42.51L141.955 34.705ZM62.441 19.194C65.054 24.002 68.152 28.912 70.292 33.944C72.252 38.552 73.078 44.476 75.644 48.708C76.819 50.646 78.449 51.358 80.5 52.081L82.491 51.814C84.772 49.709 87.267 48.593 90.041 47.28L92.856 43.49C90.655 44.048 88.113 44.897 85.832 44.753C82.909 44.569 82.144 42.836 80.316 40.811L78.192 35.332C73.792 33.234 71.896 28.603 69.081 24.881C67.255 22.468 64.912 20.876 62.441 19.194Z" fill="#C382DD"/>
<path d="M90.041 47.28C99.29 44.234 108.011 45.539 117.547 45.526C123.035 45.519 128.277 44.875 133.5 46.51L136.852 46.735L138.966 48.086C135.465 49.766 132.089 48.3 128.426 47.883C123.384 47.309 118.208 46.97 113.134 47.212C102.772 47.705 92.732 50.537 82.491 51.814C84.772 49.709 87.267 48.593 90.041 47.28Z" fill="#A962DB"/>
<path d="M62.441 19.194C64.912 20.876 67.255 22.468 69.081 24.881C71.896 28.603 73.792 33.234 78.192 35.332L80.316 40.811C82.144 42.836 82.909 44.569 85.832 44.753C88.113 44.897 90.655 44.048 92.856 43.49L90.041 47.28C87.267 48.593 84.772 49.709 82.491 51.814L80.5 52.081C78.449 51.358 76.819 50.646 75.644 48.708C73.078 44.476 72.252 38.552 70.292 33.944C68.152 28.912 65.054 24.002 62.441 19.194Z" fill="url(#paint1_linear_1_253)"/>
<path d="M141.955 34.705L142.5 42.51L141.483 43.569C140.192 44.963 139.946 46.011 139.558 47.828L138.966 48.086L136.852 46.735L133.5 46.51C128.277 44.875 123.035 45.519 117.547 45.526C108.011 45.539 99.29 44.234 90.041 47.28L92.856 43.49L103.225 40.904C113.35 39.117 121.713 38.994 131.938 40.478C133.352 41.75 135.192 41.683 137 41.879C140.655 39.712 140.611 38.562 141.955 34.705Z" fill="#A962DB" fill-opacity="0.968627"/>
<path d="M141.858 33.766C146.418 26.806 150.83 19.916 157.593 14.864C162.056 11.531 166.97 8.78801 172.713 9.64001C173.066 12.206 173.326 13.467 175.031 15.428C175.86 16.382 176.102 17.324 176.51 18.5L176.793 19.265C178.265 23.427 178.743 28.692 178.349 33.072L174.992 25.434C173.4 21.107 172.901 19.578 169.268 16.5C164.84 16.398 163.167 17.388 160.023 20.356C155.152 24.955 152.017 30.197 148.734 35.923C146.258 40.242 144.238 45.54 139.558 47.828C139.946 46.011 140.192 44.963 141.483 43.569L142.5 42.51L141.955 34.705L141.858 33.766Z" fill="#A962DB"/>
<path d="M75.826 92.582C78.357 92.809 81.368 92.564 83.354 94.297C85.699 96.345 86.979 101.178 87.312 104.171C88.064 110.947 87.256 115.679 83.03 121.088C80.159 121.068 78.384 120.626 75.753 119.5C73.677 117.352 72.236 115.392 71.538 112.43C69.823 105.16 71.854 98.656 75.826 92.582Z" fill="black"/>
<path d="M167.34 66.9C166.02 64.345 165.914 61.109 164.516 58.501C163.065 55.793 159.992 53.031 157.903 50.747C158.584 45.631 164.031 26.698 167.675 23.615C171.357 23.123 171.708 23.572 174.992 25.434L175.083 26.191C176.644 38.251 180.171 48.298 179.587 60.761C179.455 63.583 179.501 66.845 178.188 69.385C174.23 67.054 171.807 66.824 167.34 66.9Z" fill="#DFBEF5"/>
<path d="M54.361 10.46C58.95 9.95601 62.402 11.991 66.117 14.466C72.022 21.18 74.703 27.215 78.192 35.332C73.792 33.234 71.896 28.603 69.081 24.881C67.255 22.468 64.912 20.876 62.441 19.194C59.66 18.516 58.819 18.142 56 18.946C51.141 23.804 48.334 29.913 45.467 36.08C36.511 55.352 33.083 74.183 31.686 95.25C30.992 97.447 30.704 99.35 30.55 101.645C28.9 94.325 27.274 87.179 26.715 79.672C28.666 66.759 32.028 54.951 35.903 42.5C38.136 35.329 40.764 26.78 44.927 20.475C47.357 16.792 51.227 14.814 53.71 11.392L54.361 10.46Z" fill="#A962DB" fill-opacity="0.964706"/>
<path d="M167.34 66.9C171.807 66.824 174.23 67.054 178.188 69.385L178.542 70.224C182.938 80.132 183.674 87.994 182.803 98.804C182.638 100.844 181.792 104.883 182.329 106.754C182.442 107.145 184.498 108.8 184.921 109.2L187.264 106L187.648 106.766C188.991 109.15 190.612 109.882 192.992 110.939L193.436 111.774L194.5 116.655C198.376 118.445 202.226 119.654 204.374 123.562C210.778 126.733 217.119 129.663 222.387 134.616C224.621 135.218 226.43 135.828 228.764 135.355C236.837 132.567 243.1 125.581 250.97 122.094C255.915 119.902 259.191 119.066 264.615 119.317C267.991 125.597 266.889 132.268 265.786 139.069C268.055 141.922 269.715 143.299 269.226 147.16C268.912 149.642 268.623 151.691 268.759 154.205C266.493 166.796 261.496 183.008 254.476 193.696L239.444 208.383C238.095 210.53 236.699 213.511 234.878 215.229C229.478 217.011 223.898 219.147 218.349 220.344C200.346 224.228 179.856 220.676 163.137 213.381C147.05 206.361 136.382 194.99 126.885 180.559C124.758 177.328 122.298 174.841 120.923 171.139C120.43 169.812 120.062 168.674 119.26 167.494C118.069 165.743 117.377 164.909 117.148 162.738C116.249 154.22 112.406 146.669 112.713 137.885L111.841 138.04C112.149 130.494 115.921 123.614 115.593 115.806L115.843 114.873C117.406 111.563 120.751 108.007 122.957 104.98C134.256 89.471 149.236 74.157 167.34 66.9ZM254.178 123.129C249.942 125.003 246.063 126.829 242.254 129.5L242.5 130.796C248.253 133.764 254.394 126.708 257.731 136.674C259.506 141.975 257.554 150.594 256.532 156.016L257.552 157.5C260.86 150.341 262.853 141.287 263.953 133.5C264.351 130.683 265.474 127.695 263.738 125.111C262.251 122.896 260.591 122.967 258.189 122.85C256.775 122.781 255.568 122.912 254.178 123.129Z" fill="#C382DD"/>
<path d="M254.178 123.129C255.568 122.912 256.775 122.781 258.189 122.85C260.591 122.967 262.251 122.896 263.738 125.111C265.474 127.695 264.351 130.683 263.953 133.5C262.853 141.287 260.86 150.341 257.552 157.5L256.532 156.016C257.554 150.594 259.506 141.975 257.731 136.674C254.394 126.708 248.253 133.764 242.5 130.796L242.254 129.5C246.063 126.829 249.942 125.003 254.178 123.129Z" fill="#DFBEF5" fill-opacity="0.984314"/>
<path d="M207.144 171.893C209.937 172.11 212.775 171.815 214.759 174.21C216.823 176.702 216.665 179.493 216.154 182.5C215.117 188.61 210.689 192.966 205.925 196.448C203.035 196.215 201.267 195.75 198.798 194.213C197.331 192.244 196.379 190.628 196.497 188.091C196.834 180.815 202.001 176.203 207.144 171.893Z" fill="black"/>
<path d="M147.918 144.75C150.998 144.978 154.441 145.772 156.485 148.315C158.18 150.423 158.429 152.871 157.815 155.5C156.245 162.219 151.692 167.233 146.144 170.943C144.209 170.997 142.414 170.76 140.5 170.531C138.401 168.337 136.982 167.261 136.805 164C136.396 156.468 143.256 149.802 147.918 144.75Z" fill="black"/>
<path d="M265.786 139.069C268.055 141.922 269.715 143.299 269.226 147.16C268.912 149.642 268.623 151.691 268.759 154.205C266.493 166.796 261.496 183.008 254.476 193.696L239.444 208.383C251.008 187.055 262.476 163.281 265.786 139.069Z" fill="#A962DB"/>
<path d="M222.387 134.616C221.724 138.159 221.147 141.273 219.554 144.551C213.533 145.432 207.389 141.155 201.5 139.557C196.074 138.085 190.118 137.679 184.9 135.5C182.192 134.369 181.112 132.636 180.02 130.022L177.956 125.378C176.473 122.108 174.754 119.695 176.078 116.172L180.315 115.229C187.941 118.903 196.299 121.079 204.374 123.562C210.778 126.733 217.119 129.663 222.387 134.616Z" fill="#DFBEF5"/>
<path d="M167.34 66.9C171.807 66.824 174.23 67.054 178.188 69.385L178.542 70.224C182.938 80.132 183.674 87.994 182.803 98.804C182.638 100.844 181.792 104.883 182.329 106.754C182.442 107.145 184.498 108.8 184.921 109.2L187.264 106L187.648 106.766C188.991 109.15 190.612 109.882 192.992 110.939L193.436 111.774L194.5 116.655C198.376 118.445 202.226 119.654 204.374 123.562C196.299 121.079 187.941 118.903 180.315 115.229C176.513 114.325 175.834 114.52 173.5 111.478C170.938 100.255 177.395 88.318 172.257 76.764C170.519 75.755 170.512 75.623 168.518 76.144C161.957 77.855 155.724 83.145 150.732 87.529C135.359 101.026 123.993 116.653 114.288 134.685L112.713 137.885L111.841 138.04C112.149 130.494 115.921 123.614 115.593 115.806L115.843 114.873C117.406 111.563 120.751 108.007 122.957 104.98C134.256 89.471 149.236 74.157 167.34 66.9Z" fill="#A962DB"/>
<defs>
<linearGradient id="paint0_linear_1_253" x1="190.157" y1="61.1233" x2="181.218" y2="62.3962" gradientUnits="userSpaceOnUse">
<stop stop-color="#9E59C6" stop-opacity="0.960784"/>
<stop offset="1" stop-color="#A15BC8"/>
</linearGradient>
<linearGradient id="paint1_linear_1_253" x1="82.4417" y1="36.2027" x2="73.8223" y2="39.8416" gradientUnits="userSpaceOnUse">
<stop stop-color="#9E59C5" stop-opacity="0.968627"/>
<stop offset="1" stop-color="#9F5BC6"/>
</linearGradient>
</defs>
</svg>
