<svg width="274" height="283" viewBox="0 0 274 283" fill="none" xmlns="http://www.w3.org/2000/svg">
<path d="M253.98 106.285L256.53 104.755C258.76 101.75 258.77 98.115 259.18 94.5C261.26 92.214 261.51 91.946 264.5 91.248L267.5 93.468L266.87 96.148L267.87 111.877L265.92 114.137L267 110.5C265.93 108.02 265.88 108.018 263.5 106.724C259.43 107.387 258.45 108.762 255.5 111.475C253.83 109.218 252.3 108.888 249.66 108.153L253.07 107.585L253.98 106.285Z" fill="black"/>
<path d="M141.92 51.162C145.26 45.703 141.71 34.47 141.35 28C140.99 21.53 142.27 14.798 145.48 9.134C147.65 5.285 151.18 1.86401 155.5 0.656006C158.46 2.01901 158.27 2.188 159.53 5C158.31 8.976 157.28 13.309 157.71 17.5C158.03 20.638 159.26 23.86 159.37 26.974C159.42 28.367 159.14 29.631 158.7 30.939L156.18 30.846C156.3 30.263 156.49 29.589 156.41 28.989C156.08 26.492 154.73 25.745 153 24.24C148.78 24.215 148.08 25.364 144.92 27.916C143.2 35.092 147.01 45.887 141.92 51.162Z" fill="url(#paint0_linear_1_256)"/>
<path d="M266.87 96.148C272.76 102.715 273.65 121.053 273.2 129.459C272.72 138.44 269.22 148.11 262.36 154.169L256.52 158.333C256.22 166.628 256.77 181.187 250.69 187.09L251.56 183.5C250.57 180.913 249.08 180.231 247.05 178.5C247.52 174.736 250.55 162.368 252.92 160.033C255.73 157.269 257.54 153.905 260.12 151C261.55 149.397 263.58 148.174 264.73 146.357C269.13 139.38 267.92 121.885 265.92 114.137L267.87 111.877L266.87 96.148Z" fill="black"/>
<path d="M19.5799 172.142C19.5399 171.153 19.15 169.972 18.93 169C13.91 165.326 8.72991 161.006 5.31991 155.741C0.399914 148.15 -0.020081 138.116 1.94992 129.5C5.53992 113.792 17.07 94.607 31 85.9C34.19 86.234 34.14 86.358 36.26 88.5C37.38 92.367 34.5299 97.848 33.8499 102.035C33.2199 105.927 33.6 109.384 32.27 113.228L31.9799 114.017C31.1799 109.021 31.69 102.318 28.5 98.326C25.12 97.793 23.4899 98.181 20.7099 100.364C17.6899 102.747 13.9399 106.278 12.8299 110C9.50992 121.122 7.79991 130.23 8.81991 141.983C10.2799 144.244 10.28 144.056 9.74997 146.686C12.04 154.96 15.3 161.393 21.49 167.5C20.93 169.128 20.4499 170.648 19.5799 172.142Z" fill="black"/>
<path d="M228.85 44.882C235.69 47.366 241.31 57.72 244.16 64C249.31 75.358 254.71 93.891 253.98 106.285L253.07 107.585L249.66 108.153C247.64 106.248 245.32 105.123 242.88 103.836C244.1 100.881 243.51 98.144 242.94 95.103C241.26 86.085 237.63 67.142 230 61.889L230.08 59.841C228.32 57.009 226.64 55.142 224.03 53.074C224.76 52.125 225.34 51.544 226.31 50.819C227.42 49.996 228.36 49.164 229.36 48.212L228.85 44.882Z" fill="black"/>
<path d="M156.18 30.846L158.7 30.939L159.22 31.405C162.09 34.116 163.44 37.305 165.5 40.567C170.94 49.174 174.93 54.944 175.07 65.54C175.13 69.341 175 73.003 174.32 76.751L174.68 77.231C183.83 63.42 197.71 42.663 215 39.109C218.78 38.332 222 38.858 225.5 40.438L226.03 41.853L228.56 43.208L228.85 44.882L229.36 48.212C228.36 49.164 227.42 49.996 226.31 50.819C225.34 51.544 224.76 52.125 224.03 53.074C222.69 50.455 221.49 50.269 218.93 48.934C214.71 49.32 211.74 51.126 208.21 53.241C202.08 56.915 195.92 64.306 191.73 70.046C188.96 73.849 186.62 78.685 182.43 80.977C181.27 81.293 181.78 81.059 180.63 81.867L179.75 82.505C178.9 81.8 178.46 81.35 177.92 80.352C177.77 80.077 177.77 79.671 177.5 79.51C177.34 79.416 174.67 80.531 174.52 80.438C173.24 79.66 172.39 76.703 171.21 75.72C170.4 75.054 167.89 74.479 166.81 74.076C168.55 70.257 170.02 62.729 169.27 58.642C167.88 50.973 160.5 44.331 158.54 36.71C157.95 34.414 157.39 32.875 156.18 30.846Z" fill="black"/>
<path d="M226.03 41.853L228.56 43.208L228.85 44.882L229.36 48.212C228.36 49.164 227.42 49.996 226.31 50.819C225.34 51.544 224.76 52.125 224.03 53.074C222.69 50.455 221.49 50.269 218.93 48.934C219.94 47.373 220.45 45.931 220.81 44.103L221.01 43.005C222.82 42.083 224.04 41.985 226.03 41.853Z" fill="black"/>
<path d="M79.9 257.029C84.12 256.553 88.67 258.584 92.5 256.627L93.2 257.047C97.37 259.507 106 265.086 110.65 263.978C128.39 267.801 149.78 277.168 167.52 268.913C175.56 270.162 179.45 267.31 186.01 263.084L187.7 263.71L188.49 265.5L191.74 265.892L191.5 266.811C185.59 273.275 170.66 279.811 162.25 281.299C134.16 286.27 102.55 272.205 79.9 257.029Z" fill="black"/>
<path d="M88.72 29.869L94.61 30.254C101.96 31.321 107.31 35.993 111.71 41.799C116.71 48.398 119.31 57.065 121.84 64.86C122.63 67.311 124 70.299 123.87 72.85L122.86 75.211L122.23 75.41C120.4 76.007 118.87 76.665 117.2 77.626L114.49 76.843L114.04 75.18L112.46 74.692C109.95 72.053 108.69 66.1 107.77 62.559L107.51 61.5L105.36 61.959C105.85 58.932 105.67 58.609 104.5 55.943C100.95 53.708 99.96 54.272 95.96 54.835C94.68 51.605 94.41 51.356 91.5 49.442C87.21 50.618 84.76 54.703 80.95 56.956C79.54 57.394 75.28 58.078 74.33 58.813C69.49 62.577 71.6101 67.908 64.6801 69.985C67.0601 66.909 68.54 62.888 70.49 59.5C72.83 55.415 75.7 52.638 75.98 47.887C80.74 45.395 82.6 41.259 87.89 38.847L85.86 35.5C86.47 33.154 87.26 31.792 88.72 29.869ZM87.89 38.847C82.6 41.259 80.74 45.395 75.98 47.887C75.7 52.638 72.83 55.415 70.49 59.5C68.54 62.888 67.0601 66.909 64.6801 69.985C71.6101 67.908 69.49 62.577 74.33 58.813C75.28 58.078 79.54 57.394 80.95 56.956C84.76 54.703 87.21 50.618 91.5 49.442C94.41 51.356 94.68 51.605 95.96 54.835C99.96 54.272 100.95 53.708 104.5 55.943C105.67 58.609 105.85 58.932 105.36 61.959L107.51 61.5L107.77 62.559C108.69 66.1 109.95 72.053 112.46 74.692L114.04 75.18C114.07 69.301 110.23 60.655 107.93 55.173C105.65 49.761 101.37 43.315 95.8 40.993C93.69 39.345 90.5 39.241 87.89 38.847Z" fill="black"/>
<path d="M88.72 29.869L94.61 30.254L97.59 34.5L95.8 40.993C93.69 39.345 90.5 39.241 87.89 38.847L85.86 35.5C86.47 33.154 87.26 31.792 88.72 29.869Z" fill="black"/>
<path d="M87.89 38.847C90.5 39.241 93.69 39.345 95.8 40.993C101.37 43.315 105.65 49.761 107.93 55.173C110.23 60.655 114.07 69.301 114.04 75.18L112.46 74.692C109.95 72.053 108.69 66.1 107.77 62.559L107.51 61.5L105.36 61.959C105.85 58.932 105.67 58.609 104.5 55.943C100.95 53.708 99.96 54.272 95.96 54.835C94.68 51.605 94.41 51.356 91.5 49.442C87.21 50.618 84.76 54.703 80.95 56.956C79.54 57.394 75.28 58.078 74.33 58.813C69.49 62.577 71.6101 67.908 64.6801 69.985C67.0601 66.909 68.54 62.888 70.49 59.5C72.83 55.415 75.7 52.638 75.98 47.887C80.74 45.395 82.6 41.259 87.89 38.847Z" fill="#FE948B" fill-opacity="0.964706"/>
<path d="M9.75 146.686C12.65 149.875 15.3301 153.539 18.4301 156.5C23.0401 160.898 27.86 163.267 29.3 169.955C34.23 192.72 51.69 216.667 67.7 232.893C71.92 237.169 76.5401 242.148 81.6801 245.255C86.0501 247.897 89.16 250.451 92.87 254.009C97.35 256.413 107.68 260.392 110.65 263.978C106 265.086 97.37 259.507 93.2 257.047L92.5 256.627C88.67 258.584 84.12 256.553 79.9 257.029L50.22 227.681C41.01 218.857 31.64 202.041 26.75 190.253C24.36 184.499 23.03 178.305 19.99 172.844L19.58 172.142C20.45 170.648 20.93 169.128 21.49 167.5C15.3 161.393 12.04 154.96 9.75 146.686Z" fill="black"/>
<path d="M242.88 103.836C245.32 105.123 247.64 106.248 249.66 108.153C252.3 108.888 253.83 109.218 255.5 111.475C258.45 108.762 259.43 107.387 263.5 106.724C265.88 108.018 265.93 108.02 267 110.5L265.92 114.137C267.92 121.885 269.13 139.38 264.73 146.357C263.58 148.174 261.55 149.397 260.12 151C257.54 153.905 255.73 157.269 252.92 160.033C250.55 162.368 247.52 174.736 247.05 178.5C249.08 180.231 250.57 180.913 251.56 183.5L250.69 187.09C251.88 192.532 248.63 195.802 246.24 200.5C243.02 206.828 240.04 212.754 236.2 218.755C226.74 233.542 214.9 248.262 201.23 259.302C198.32 261.652 195.27 264.601 191.74 265.892L188.49 265.5L187.7 263.71L186.01 263.084C179.45 267.31 175.56 270.162 167.52 268.913L171.12 267.54C175.36 265.718 183.15 262.267 184.86 258.052C198.11 254.602 211.36 237.251 219.41 226.376C227.58 215.339 236.02 202.96 240.96 190.041C242.53 185.925 244.06 183.203 243.41 178.834C249.94 170.247 245.32 156.01 255.18 147.678L258.24 144.913C265.27 136.823 263.99 122.766 263.17 112.976C259.99 114.746 256.99 116.473 253.5 117.558C249.81 116.649 248 116.632 245.38 113.725C245.11 109.962 244.48 107.26 242.88 103.836Z" fill="black"/>
<path d="M36.8101 124.902C41.1501 120.113 40.51 111.634 41.97 105.5C46.33 87.121 62.53 41.598 79.27 32.045C82.14 30.41 85.58 28.913 88.72 29.869C87.26 31.792 86.47 33.154 85.86 35.5L87.89 38.847C82.6 41.259 80.74 45.395 75.98 47.887C75.7 52.638 72.83 55.415 70.49 59.5C68.54 62.888 67.0601 66.909 64.6801 69.985C63.3101 77.245 58.4799 84.732 56.1899 92C51.6199 106.494 49.16 121.573 46.46 136.5C43.97 137.899 43.02 138.638 40.04 137.746C33.11 135.671 30.1301 130.056 26.5601 124.351C26.0101 123.484 25.48 122.818 24.74 122.107C24.84 120.204 24.82 118.38 24.61 116.481L23.5699 105.777C18.4199 113.521 13.84 121.322 11.48 130.434C10.46 134.373 10.7399 138.304 8.81995 141.983C7.79995 130.23 9.50996 121.122 12.83 110C13.94 106.278 17.69 102.747 20.71 100.364C23.49 98.181 25.12 97.793 28.5 98.326C31.69 102.318 31.18 109.021 31.98 114.017C34.57 117.392 35.8001 120.805 36.8101 124.902Z" fill="black"/>
<path d="M36.8101 124.902L44.77 131.333C49.02 106.577 54.33 80.785 67.7 59.109C70.16 55.121 72.27 50.852 75.98 47.887C75.7 52.638 72.83 55.415 70.49 59.5C68.54 62.888 67.0601 66.909 64.6801 69.985C63.3101 77.245 58.4799 84.732 56.1899 92C51.6199 106.494 49.16 121.573 46.46 136.5C43.97 137.899 43.02 138.638 40.04 137.746C33.11 135.671 30.1301 130.056 26.5601 124.351C26.0101 123.484 25.48 122.818 24.74 122.107C24.84 120.204 24.82 118.38 24.61 116.481L23.5699 105.777C18.4199 113.521 13.84 121.322 11.48 130.434C10.46 134.373 10.7399 138.304 8.81995 141.983C7.79995 130.23 9.50996 121.122 12.83 110C13.94 106.278 17.69 102.747 20.71 100.364C23.49 98.181 25.12 97.793 28.5 98.326C31.69 102.318 31.18 109.021 31.98 114.017C34.57 117.392 35.8001 120.805 36.8101 124.902Z" fill="black"/>
<path d="M144.92 27.916C148.08 25.364 148.78 24.215 153 24.24C154.73 25.745 156.08 26.492 156.41 28.989C156.49 29.589 156.3 30.263 156.18 30.846C157.39 32.875 157.95 34.414 158.54 36.71C160.5 44.331 167.88 50.973 169.27 58.642C170.02 62.729 168.55 70.257 166.81 74.076C167.89 74.479 170.4 75.054 171.21 75.72C172.39 76.703 173.24 79.66 174.52 80.438C174.67 80.531 177.34 79.416 177.5 79.51C177.77 79.671 177.77 80.077 177.92 80.352C178.46 81.35 178.9 81.8 179.75 82.505L180.63 81.867C181.78 81.059 181.27 81.293 182.43 80.977C182.14 84.631 181.51 84.684 179.01 87.184C175.92 88.244 173.59 88.207 170.62 86.695C168.39 85.553 167.13 85.154 164.59 85.071L165.29 87.5C163.71 88.938 162.11 90.287 160.75 91.947C157.52 90.684 157.06 90.254 154.93 87.5C154.4 84.397 154.25 81.347 155.62 78.416C157.78 73.814 157.84 67.785 158.37 62.722C154.77 66.97 151.68 72.757 148.41 77.391C145.21 81.92 136.38 89.091 130.82 89.772L128.11 90.159L115 93.086C111.12 92.482 109.52 90.492 106.9 87.824C107.17 85.745 106.52 84.797 105.6 82.999C107.42 80.141 108.1 77.654 107.3 74.273C106.35 70.226 105.91 66.082 105.36 61.959L107.51 61.5L107.77 62.559C108.69 66.1 109.95 72.053 112.46 74.692L114.04 75.18L114.49 76.843L117.2 77.626C118.87 76.665 120.4 76.007 122.23 75.41L122.86 75.211L123.87 72.85L126.85 71.916C130.52 70.356 134.02 67.682 136.55 64.608C140.09 60.314 142.41 56.805 141.92 51.162C147.01 45.887 143.2 35.092 144.92 27.916ZM137.75 74.114C137.18 76.901 135.03 79.391 132.5 80.92C131.37 81.605 130.16 81.932 128.88 82.178C125.38 83.156 123.32 84.615 119.5 84.583C116.47 82.663 115.76 80.021 114.49 76.843L114.04 75.18L112.46 74.692C109.95 72.053 108.69 66.1 107.77 62.559L107.51 61.5L105.36 61.959C105.91 66.082 106.35 70.226 107.3 74.273C108.1 77.654 107.42 80.141 105.6 82.999C106.52 84.797 107.17 85.745 106.9 87.824C109.52 90.492 111.12 92.482 115 93.086L128.11 90.159L130.82 89.772C136.38 89.091 145.21 81.92 148.41 77.391C151.68 72.757 154.77 66.97 158.37 62.722C157.84 67.785 157.78 73.814 155.62 78.416C154.25 81.347 154.4 84.397 154.93 87.5C157.06 90.254 157.52 90.684 160.75 91.947C162.11 90.287 163.71 88.938 165.29 87.5L164.59 85.071L162.93 80.18L164.92 73.529C168.88 58.482 159.56 50.001 152.65 38.158L152.25 37.477C151.83 45.086 153.93 51.239 151 58.693C148.93 63.968 143.88 71.744 138.44 73.881L137.75 74.114ZM141.92 51.162C142.41 56.805 140.09 60.314 136.55 64.608C134.02 67.682 130.52 70.356 126.85 71.916L129.61 72.076C133.04 72.036 135.46 71.146 137.88 68.862C140.73 66.772 145.24 62.309 146.61 59.044C150.81 49.098 148.92 37.753 144.92 27.916C143.2 35.092 147.01 45.887 141.92 51.162Z" fill="black"/>
<path d="M141.92 51.162C147.01 45.887 143.2 35.092 144.92 27.916C148.92 37.753 150.81 49.098 146.61 59.044C145.24 62.309 140.73 66.772 137.88 68.862C135.46 71.146 133.04 72.036 129.61 72.076L126.85 71.916C130.52 70.356 134.02 67.682 136.55 64.608C140.09 60.314 142.41 56.805 141.92 51.162Z" fill="black"/>
<path d="M137.75 74.114L138.44 73.881C143.88 71.744 148.93 63.968 151 58.693C153.93 51.239 151.83 45.086 152.25 37.477L152.65 38.158C159.56 50.001 168.88 58.482 164.92 73.529L162.93 80.18L164.59 85.071L165.29 87.5C163.71 88.938 162.11 90.287 160.75 91.947C157.52 90.684 157.06 90.254 154.93 87.5C154.4 84.397 154.25 81.347 155.62 78.416C157.78 73.814 157.84 67.785 158.37 62.722C154.77 66.97 151.68 72.757 148.41 77.391C145.21 81.92 136.38 89.091 130.82 89.772L128.11 90.159L115 93.086C111.12 92.482 109.52 90.492 106.9 87.824C107.17 85.745 106.52 84.797 105.6 82.999C107.42 80.141 108.1 77.654 107.3 74.273C106.35 70.226 105.91 66.082 105.36 61.959L107.51 61.5L107.77 62.559C108.69 66.1 109.95 72.053 112.46 74.692L114.04 75.18L114.49 76.843C115.76 80.021 116.47 82.663 119.5 84.583C123.32 84.615 125.38 83.156 128.88 82.178C130.16 81.932 131.37 81.605 132.5 80.92C135.03 79.391 137.18 76.901 137.75 74.114ZM105.36 61.959C105.91 66.082 106.35 70.226 107.3 74.273C108.1 77.654 107.42 80.141 105.6 82.999C106.52 84.797 107.17 85.745 106.9 87.824C108.19 88.051 109.23 88.199 110.38 88.889C112.7 90.292 113.95 90.88 116.8 90.305L118.01 90.005L120 89.51C120.87 89.151 121.22 88.744 122.23 88.644C125.38 88.332 128.34 87.756 130.66 85.413L128.88 82.178C125.38 83.156 123.32 84.615 119.5 84.583C116.47 82.663 115.76 80.021 114.49 76.843L114.04 75.18L112.46 74.692C109.95 72.053 108.69 66.1 107.77 62.559L107.51 61.5L105.36 61.959Z" fill="#FE948B"/>
<path d="M105.36 61.959L107.51 61.5L107.77 62.559C108.69 66.1 109.95 72.053 112.46 74.692L114.04 75.18L114.49 76.843C115.76 80.021 116.47 82.663 119.5 84.583C123.32 84.615 125.38 83.156 128.88 82.178L130.66 85.413C128.34 87.756 125.38 88.332 122.23 88.644C121.22 88.744 120.87 89.151 120 89.51L118.01 90.005L116.8 90.305C113.95 90.88 112.7 90.292 110.38 88.889C109.23 88.199 108.19 88.051 106.9 87.824C107.17 85.745 106.52 84.797 105.6 82.999C107.42 80.141 108.1 77.654 107.3 74.273C106.35 70.226 105.91 66.082 105.36 61.959Z" fill="#FE948B" fill-opacity="0.984314"/>
<path d="M8.81995 141.983C10.7399 138.304 10.46 134.373 11.48 130.434C13.84 121.322 18.4199 113.521 23.5699 105.777L24.61 116.481C24.82 118.38 24.84 120.204 24.74 122.107L20.77 136.939C21.79 140.056 22.81 143.034 24.22 146L24.62 146.873C26.92 151.68 31.07 155.444 33.58 160.376C40.13 173.202 45.3401 186.586 52.9301 198.949C66.5301 221.122 92.74 247.341 117.5 256.091C133.5 261.747 156.78 265.495 172.42 257.792C178.99 254.553 188.04 249.739 193.28 244.5C197.05 240.74 200.29 235.375 203.51 231.059C211.43 220.433 220.85 208.786 225.17 196.124L224.66 193.867C228.49 191.177 230.65 185.217 232.84 181.07C234.86 181.083 236.32 181.168 238.17 180.216C239.99 179.274 241.4 179.09 243.41 178.834C244.06 183.203 242.53 185.925 240.96 190.041C236.02 202.96 227.58 215.339 219.41 226.376C211.36 237.251 198.11 254.602 184.86 258.052C183.15 262.267 175.36 265.718 171.12 267.54L167.52 268.913C149.78 277.168 128.39 267.801 110.65 263.978C107.68 260.392 97.35 256.413 92.87 254.009C89.16 250.451 86.0501 247.897 81.6801 245.255C76.5401 242.148 71.92 237.169 67.7 232.893C51.69 216.667 34.23 192.72 29.3 169.955C27.86 163.267 23.0401 160.898 18.4301 156.5C15.3301 153.539 12.65 149.875 9.75 146.686C10.28 144.056 10.2799 144.244 8.81995 141.983ZM92.87 254.009C97.35 256.413 107.68 260.392 110.65 263.978C128.39 267.801 149.78 277.168 167.52 268.913L171.12 267.54C175.36 265.718 183.15 262.267 184.86 258.052L181.09 256.118L177.56 258.554C163.81 266.356 142.67 265.84 127.74 261.483L99 252.741C97.19 253.846 94.93 253.803 92.87 254.009Z" fill="#FE6D8F"/>
<path d="M92.87 254.009C94.93 253.803 97.19 253.846 99 252.741L127.74 261.483C142.67 265.84 163.81 266.356 177.56 258.554L181.09 256.118L184.86 258.052C183.15 262.267 175.36 265.718 171.12 267.54L167.52 268.913C149.78 277.168 128.39 267.801 110.65 263.978C107.68 260.392 97.35 256.413 92.87 254.009Z" fill="#FE6D8F" fill-opacity="0.968627"/>
<path d="M20.77 136.939L23.5 133.782C27.92 137.323 31.2701 143.246 36.5601 145.369L36.9301 146.881C35.6101 153.559 43.64 159.58 45.5 165.51C47.33 171.363 49.3 177.065 52.8 182.322C64.47 199.882 81.41 213.496 101.7 219.816L102.92 218.984C111.25 222.336 115.75 231.486 125.6 233.977L126.93 234.292C136.23 236.606 144.11 238.044 153.65 236.591C160.1 235.608 166.65 232.513 171.98 228.775C176.45 225.639 182.81 220.794 183.8 215.157L186.97 215.509C190.96 213.905 194.63 211.671 198.53 209.869C207.17 205.88 218.88 201.713 224.66 193.867L225.17 196.124C220.85 208.786 211.43 220.433 203.51 231.059C200.29 235.375 197.05 240.74 193.28 244.5C188.04 249.739 178.99 254.553 172.42 257.792C156.78 265.495 133.5 261.747 117.5 256.091C92.74 247.341 66.5301 221.122 52.9301 198.949C45.3401 186.586 40.13 173.202 33.58 160.376C31.07 155.444 26.92 151.68 24.62 146.873L24.22 146C22.81 143.034 21.79 140.056 20.77 136.939Z" fill="#FEA381"/>
<path d="M182.43 80.977C186.62 78.685 188.96 73.849 191.73 70.046C195.92 64.306 202.08 56.915 208.21 53.241C211.74 51.126 214.71 49.32 218.93 48.934C221.49 50.269 222.69 50.455 224.03 53.074C226.64 55.142 228.32 57.009 230.08 59.841L230 61.889C237.63 67.142 241.26 86.085 242.94 95.103C243.51 98.144 244.1 100.881 242.88 103.836C244.48 107.26 245.11 109.962 245.38 113.725C248 116.632 249.81 116.649 253.5 117.558C256.99 116.473 259.99 114.746 263.17 112.976C263.99 122.766 265.27 136.823 258.24 144.913L255.18 147.678C245.32 156.01 249.94 170.247 243.41 178.834C241.4 179.09 239.99 179.274 238.17 180.216C236.32 181.168 234.86 181.083 232.84 181.07C230.65 185.217 228.49 191.177 224.66 193.867C218.88 201.713 207.17 205.88 198.53 209.869C194.63 211.671 190.96 213.905 186.97 215.509L183.8 215.157C182.81 220.794 176.45 225.639 171.98 228.775C166.65 232.513 160.1 235.608 153.65 236.591C144.11 238.044 136.23 236.606 126.93 234.292L125.6 233.977C115.75 231.486 111.25 222.336 102.92 218.984L101.7 219.816C81.41 213.496 64.47 199.882 52.8 182.322C49.3 177.065 47.33 171.363 45.5 165.51C43.64 159.58 35.6101 153.559 36.9301 146.881L36.5601 145.369C31.2701 143.246 27.92 137.323 23.5 133.782L20.77 136.939L24.74 122.107C25.48 122.818 26.0101 123.484 26.5601 124.351C30.1301 130.056 33.11 135.671 40.04 137.746C43.02 138.638 43.97 137.899 46.46 136.5C49.16 121.573 51.6199 106.494 56.1899 92C58.4799 84.732 63.3101 77.245 64.6801 69.985C71.6101 67.908 69.49 62.577 74.33 58.813C75.28 58.078 79.54 57.394 80.95 56.956C84.76 54.703 87.21 50.618 91.5 49.442C94.41 51.356 94.68 51.605 95.96 54.835C99.96 54.272 100.95 53.708 104.5 55.943C105.67 58.609 105.85 58.932 105.36 61.959C105.91 66.082 106.35 70.226 107.3 74.273C108.1 77.654 107.42 80.141 105.6 82.999C106.52 84.797 107.17 85.745 106.9 87.824C109.52 90.492 111.12 92.482 115 93.086L128.11 90.159L130.82 89.772C136.38 89.091 145.21 81.92 148.41 77.391C151.68 72.757 154.77 66.97 158.37 62.722C157.84 67.785 157.78 73.814 155.62 78.416C154.25 81.347 154.4 84.397 154.93 87.5C157.06 90.254 157.52 90.684 160.75 91.947C162.11 90.287 163.71 88.938 165.29 87.5L164.59 85.071C167.13 85.154 168.39 85.553 170.62 86.695C173.59 88.207 175.92 88.244 179.01 87.184C181.51 84.684 182.14 84.631 182.43 80.977ZM182.43 80.977C182.14 84.631 181.51 84.684 179.01 87.184C175.92 88.244 173.59 88.207 170.62 86.695C168.39 85.553 167.13 85.154 164.59 85.071L165.29 87.5C163.71 88.938 162.11 90.287 160.75 91.947C167.32 93.411 177.07 97.024 183.5 95.74L184.01 94.005L185.36 93.428C188.28 92.019 190.97 85.724 192.67 82.812C198.03 73.656 205.82 62.129 216.2 58.461C221.75 60.703 223.62 66.021 225.86 71.304C230.81 83.038 232.83 98.357 234.15 111.099C234.59 115.367 237.2 120.126 240.72 122.679C245.48 126.133 249.8 124.578 255.03 125.007C256.1 125.095 256.01 124.88 256.25 126.005C256.95 129.164 256.22 132.562 254.26 135.096L252.39 137.365C248.57 142.063 244.73 147.782 242.47 153.381C240.34 158.613 239.31 164.181 236.92 169.281C235.48 172.347 235.22 175.182 234.95 178.5L232.84 181.07C234.86 181.083 236.32 181.168 238.17 180.216C239.99 179.274 241.4 179.09 243.41 178.834C249.94 170.247 245.32 156.01 255.18 147.678L258.24 144.913C265.27 136.823 263.99 122.766 263.17 112.976C259.99 114.746 256.99 116.473 253.5 117.558C249.81 116.649 248 116.632 245.38 113.725C245.11 109.962 244.48 107.26 242.88 103.836C244.1 100.881 243.51 98.144 242.94 95.103C241.26 86.085 237.63 67.142 230 61.889L230.08 59.841C228.32 57.009 226.64 55.142 224.03 53.074C222.69 50.455 221.49 50.269 218.93 48.934C214.71 49.32 211.74 51.126 208.21 53.241C202.08 56.915 195.92 64.306 191.73 70.046C188.96 73.849 186.62 78.685 182.43 80.977Z" fill="#F2BF78"/>
<path d="M95.96 54.835C99.96 54.272 100.95 53.708 104.5 55.943C105.67 58.609 105.85 58.932 105.36 61.959C105.91 66.082 106.35 70.226 107.3 74.273C108.1 77.654 107.42 80.141 105.6 82.999C105.72 82.051 105.76 82.059 105.72 81.231C105.37 73.596 101.52 60.188 95.96 54.835Z" fill="#FE948B"/>
<path d="M193.6 124.494L194.3 124.349C197.97 123.747 199.22 123.832 202.2 125.823C204.76 129.488 204.01 134.243 203.87 138.5C202.02 141.746 201.43 142.25 198.2 144.156C197.46 144.592 196.35 144.569 195.5 144.678L192.67 142.214C190.68 135.454 191.22 130.978 193.6 124.494Z" fill="#FE6D8F"/>
<path d="M100.94 121.491C101.93 121.4 103.27 121.181 104.28 121.397C106.13 121.791 107.7 122.993 108.3 124.796C109.16 127.321 108.68 138.453 107.22 140.605C106.2 142.125 103.69 142.039 101.93 142.369L98.5 141.535C97.41 140.081 96.27 139.12 96.11 137.271C95.54 130.425 96.48 126.702 100.94 121.491Z" fill="#FE6D8F"/>
<path d="M83.09 65.49C85.59 64.966 87.0001 64.88 89.5001 65.369C94.6101 72.052 87.66 84.196 90.83 92.523C91.64 94.667 91.7901 96.209 91.8001 98.5C89.9701 100.606 89.8001 101.07 87.0001 101.796C85.1801 100.676 83.7401 99.516 81.5001 99.737L78.59 103.5C80.18 106.417 85.9801 108.005 89.1601 109.5L88.94 112.504L89.23 114.885L87.5001 116.24C82.1401 116.566 75.78 115.098 71.71 111.301C69.15 108.908 68.3801 105.919 68.9101 102.5C69.5501 98.383 74.0801 93.503 77.4301 91.221C78.5601 90.451 80.4 89.5 80.74 88.016C82.38 80.841 81.33 72.909 83.09 65.49Z" fill="#FE6D8F"/>
<path d="M214.83 74.494L219 74.074C221.33 75.157 222.45 75.829 223.5 78.291C227.38 87.422 224.49 99.602 221.5 108.506C224.9 110.701 228.27 114.197 228.98 118.366C229.81 123.257 228.52 125.835 225.67 129.663C221.93 131.513 219.27 131.288 215.28 130.918C213.44 128.62 212.99 127.443 212.78 124.5C214.81 121.754 215.53 122.177 218.79 121.631L219.81 120L217.75 117.345L210.5 116.755C207.9 114.45 208.28 114.298 208.05 111C213.67 103.591 217.37 95.537 215.68 85.963C214.95 81.781 213.7 78.814 214.83 74.494Z" fill="#FE6D8F"/>
<path d="M64.6801 69.985C71.6101 67.908 69.49 62.577 74.33 58.813C75.28 58.078 79.54 57.394 80.95 56.956C79.75 63.144 73.3299 70.644 70.6899 76.864C64.1399 92.313 60.22 108.038 56.99 124.446C55.76 130.728 55.35 143.086 50.5 146.936C47.87 149.023 45.05 148.937 41.87 148.362L36.9301 146.881L36.5601 145.369C31.2701 143.246 27.92 137.323 23.5 133.782L20.77 136.939L24.74 122.107C25.48 122.818 26.0101 123.484 26.5601 124.351C30.1301 130.056 33.11 135.671 40.04 137.746C43.02 138.638 43.97 137.899 46.46 136.5C49.16 121.573 51.6199 106.494 56.1899 92C58.4799 84.732 63.3101 77.245 64.6801 69.985Z" fill="#FE948B"/>
<path d="M182.43 80.977C186.62 78.685 188.96 73.849 191.73 70.046C195.92 64.306 202.08 56.915 208.21 53.241C211.74 51.126 214.71 49.32 218.93 48.934C221.49 50.269 222.69 50.455 224.03 53.074C226.64 55.142 228.32 57.009 230.08 59.841L230 61.889C237.63 67.142 241.26 86.085 242.94 95.103C243.51 98.144 244.1 100.881 242.88 103.836C244.48 107.26 245.11 109.962 245.38 113.725C248 116.632 249.81 116.649 253.5 117.558C256.99 116.473 259.99 114.746 263.17 112.976C263.99 122.766 265.27 136.823 258.24 144.913L255.18 147.678C245.32 156.01 249.94 170.247 243.41 178.834C241.4 179.09 239.99 179.274 238.17 180.216C236.32 181.168 234.86 181.083 232.84 181.07L234.95 178.5C235.22 175.182 235.48 172.347 236.92 169.281C239.31 164.181 240.34 158.613 242.47 153.381C244.73 147.782 248.57 142.063 252.39 137.365L254.26 135.096C256.22 132.562 256.95 129.164 256.25 126.005C256.01 124.88 256.1 125.095 255.03 125.007C249.8 124.578 245.48 126.133 240.72 122.679C237.2 120.126 234.59 115.367 234.15 111.099C232.83 98.357 230.81 83.038 225.86 71.304C223.62 66.021 221.75 60.703 216.2 58.461C205.82 62.129 198.03 73.656 192.67 82.812C190.97 85.724 188.28 92.019 185.36 93.428L184.01 94.005L183.5 95.74C177.07 97.024 167.32 93.411 160.75 91.947C162.11 90.287 163.71 88.938 165.29 87.5L164.59 85.071C167.13 85.154 168.39 85.553 170.62 86.695C173.59 88.207 175.92 88.244 179.01 87.184C181.51 84.684 182.14 84.631 182.43 80.977ZM182.43 80.977C182.14 84.631 181.51 84.684 179.01 87.184C175.92 88.244 173.59 88.207 170.62 86.695C168.39 85.553 167.13 85.154 164.59 85.071L165.29 87.5C163.71 88.938 162.11 90.287 160.75 91.947C167.32 93.411 177.07 97.024 183.5 95.74L184.01 94.005C186.56 83.49 198.07 69.04 205.73 61.257C210.52 56.39 212.57 54.452 219.5 54.364C221.86 55.6 223.09 56.608 224.54 58.879L224.92 59.5L226.25 59.611C227.14 60.324 227.92 60.829 228.95 61.362L230 61.889L230.08 59.841C228.32 57.009 226.64 55.142 224.03 53.074C222.69 50.455 221.49 50.269 218.93 48.934C214.71 49.32 211.74 51.126 208.21 53.241C202.08 56.915 195.92 64.306 191.73 70.046C188.96 73.849 186.62 78.685 182.43 80.977Z" fill="#FE948B"/>
<path d="M182.43 80.977C186.62 78.685 188.96 73.849 191.73 70.046C195.92 64.306 202.08 56.915 208.21 53.241C211.74 51.126 214.71 49.32 218.93 48.934C221.49 50.269 222.69 50.455 224.03 53.074C226.64 55.142 228.32 57.009 230.08 59.841L230 61.889L228.95 61.362C227.92 60.829 227.14 60.324 226.25 59.611L224.92 59.5L224.54 58.879C223.09 56.608 221.86 55.6 219.5 54.364C212.57 54.452 210.52 56.39 205.73 61.257C198.07 69.04 186.56 83.49 184.01 94.005L183.5 95.74C177.07 97.024 167.32 93.411 160.75 91.947C162.11 90.287 163.71 88.938 165.29 87.5L164.59 85.071C167.13 85.154 168.39 85.553 170.62 86.695C173.59 88.207 175.92 88.244 179.01 87.184C181.51 84.684 182.14 84.631 182.43 80.977Z" fill="#FE948B" fill-opacity="0.976471"/>
<path d="M102.92 218.984C102.18 215.057 98.94 211.77 96.82 208.476C92.36 201.572 89.7401 193.193 89.3801 185C89.1001 178.805 89.6801 171.323 93.9201 166.727C101.41 165.848 102.63 175.952 108.78 179.5C109.31 162.333 117.99 146.228 129.6 133.784C140.36 122.25 150.01 120.024 164.5 115.81C169.34 114.402 172.26 112.826 177.5 112.641C180.23 114.059 180.58 114.339 182.11 117C181.4 122.472 176.08 126.204 172.97 131C171.89 132.661 170.83 134.313 170.35 136.258C168.65 143.069 168.53 151.656 172.22 157.767L174.5 157.99C177.55 156.128 177.85 152.722 179.62 149.621C182.6 147.792 182.98 147.89 186.5 148.162C191.7 152.624 192.45 162.852 193.3 169.478C194.95 182.285 194.76 202.519 185.9 213.089L183.8 215.157C182.81 220.794 176.45 225.639 171.98 228.775C166.65 232.513 160.1 235.608 153.65 236.591C144.11 238.044 136.23 236.606 126.93 234.292L125.6 233.977C115.75 231.486 111.25 222.336 102.92 218.984Z" fill="#A52F5B"/>
<path d="M139.73 224.008L138.68 224.892C133.83 224.321 128.69 223.633 124.43 221.103C112.33 213.925 104.12 201.18 100.45 187.813C104.04 190.439 109.83 195.342 114.28 195.984C117.81 196.494 118.86 195.567 121.5 193.606C124.35 187.476 119.87 178.759 121.03 171.694C122.86 160.523 133.81 143.8 142.98 137.213C148.57 133.191 153.28 129.346 160.5 128.953C159.84 137.911 156.75 144.938 158.69 154.373C159.71 159.36 161.85 165.302 166.47 168.035C170.91 170.656 175.3 169.765 179.99 168.65L181.46 168.294C182.55 179.65 183.77 192.726 178.28 203.159L174.28 210.514C171.93 214.34 168.67 218.394 164.12 217.902C162.78 221.339 160.96 222.516 157.5 223.92C155.87 224.578 154.21 224.908 152.5 225.262L151.32 225.517C147.21 226.352 145.15 225.667 141.35 224.369L139.73 224.008Z" fill="#FE6D8F"/>
<path d="M139.73 224.008C138.31 220.859 135.18 218.55 133.94 215C132.84 211.839 133.33 210.339 134.57 207.5C138.1 205.708 139.72 206.439 143.5 206.746L144.29 205C141.93 201.011 140.07 196.811 139.52 192.164C138.99 187.655 140.2 180.395 143.2 176.882C144.97 174.817 146.04 175.219 148.5 175.119L151.02 177.5C152.26 182.862 153.48 184.635 158 187.814C160.66 187.519 162.85 187.603 165.5 187.975C166.36 188.835 167.87 189.94 168.22 191.089C169.81 196.293 167.91 211.949 164.94 216.675L164.12 217.902C162.78 221.339 160.96 222.516 157.5 223.92C155.87 224.578 154.21 224.908 152.5 225.262L151.32 225.517C147.21 226.352 145.15 225.667 141.35 224.369L139.73 224.008Z" fill="#7B2B4A"/>
<defs>
<linearGradient id="paint0_linear_1_256" x1="148.64" y1="28.6042" x2="151.897" y2="3.59589" gradientUnits="userSpaceOnUse">
<stop stop-color="#070707" stop-opacity="0.952941"/>
<stop offset="1" stop-color="#070707"/>
</linearGradient>
</defs>
</svg>
