<svg width="263" height="259" viewBox="0 0 263 259" fill="none" xmlns="http://www.w3.org/2000/svg">
<path d="M115.11 40.877C129.95 35.842 150.88 34.326 165.41 41.34L170.57 44.114C168.97 46.199 168.27 48.154 165.5 48.51L159.96 48.7119C152.91 46.1249 144.21 46.2659 136.77 45.7329C133.5 43.2579 121.65 44.588 117.16 44.682L115.11 40.877Z" fill="black"/>
<path d="M170.57 44.114C178.43 30.973 189.38 14.122 204.91 9.63003C209.39 8.33403 214.9 8.89603 219 11.19C230.44 17.588 235.24 33.48 238.12 45.449C246.87 81.912 244.3 124.116 241.21 161.201C251.43 166.747 258.06 173.077 261.33 184.482C263.27 191.245 262.45 199.413 259.02 205.531C255.62 211.578 249.8 215.919 243.15 217.729C239.71 218.667 236.34 218.838 232.79 218.861C230.19 232.833 226.3 245.735 213.74 254.003C208.51 257.439 202.14 259.763 195.83 258.294C190.56 257.065 187.64 254.584 184.5 250.36L181.16 245.981C154.01 255.867 117.33 251.559 91.23 239.398C87.4 237.61 80.09 231.708 76.5 231.032C75.53 230.849 71.97 231.944 70.84 232.171C72.16 230.448 73.11 228.887 75 227.755L75.8199 228.153C77.3399 228.728 78.36 228.428 79.92 228.181C101.07 243.882 131.81 248.188 157.5 244.55C160.58 244.113 162.37 243.15 164.59 240.994C167.75 240.313 171.15 239.691 174.11 238.379C176.25 237.43 178.74 235.666 181 235.167C190.8 233 188.73 244.15 194.64 247.584C197.64 249.322 200.79 249.324 204.05 248.333C214 245.3 221.98 231.753 222.56 221.76C222.81 217.255 221.16 213.748 223.38 209.5C227.61 207.167 231.55 208.976 236.22 209.047C240.59 209.113 245.11 206.95 248.12 203.831C251.6 200.227 252.78 195.9 252.61 191C252.4 184.366 248.18 176.465 242.5 172.895C239.99 171.321 236.44 170.014 234.38 167.928C230.53 164.041 232.81 152.295 233.15 146.868C229.92 147.99 227.75 150.025 225.19 152.207C226.84 129.682 225.72 107.804 223.61 85.36C222.39 72.404 221.36 58.796 217.99 46.188C216.21 39.531 214.75 31.3 208.5 27.66C207.47 27.811 205.36 27.829 204.5 28.248C202.64 29.155 199.79 32.577 198.38 34.178C192.51 40.838 187.66 48.085 183.14 55.71C180.97 59.375 180.05 62.654 176.66 65.583C172.95 66.211 172.26 65.902 168.73 64.476L167.91 62.782C165.09 60.814 162.42 60.003 159.15 59.125C150.27 53.124 136.75 53.046 126.5 53.66C127.7 51.772 127.98 51.084 130 50C128.09 48.071 125.58 48.173 122.95 47.731L136.77 45.733C144.21 46.266 152.91 46.125 159.96 48.712L165.5 48.51C168.27 48.154 168.97 46.199 170.57 44.114ZM159.96 48.712C152.91 46.125 144.21 46.266 136.77 45.733L122.95 47.731C125.58 48.173 128.09 48.071 130 50C127.98 51.084 127.7 51.772 126.5 53.66C136.75 53.046 150.27 53.124 159.15 59.125C162.42 60.003 165.09 60.814 167.91 62.782L168.73 64.476C172.26 65.902 172.95 66.211 176.66 65.583C180.05 62.654 180.97 59.375 183.14 55.71C187.66 48.085 192.51 40.838 198.38 34.178C199.79 32.577 202.64 29.155 204.5 28.248C205.36 27.829 207.47 27.811 208.5 27.66C214.75 31.3 216.21 39.531 217.99 46.188C221.36 58.796 222.39 72.404 223.61 85.36C225.72 107.804 226.84 129.682 225.19 152.207C227.75 150.025 229.92 147.99 233.15 146.868C234.46 135.67 234.28 123.915 234.42 112.629C234.71 88.6511 233.88 62.296 226.73 39.216C224.09 30.68 221 22.812 212.69 18.5C208.49 17.99 205.43 18.82 201.91 21.081C192.91 26.856 178.7 43.411 176.72 53.818L176.6 54.622L174 56.233C169.32 55.823 164.14 51.23 159.96 48.712Z" fill="black"/>
<path d="M159.96 48.712C164.14 51.23 169.32 55.823 174 56.233L176.6 54.622L176.72 53.818C178.7 43.411 192.91 26.856 201.91 21.081C205.43 18.82 208.49 17.99 212.69 18.5C221 22.812 224.09 30.68 226.73 39.216C233.88 62.296 234.71 88.651 234.42 112.629C234.28 123.915 234.46 135.67 233.15 146.868C229.92 147.99 227.75 150.025 225.19 152.207C226.84 129.682 225.72 107.804 223.61 85.36C222.39 72.404 221.36 58.796 217.99 46.188C216.21 39.531 214.75 31.3 208.5 27.66C207.47 27.811 205.36 27.829 204.5 28.248C202.64 29.155 199.79 32.577 198.38 34.178C192.51 40.838 187.66 48.085 183.14 55.71C180.97 59.375 180.05 62.654 176.66 65.583C172.95 66.211 172.26 65.902 168.73 64.476L167.91 62.782C165.09 60.814 162.42 60.003 159.15 59.125C150.27 53.124 136.75 53.046 126.5 53.66C127.7 51.772 127.98 51.084 130 50C128.09 48.071 125.58 48.173 122.95 47.731L136.77 45.733C144.21 46.266 152.91 46.125 159.96 48.712Z" fill="#A9E366" fill-opacity="0.984314"/>
<path d="M32.09 196.541C27.83 197.406 23.7301 197.225 19.5401 196.063C13.2801 194.327 7.80005 189.434 4.64005 183.855C0.550047 176.623 -0.329973 166.903 2.12003 159.001C5.42003 148.412 13.02 140.414 22.73 135.407C24.74 134.369 23.77 127.826 23.74 125.367C23.36 94.817 28.39 61.792 41.2 33.884C47.01 21.222 56.56 6.36502 70.39 1.55302C76.41 -0.537984 83.62 -0.340986 89.32 2.62601C101.16 8.79901 110.02 23.02 113.83 35.502L115.11 40.877L117.16 44.682C121.65 44.588 133.5 43.258 136.77 45.733L122.95 47.731C125.58 48.173 128.09 48.071 130 50C127.98 51.084 127.7 51.772 126.5 53.66C136.75 53.046 150.27 53.124 159.15 59.125C162.42 60.003 165.09 60.814 167.91 62.782L168.73 64.476C172.26 65.902 172.95 66.211 176.66 65.583C180.05 62.654 180.97 59.375 183.14 55.71C187.66 48.085 192.51 40.838 198.38 34.178C199.79 32.577 202.64 29.155 204.5 28.248C205.36 27.829 207.47 27.811 208.5 27.66C214.75 31.3 216.21 39.531 217.99 46.188C221.36 58.796 222.39 72.404 223.61 85.36C225.72 107.804 226.84 129.682 225.19 152.207C227.75 150.025 229.92 147.99 233.15 146.868C232.81 152.295 230.53 164.041 234.38 167.928C236.44 170.014 239.99 171.321 242.5 172.895C248.18 176.465 252.4 184.366 252.61 191C252.78 195.9 251.6 200.227 248.12 203.831C245.11 206.95 240.59 209.113 236.22 209.047C231.55 208.976 227.61 207.167 223.38 209.5C221.16 213.748 222.81 217.255 222.56 221.76C221.98 231.753 214 245.3 204.05 248.333C200.79 249.324 197.64 249.322 194.64 247.584C188.73 244.15 190.8 233 181 235.167C178.74 235.666 176.25 237.43 174.11 238.379C171.15 239.691 167.75 240.313 164.59 240.994C162.37 243.15 160.58 244.113 157.5 244.55C131.81 248.188 101.07 243.882 79.9201 228.181C78.3601 228.428 77.34 228.728 75.82 228.153L75 227.755C73.11 228.887 72.16 230.448 70.84 232.171C68.32 235.219 60.95 236.445 56.94 236.87L51.59 237.001C46.92 237.626 40.88 235.604 37 233.105C31.36 229.469 28.26 224.222 27.11 217.687C25.9 210.85 28.08 202.122 32.09 196.541ZM32.09 196.541C33.56 199.102 33.93 199.299 36.51 200.5L37.6 199.773C38.67 199.077 39.65 198.621 40.86 198.21C43.62 194.867 44.9 192.834 44.5 188.614C42.35 186.085 42.21 185.786 39 185.078C33.44 187.439 27.0201 189.007 21.1801 186.649C16.7901 184.872 13.35 181.22 11.59 176.84C8.63 169.491 10.7301 162.65 13.6701 155.724C14.3501 158.747 15.4401 163.39 18.3001 165.127C19.5201 165.867 19.3001 165.705 20.6701 166.037C21.8001 161.892 23.1 158.276 25.36 154.605C29.47 147.912 30.86 150.221 37.5 147.989C39.89 147.187 40.41 145.544 41.49 143.5C40.89 138.186 41.12 133.023 41.36 127.693C42.95 126.011 42.34 122.13 42.35 119.751C41.91 114.262 41.6001 108.761 42.1801 103.27C44.1501 84.469 50.24 65.145 57.33 47.714C60.21 40.621 63.47 32.518 68.23 26.498C71.02 22.982 75.41 19.919 78.89 17.094C86.11 23.552 88.7601 30.504 92.4301 39.199C93.5901 43.204 94.4701 48.471 96.4201 52.084L99.09 52.78C100.82 53.288 100.65 53.936 101.42 55.452C103.49 55.089 104.73 53.866 106.32 52.581L107.07 51.961C109.38 52.351 110.72 52.483 113.01 51.664C116.22 49.898 119.48 48.853 122.95 47.731L136.77 45.733C133.5 43.258 121.65 44.588 117.16 44.682L115.11 40.877L113.83 35.502C110.02 23.02 101.16 8.79901 89.32 2.62601C83.62 -0.340986 76.41 -0.537984 70.39 1.55302C56.56 6.36502 47.01 21.222 41.2 33.884C28.39 61.792 23.36 94.817 23.74 125.367C23.77 127.826 24.74 134.369 22.73 135.407C13.02 140.414 5.42003 148.412 2.12003 159.001C-0.329973 166.903 0.550047 176.623 4.64005 183.855C7.80005 189.434 13.2801 194.327 19.5401 196.063C23.7301 197.225 27.83 197.406 32.09 196.541ZM225.19 152.207L224.91 152.847C224.78 156.648 222.8 166.893 225.28 169.574C228.1 172.634 231.21 173.12 234.64 175.041C239.34 177.678 242.31 187.578 242.67 192.5C241.31 196.039 238.61 198.566 235.14 200.086C230.29 202.206 225.66 202.322 220.74 200.359C217.02 198.87 215.52 197.531 211.36 198.387C209.24 200.595 208.85 201.045 208.18 204C209.52 208.017 211.8 209.298 213.96 212.5C217.34 217.494 214.02 227.523 211.47 232.295C209.84 235.344 206.88 238.358 203.45 239.259C201.33 239.818 199.35 239.163 197.33 238.5C194.82 236.279 193.11 233.06 192.97 229.655C192.83 226.448 193.72 224.165 191.65 221.35C189.37 220.22 187.78 219.424 185.22 220.5C180.88 222.321 177.07 226.149 172.41 228.098C156 234.96 132.38 235.098 115.32 230.65C103.58 227.59 87.4 222.929 79.76 213C77.47 210.018 77.01 209.37 73.5 208.299C66.22 209.514 62.3 221.415 56 222.119C54.66 222.269 52.88 221.924 51.5 221.838C47.51 218.215 46.06 213.336 45.85 208.046C45.58 201.129 47.32 192.81 52.13 187.5C53.03 186.508 54.15 185.735 55.21 184.935C56.56 183.918 57.4801 182.794 58.5501 181.5C58.6401 178.265 58.55 177.98 56.74 175.3C53.92 173.865 51.92 173.538 48.83 174.5C41.24 176.859 33.6301 181.768 25.1601 178.498C22.5201 177.478 21.6 175.243 20.11 173C20.2 170.666 20.2101 168.333 20.6701 166.037C19.3001 165.705 19.5201 165.867 18.3001 165.127C15.4401 163.39 14.3501 158.747 13.6701 155.724C10.7301 162.65 8.63 169.491 11.59 176.84C13.35 181.22 16.7901 184.872 21.1801 186.649C27.0201 189.007 33.44 187.439 39 185.078C42.21 185.786 42.35 186.085 44.5 188.614C44.9 192.834 43.62 194.867 40.86 198.21C39.65 198.621 38.67 199.077 37.6 199.773L36.51 200.5C33.93 199.299 33.56 199.102 32.09 196.541C28.08 202.122 25.9 210.85 27.11 217.687C28.26 224.222 31.36 229.469 37 233.105C40.88 235.604 46.92 237.626 51.59 237.001L56.94 236.87C60.95 236.445 68.32 235.219 70.84 232.171C72.16 230.448 73.11 228.887 75 227.755L75.82 228.153C77.34 228.728 78.3601 228.428 79.9201 228.181C101.07 243.882 131.81 248.188 157.5 244.55C160.58 244.113 162.37 243.15 164.59 240.994C167.75 240.313 171.15 239.691 174.11 238.379C176.25 237.43 178.74 235.666 181 235.167C190.8 233 188.73 244.15 194.64 247.584C197.64 249.322 200.79 249.324 204.05 248.333C214 245.3 221.98 231.753 222.56 221.76C222.81 217.255 221.16 213.748 223.38 209.5C227.61 207.167 231.55 208.976 236.22 209.047C240.59 209.113 245.11 206.95 248.12 203.831C251.6 200.227 252.78 195.9 252.61 191C252.4 184.366 248.18 176.465 242.5 172.895C239.99 171.321 236.44 170.014 234.38 167.928C230.53 164.041 232.81 152.295 233.15 146.868C229.92 147.99 227.75 150.025 225.19 152.207Z" fill="#A9E366"/>
<path d="M225.19 152.207C227.75 150.025 229.92 147.99 233.15 146.868C232.81 152.295 230.53 164.041 234.38 167.928C236.44 170.014 239.99 171.321 242.5 172.895C248.18 176.465 252.4 184.366 252.61 191C252.78 195.9 251.6 200.227 248.12 203.831C245.11 206.95 240.59 209.113 236.22 209.047C231.55 208.976 227.61 207.167 223.38 209.5C221.16 213.748 222.81 217.255 222.56 221.76C221.98 231.753 214 245.3 204.05 248.333C200.79 249.324 197.64 249.322 194.64 247.584C188.73 244.15 190.8 233 181 235.167C178.74 235.666 176.25 237.43 174.11 238.379C171.15 239.691 167.75 240.313 164.59 240.994C162.37 243.15 160.58 244.113 157.5 244.55C131.81 248.188 101.07 243.882 79.92 228.181C78.36 228.428 77.3399 228.728 75.8199 228.153L74.9999 227.755C73.1099 228.887 72.1599 230.448 70.8399 232.171C68.3199 235.219 60.9499 236.445 56.9399 236.87L51.5899 237.001C46.9199 237.626 40.8799 235.604 36.9999 233.105C31.3599 229.469 28.2599 224.222 27.1099 217.687C25.8999 210.85 28.0799 202.122 32.0899 196.541C33.5599 199.102 33.93 199.299 36.51 200.5L37.5999 199.773C38.6699 199.077 39.6499 198.621 40.8599 198.21C43.6199 194.867 44.8999 192.834 44.4999 188.614C42.3499 186.085 42.2099 185.786 38.9999 185.078C33.4399 187.439 27.02 189.007 21.18 186.649C16.79 184.872 13.3499 181.22 11.5899 176.84C8.62991 169.491 10.73 162.65 13.67 155.724C14.35 158.747 15.44 163.39 18.3 165.127C19.52 165.867 19.3 165.705 20.67 166.037C20.21 168.333 20.1999 170.666 20.1099 173C21.5999 175.243 22.52 177.478 25.16 178.498C33.63 181.768 41.2399 176.859 48.8299 174.5C51.9199 173.538 53.9199 173.865 56.7399 175.3C58.5499 177.98 58.64 178.265 58.55 181.5C57.48 182.794 56.5599 183.918 55.2099 184.935C54.1499 185.735 53.03 186.508 52.13 187.5C47.32 192.81 45.5799 201.129 45.8499 208.046C46.0599 213.336 47.5099 218.215 51.4999 221.838C52.8799 221.924 54.6599 222.269 55.9999 222.119C62.2999 221.415 66.2199 209.514 73.4999 208.299C77.0099 209.37 77.47 210.018 79.76 213C87.4 222.929 103.58 227.59 115.32 230.65C132.38 235.098 156 234.96 172.41 228.098C177.07 226.149 180.88 222.321 185.22 220.5C187.78 219.424 189.37 220.22 191.65 221.35C193.72 224.165 192.83 226.448 192.97 229.655C193.11 233.06 194.82 236.279 197.33 238.5C199.35 239.163 201.33 239.818 203.45 239.259C206.88 238.358 209.84 235.344 211.47 232.295C214.02 227.523 217.34 217.494 213.96 212.5C211.8 209.298 209.52 208.017 208.18 204C208.85 201.045 209.24 200.595 211.36 198.387C215.52 197.531 217.02 198.87 220.74 200.359C225.66 202.322 230.29 202.206 235.14 200.086C238.61 198.566 241.31 196.039 242.67 192.5C242.31 187.578 239.34 177.678 234.64 175.041C231.21 173.12 228.1 172.634 225.28 169.574C222.8 166.893 224.78 156.648 224.91 152.847L225.19 152.207ZM32.0899 196.541C28.0799 202.122 25.8999 210.85 27.1099 217.687C28.2599 224.222 31.3599 229.469 36.9999 233.105C40.8799 235.604 46.9199 237.626 51.5899 237.001C54.4499 234.338 58.6399 232.681 61.9999 230.594C65.4499 228.454 67.32 227.161 69.4 223.588C61.98 226.652 52.88 229.483 45.02 226.5C40.99 224.971 38.4199 222.368 36.9699 218.319C34.5799 211.67 37.9699 204.097 40.8599 198.21C39.6499 198.621 38.6699 199.077 37.5999 199.773L36.51 200.5C33.93 199.299 33.5599 199.102 32.0899 196.541Z" fill="#96F2A3" fill-opacity="0.984314"/>
<path d="M32.09 196.541C33.56 199.102 33.93 199.299 36.51 200.5L37.6 199.773C38.67 199.077 39.65 198.621 40.86 198.21C37.97 204.097 34.58 211.67 36.97 218.319C38.42 222.368 40.99 224.971 45.02 226.5C52.88 229.483 61.98 226.652 69.4 223.588C67.32 227.161 65.45 228.454 62 230.594C58.64 232.681 54.45 234.338 51.59 237.001C46.92 237.626 40.88 235.604 37 233.105C31.36 229.469 28.26 224.222 27.11 217.687C25.9 210.85 28.08 202.122 32.09 196.541Z" fill="url(#paint0_linear_1_255)"/>
<path d="M69.4 223.588C72.71 221.457 74.53 220.665 78.5 221.032C85.16 225.111 90.86 229.093 98.16 232.187C119.23 241.112 142.11 242.283 164.59 240.994C162.37 243.15 160.58 244.113 157.5 244.55C131.81 248.188 101.07 243.882 79.92 228.181C78.36 228.428 77.3399 228.728 75.8199 228.153L75 227.755C73.11 228.887 72.16 230.448 70.84 232.171C68.32 235.219 60.9499 236.445 56.9399 236.87L51.59 237.001C54.45 234.338 58.64 232.681 62 230.594C65.45 228.454 67.32 227.161 69.4 223.588Z" fill="black"/>
<path d="M32.09 196.541C27.83 197.406 23.7301 197.225 19.5401 196.063C13.2801 194.327 7.80005 189.434 4.64005 183.855C0.550047 176.623 -0.329973 166.903 2.12003 159.001C5.42003 148.412 13.02 140.414 22.73 135.407C24.74 134.369 23.77 127.826 23.74 125.367C23.36 94.817 28.39 61.792 41.2 33.884C47.01 21.222 56.56 6.36502 70.39 1.55302C76.41 -0.537984 83.62 -0.340986 89.32 2.62601C101.16 8.79901 110.02 23.02 113.83 35.502L115.11 40.877L117.16 44.682C121.65 44.588 133.5 43.258 136.77 45.733L122.95 47.731C119.48 48.853 116.22 49.898 113.01 51.664C110.72 52.483 109.38 52.351 107.07 51.961L106.32 52.581C104.73 53.866 103.49 55.089 101.42 55.452C100.65 53.936 100.82 53.288 99.09 52.78L96.4201 52.084C94.4701 48.471 93.5901 43.204 92.4301 39.199C88.7601 30.504 86.11 23.552 78.89 17.094C75.41 19.919 71.02 22.982 68.23 26.498C63.47 32.518 60.21 40.621 57.33 47.714C50.24 65.145 44.1501 84.469 42.1801 103.27C41.6001 108.761 41.91 114.262 42.35 119.751C42.34 122.13 42.95 126.011 41.36 127.693C41.12 133.023 40.89 138.186 41.49 143.5C40.41 145.544 39.89 147.187 37.5 147.989C30.86 150.221 29.47 147.912 25.36 154.605C23.1 158.276 21.8001 161.892 20.6701 166.037C19.3001 165.705 19.5201 165.867 18.3001 165.127C15.4401 163.39 14.3501 158.747 13.6701 155.724C10.7301 162.65 8.63 169.491 11.59 176.84C13.35 181.22 16.7901 184.872 21.1801 186.649C27.0201 189.007 33.44 187.439 39 185.078C42.21 185.786 42.35 186.085 44.5 188.614C44.9 192.834 43.62 194.867 40.86 198.21C39.65 198.621 38.67 199.077 37.6 199.773L36.51 200.5C33.93 199.299 33.56 199.102 32.09 196.541ZM67.88 13.318C49.6 25.433 41.1 58.314 36.98 78.699C34.71 89.98 32.43 104.04 33.09 115.563L34.62 109.347C38.15 114.374 41.8 121.434 41.36 127.693C42.95 126.011 42.34 122.13 42.35 119.751C41.91 114.262 41.6001 108.761 42.1801 103.27C44.1501 84.469 50.24 65.145 57.33 47.714C60.21 40.621 63.47 32.518 68.23 26.498C71.02 22.982 75.41 19.919 78.89 17.094C86.11 23.552 88.7601 30.504 92.4301 39.199L92.3101 38.347C91.2701 31.317 87.4 17.501 81.5 13.075C79.32 12.746 77.2201 12.303 75.0301 12.734C72.6201 13.207 70.34 13.249 67.88 13.318ZM67.88 13.318C70.34 13.249 72.6201 13.207 75.0301 12.734C77.2201 12.303 79.32 12.746 81.5 13.075C87.4 17.501 91.2701 31.317 92.3101 38.347L92.4301 39.199C93.5901 43.204 94.4701 48.471 96.4201 52.084L99.09 52.78C100.82 53.288 100.65 53.936 101.42 55.452C103.49 55.089 104.73 53.866 106.32 52.581L107.07 51.961C109.38 52.351 110.72 52.483 113.01 51.664C111.69 50.813 109.14 49.588 108.11 48.5C107.1 47.43 105.91 42.302 105.32 40.703C103.13 34.789 100.63 28.548 97.44 23.108C93.96 17.179 88.23 11.072 81.26 9.58302C76.36 8.53502 71.83 10.594 67.88 13.318ZM33.09 115.563L33.1601 140.773C25.0801 144.661 18.8101 147.953 13.6701 155.724C14.3501 158.747 15.4401 163.39 18.3001 165.127C19.5201 165.867 19.3001 165.705 20.6701 166.037C21.8001 161.892 23.1 158.276 25.36 154.605C29.47 147.912 30.86 150.221 37.5 147.989C39.89 147.187 40.41 145.544 41.49 143.5C40.89 138.186 41.12 133.023 41.36 127.693C41.8 121.434 38.15 114.374 34.62 109.347L33.09 115.563Z" fill="black"/>
<path d="M33.09 115.563L34.62 109.347C38.15 114.374 41.8 121.434 41.36 127.693C41.12 133.023 40.89 138.186 41.49 143.5C40.41 145.544 39.89 147.187 37.5 147.989C30.86 150.221 29.47 147.912 25.36 154.605C23.1 158.276 21.8 161.892 20.67 166.037C19.3 165.705 19.52 165.867 18.3 165.127C15.44 163.39 14.35 158.747 13.67 155.724C18.81 147.953 25.08 144.661 33.16 140.773L33.09 115.563Z" fill="url(#paint1_linear_1_255)"/>
<path d="M67.88 13.318C71.83 10.594 76.36 8.53499 81.26 9.58299C88.23 11.072 93.9599 17.179 97.4399 23.108C100.63 28.548 103.13 34.789 105.32 40.703C105.91 42.302 107.1 47.43 108.11 48.5C109.14 49.588 111.69 50.813 113.01 51.664C110.72 52.483 109.38 52.351 107.07 51.961L106.32 52.581C104.73 53.866 103.49 55.089 101.42 55.452C100.65 53.936 100.82 53.288 99.09 52.78L96.42 52.084C94.47 48.471 93.5901 43.204 92.4301 39.199L92.3101 38.347C91.2701 31.317 87.4 17.501 81.5 13.075C79.32 12.746 77.22 12.303 75.03 12.734C72.62 13.207 70.34 13.249 67.88 13.318Z" fill="#A9E366" fill-opacity="0.964706"/>
<path d="M67.88 13.318C70.34 13.249 72.62 13.207 75.03 12.734C77.22 12.303 79.32 12.746 81.5 13.075C87.4 17.501 91.27 31.317 92.31 38.347L92.43 39.1989C88.76 30.5039 86.11 23.552 78.89 17.094C75.41 19.919 71.0199 22.982 68.2299 26.498C63.4699 32.518 60.2099 40.621 57.3299 47.714C50.2399 65.145 44.15 84.469 42.18 103.27C41.6 108.761 41.9099 114.262 42.3499 119.751C42.3399 122.13 42.95 126.011 41.36 127.693C41.8 121.434 38.15 114.374 34.62 109.347L33.0899 115.563C32.4299 104.04 34.7099 89.9799 36.9799 78.6989C41.0999 58.3139 49.6 25.433 67.88 13.318Z" fill="url(#paint2_linear_1_255)"/>
<path d="M126.5 53.66C136.75 53.046 150.27 53.124 159.15 59.125C162.42 60.003 165.09 60.814 167.91 62.782L168.73 64.476C162.56 92.449 160.49 120.371 161.98 148.98C168.46 150.525 184.87 152.742 188.44 158.364C189.37 159.819 189.22 161.327 189.36 163C188.54 164.771 187.54 167.138 185.93 168.339C183.4 170.214 179.53 170.938 176.66 172.293C170.49 175.207 163.4 179.426 158.05 183.644C150.65 187.99 143.35 198.73 135.02 199.5C127.76 194.877 121.25 189.201 114.91 183.402C110.98 179.454 106.46 175.444 101.95 172.174C96.42 168.161 86.72 162.755 84.5 155.852C83.54 152.881 84.22 151.297 85.5 148.74C91.74 145.155 101.28 147.635 108.27 148.676C109.07 144.996 108.23 140.308 107.99 136.527L106.96 115.619C106.38 96.651 109.52 78.162 114.58 59.929C118.17 56.678 121.05 55.6 125.67 54.345L126.5 53.66Z" fill="#71A75C"/>
<defs>
<linearGradient id="paint0_linear_1_255" x1="29.8478" y1="218.12" x2="60.2111" y2="212.87" gradientUnits="userSpaceOnUse">
<stop stop-opacity="0.968627"/>
<stop offset="1" stop-color="#050806"/>
</linearGradient>
<linearGradient id="paint1_linear_1_255" x1="17.4543" y1="125.316" x2="34.9333" y2="155.044" gradientUnits="userSpaceOnUse">
<stop stop-color="#9BFBA6" stop-opacity="0.952941"/>
<stop offset="1" stop-color="#94EFA0"/>
</linearGradient>
<linearGradient id="paint2_linear_1_255" x1="43.9866" y1="57.6468" x2="69.9846" y2="66.9166" gradientUnits="userSpaceOnUse">
<stop stop-color="#9EDF62" stop-opacity="0.960784"/>
<stop offset="1" stop-color="#A0E062"/>
</linearGradient>
</defs>
</svg>
