<svg width="249" height="248" viewBox="0 0 249 248" fill="none" xmlns="http://www.w3.org/2000/svg">
<path d="M246.265 106.707C248.747 110.43 247.921 114.767 247.744 119.059L246.49 144.602L245.272 138.819C245.611 134.015 245.961 129.984 244.17 125.429C242.898 122.193 241.225 116.55 242.691 113.179L246.265 106.707Z" fill="black"/>
<path d="M32.728 171.019C30.906 175.686 27.484 180.688 27.894 185.606C27.695 189.98 30.028 194.071 28.851 198.001C25.674 195.177 20.604 191.364 20.027 187C21.634 181.227 28.486 175.226 32.728 171.019Z" fill="url(#paint0_linear_1_249)"/>
<path d="M32.948 202.222C40.141 203.665 43.75 209.777 50.5 212.45L51.447 212.861C55.294 214.45 59.801 214.295 63.911 214.443C59.241 216.784 54.782 218.558 49.775 220.048C43.446 216.084 37.578 208.034 32.948 202.222Z" fill="black"/>
<path d="M239.314 144.944L245.272 138.819L246.49 144.602C246.205 148.058 246.152 148.52 244.007 151.213C240.897 152.223 225.601 156.802 224.331 159.412C223.022 162.103 222.485 165.569 221.45 168.423C219.801 172.97 217.334 177.117 214.673 181.13C214.559 179.142 214.326 177.085 214.716 175.12L215.005 174.005C215.472 171.84 215.809 169.992 217.067 168.099C217.892 166.858 217.507 163.606 217.51 162C218.3 160.85 218.627 159.975 218.885 158.623L219.149 157.168C220.486 156.914 221.691 156.809 222.834 156.028C223.987 155.241 224.709 154.834 226.094 154.474C228.31 153.898 228.478 151.702 230.995 151.12L232.5 150.821C233.21 150.073 233.795 149.57 234.741 149.138C237.165 148.032 237.998 147.271 239.314 144.944Z" fill="black"/>
<path d="M69.068 211.282L69.438 209.763L72 209.51C72.878 207.681 74.413 207.114 76.123 206.225C79.233 208.157 82.835 209.926 85.109 212.842L85.73 227C86.023 230.346 86.974 233.049 86.037 236.408L81.591 237.979C80.642 240.039 80.325 241.333 80.186 243.597C76.98 235.912 78.043 224.742 77.899 216.471C75.193 214.354 72.095 212.881 69.068 211.282Z" fill="black"/>
<path d="M27.894 185.606L28.952 186.324C30.692 190.314 34.342 193.225 37.297 196.353C42.096 201.436 46.516 206.967 51.625 211.737C54.269 210.339 57.212 209.058 59.636 207.32C63.8429 205.704 69.056 202.845 73.5 204.131L76.123 206.225C74.413 207.114 72.878 207.681 72 209.51L69.438 209.763L69.068 211.282L63.911 214.443C59.801 214.295 55.294 214.45 51.447 212.861L50.5 212.45C43.75 209.777 40.141 203.665 32.948 202.222C31.437 201.218 30.093 199.35 28.851 198.001C30.028 194.071 27.695 189.98 27.894 185.606Z" fill="black"/>
<path d="M171.253 220.959C173.957 221.82 176.833 224.545 179.741 224.365L181 224.245L182.5 224.49C183.788 224.448 184.592 223.699 186.031 223.888L187 224.086L188.125 224.305L189 224.49C194.959 222.105 210.563 206.525 213.093 200.15L213.5 199.065L223.077 198.066L197.521 224.681C195.82 226.295 192.953 229.631 190.768 230.451C186.577 232.026 177.357 231.07 172.625 231.472C169.191 229.808 166.315 228.565 163.777 225.6C164.263 223.769 164.855 222.74 166.005 221.239L171.253 220.959Z" fill="black"/>
<path d="M122.702 239.298L127.5 235.012C131.753 238.955 133.012 239.491 139.054 239.905L128.862 245.933C125.566 248.047 120.358 246.996 116.525 246.799C105.848 246.248 92.195 246.897 82.022 244.242C81.027 243.982 80.994 243.94 80.186 243.597C80.325 241.333 80.642 240.039 81.591 237.979L86.037 236.408C89.925 237.351 93.332 237.786 97.314 237.932L122.702 239.298Z" fill="black"/>
<path d="M86.037 236.408C89.925 237.351 93.332 237.786 97.314 237.932C93.634 239.695 90.274 240.933 86.168 241.168L85.257 241.886C83.752 243.011 81.988 243.254 80.186 243.597C80.325 241.333 80.642 240.039 81.591 237.979L86.037 236.408Z" fill="black"/>
<path d="M25.569 99.283L27.869 87.572L10.649 69.933C8.64501 68.069 8.10501 66.187 8.11601 63.533C8.14501 55.753 23.213 38.381 28.748 33.138C33.666 28.479 49.759 22.966 56.5 23.099C61.629 25.894 63.691 31.458 67.197 36.152C65.594 37.724 64.53 37.555 62.351 37.895L61.558 36.444C60.408 33.302 59.598 32.404 56.993 30.156L53.878 29.469L53.005 29.233L51.934 30.991L40.109 35.99L38.023 36.739L38.127 35.5L36.892 33.239L33.358 32.456L31.475 35C32.657 36.897 32.911 37.554 34.93 38.633L33.786 39.431C28.975 44.111 25.394 50.601 20.636 54.937C16.613 56.45 14.861 58.557 12.282 61.786C12.367 64.015 12.079 65.525 13.891 67.219L15.017 67.949C16.291 68.794 16.515 69.454 17.174 70.795C20.36 77.276 28.644 81.294 31.614 87.254C32.717 89.468 31.441 94.225 30.982 96.5C29.214 97.504 27.484 98.583 25.569 99.283Z" fill="black"/>
<path d="M32.728 171.019L34.317 168.5L30.819 158.263C24.691 157.351 11.672 157.238 6.41203 154.477C4.92803 153.698 4.61903 153.02 4.15803 151.534C1.85003 144.095 2.34103 134.32 1.66903 126.5C1.27203 121.877 -0.377966 116.06 1.80903 111.862C4.59303 110.254 7.29903 109.384 10.356 108.465C9.11003 111.984 7.06903 115.181 8.27403 118.775L10.536 139.603C10.646 141.026 10.506 145.391 11.056 146.5C11.416 147.226 12.352 147.474 13 147.961L18.903 148.834C24.719 149.592 31.308 149.858 36.75 152.065L43.149 169.731L43.116 172.715C37.37 176.789 33.926 181.655 28.952 186.324L27.894 185.606C27.484 180.688 30.906 175.686 32.728 171.019Z" fill="black"/>
<path d="M69.706 147.811L72.885 153.928C79.82 164.299 88.869 172.616 101.531 174.993C105.917 175.817 110.397 175.892 114.843 175.763C110.216 179.826 99.43 183.656 93.49 185.386C84.502 188.003 77.156 193.809 69.67 199.12C66.206 201.577 62.177 203.898 59.636 207.32C57.212 209.058 54.269 210.339 51.625 211.737C46.516 206.967 42.096 201.436 37.297 196.353C34.342 193.225 30.692 190.314 28.952 186.324C33.926 181.655 37.37 176.789 43.116 172.715L43.149 169.731L69.706 147.811Z" fill="#ACC4BD"/>
<path d="M69.706 147.811L72.885 153.928C62.937 160.061 52.249 165.425 43.116 172.715L43.149 169.731L69.706 147.811Z" fill="#9BA1AD"/>
<path d="M133.155 167.608C141.912 169.363 158.296 160.489 166.687 157.603C169.8 156.532 173.2 156.146 176.374 155.128C183.261 152.917 189.712 150.277 196.777 148.602C194.542 155.18 192.545 162.132 189.687 168.459C188.21 171.73 185.022 175.243 184.094 178.5C183.511 180.547 183.641 182.485 184.513 184.393C186.245 188.179 191.226 192.241 194.202 195.231L170.9 220.276L171.253 220.959L166.005 221.239C164.855 222.74 164.263 223.769 163.777 225.6C161.802 223.502 156.318 217.249 153.728 217.166C151.741 217.103 150.005 217.821 148.175 218.5C146.139 225.739 147.838 232.44 144.235 239.581L139.054 239.905C133.012 239.491 131.753 238.955 127.5 235.012L122.702 239.298L97.314 237.932C93.332 237.786 89.925 237.351 86.037 236.408C86.974 233.049 86.023 230.346 85.73 227L85.109 212.842C82.835 209.926 79.233 208.157 76.123 206.225L73.5 204.131C69.056 202.845 63.843 205.704 59.636 207.32C62.177 203.898 66.206 201.577 69.67 199.12C77.156 193.809 84.502 188.003 93.49 185.386C99.43 183.656 110.216 179.826 114.843 175.763C115.711 175.312 115.352 175.442 116.255 175.182C122.525 173.375 127.539 170.918 133.155 167.608ZM122.702 239.298L127.5 235.012C131.753 238.955 133.012 239.491 139.054 239.905L144.235 239.581C147.838 232.44 146.139 225.739 148.175 218.5C150.005 217.821 151.741 217.103 153.728 217.166C156.318 217.249 161.802 223.502 163.777 225.6C164.263 223.769 164.855 222.74 166.005 221.239L171.253 220.959L170.9 220.276L164.128 215.241L157.232 207.19L123.325 217.841C122.853 224.864 121.84 232.299 122.702 239.298Z" fill="#9BA1AD"/>
<path d="M122.702 239.298C121.84 232.299 122.853 224.864 123.325 217.841L157.232 207.19L164.128 215.241L170.9 220.276L171.253 220.959L166.005 221.239C164.855 222.74 164.263 223.769 163.777 225.6C161.802 223.502 156.318 217.249 153.728 217.166C151.741 217.103 150.005 217.821 148.175 218.5C146.139 225.739 147.838 232.44 144.235 239.581L139.054 239.905C133.012 239.491 131.753 238.955 127.5 235.012L122.702 239.298ZM164.128 215.241L163.108 215.406C158.942 216.048 154.954 215.675 150.843 216.149C149.061 216.354 146.481 215.704 145.356 217.027L142.928 219.5L141.297 231.995L143.51 233.5L144.235 239.581C147.838 232.44 146.139 225.739 148.175 218.5C150.005 217.821 151.741 217.103 153.728 217.166C156.318 217.249 161.802 223.502 163.777 225.6C164.263 223.769 164.855 222.74 166.005 221.239L171.253 220.959L170.9 220.276L164.128 215.241Z" fill="black"/>
<path d="M138.902 221.272L139.659 222.086L139.166 230C138.258 233.242 133.739 234.253 130.873 235.583L130.053 234.5C130.177 230.928 129.806 226.674 131.433 223.437L138.902 221.272Z" fill="#334569"/>
<path d="M164.128 215.241L170.9 220.276L171.253 220.959L166.005 221.239C164.855 222.74 164.263 223.769 163.777 225.6C161.802 223.502 156.318 217.249 153.728 217.166C151.741 217.103 150.005 217.821 148.175 218.5C146.139 225.739 147.838 232.44 144.235 239.581L143.51 233.5L141.297 231.995L142.928 219.5L145.356 217.027C146.481 215.704 149.061 216.354 150.843 216.149C154.954 215.675 158.942 216.048 163.108 215.406L164.128 215.241Z" fill="black"/>
<path d="M86.058 25.922C91.057 22.278 85.165 8.64301 88.233 2.50001C89.114 2.00401 90.577 0.883009 91.5 0.660009C94.808 -0.139991 100.275 0.705002 103.703 0.838002L132.283 2.07801C136.92 2.25701 141.841 1.45801 146.404 2.00701C149.439 2.37201 149.768 3.571 151.579 5.778L151.804 17.826C158.788 18.866 165.778 20.618 171.97 24.128C173.845 25.191 177.648 28.495 179.5 28.926C181.095 29.298 183.739 28.263 185.301 27.754C189.432 25.657 198.705 27.026 203.487 27.125C211.155 34.485 217.548 43.098 224.153 51.407C226.524 54.388 230.161 57.841 230.181 61.837C230.209 67.228 226.236 70.686 222.898 74.586C222.766 74.74 220.973 76.735 220.971 76.825C220.951 77.57 222.998 81.057 223.466 82.038C225.326 85.942 226.63 90.16 228.5 93.984C229.947 96.941 232.7 99.776 234.616 102.5C238.834 103.528 242.537 104.383 246.265 106.707L242.691 113.179C241.225 116.55 242.898 122.193 244.17 125.429C245.961 129.984 245.611 134.015 245.272 138.819L239.314 144.944C237.998 147.271 237.165 148.032 234.741 149.138C233.795 149.57 233.21 150.073 232.5 150.821L230.995 151.12C228.478 151.702 228.31 153.898 226.094 154.474C224.709 154.834 223.987 155.241 222.834 156.028C221.691 156.809 220.486 156.914 219.149 157.168L218.885 158.623C218.627 159.975 218.3 160.85 217.51 162C217.507 163.606 217.892 166.858 217.067 168.099C215.809 169.992 215.472 171.84 215.005 174.005L214.716 175.12C214.326 177.085 214.559 179.142 214.673 181.13L213.5 184.525C216.662 188.187 223.845 192.003 223.244 197.131L223.077 198.066L213.5 199.065L213.093 200.15C210.563 206.525 194.959 222.105 189 224.49L188.125 224.305L187 224.086L186.031 223.888C184.592 223.699 183.788 224.448 182.5 224.49L181 224.245L179.741 224.365C176.833 224.545 173.957 221.82 171.253 220.959L170.9 220.276L194.202 195.231C191.226 192.241 186.245 188.179 184.513 184.393C183.641 182.485 183.511 180.547 184.094 178.5C185.022 175.243 188.21 171.73 189.687 168.459C192.545 162.132 194.542 155.18 196.777 148.602C189.712 150.277 183.261 152.917 176.374 155.128C173.2 156.146 169.8 156.532 166.687 157.603C158.296 160.489 141.912 169.363 133.155 167.608C138.057 163.159 142.265 158.479 145.445 152.641L146.311 151.5C153.459 140.649 153.194 125.072 151.421 112.805C154.62 110.331 159.28 108.706 162.957 106.882L196.584 91.47C194.859 88.014 191.895 83.339 191.246 79.608C190.258 73.93 193.472 71.232 196.624 67.046L202.639 59.947L192.133 46.822C189.781 43.569 187.528 39.493 184.548 36.848L170.989 50.399C166.187 48.656 162.017 45.225 157.696 42.521C153.337 39.792 148.675 37.562 144.011 35.406C140.734 33.891 133.286 32.518 130.947 30.5C129.899 29.596 128.793 27.381 127.966 26.182C129.241 20.976 128.935 15.191 129.036 9.844L95.327 8.54101C95.59 14.456 97.512 25.38 94.327 30.32C91.506 32.364 88.64 32.71 85.5 33.918C81.422 35.486 77.288 38.05 73.667 40.472C69.492 43.264 65.659 46.456 62.108 50.003C58.735 53.371 56.108 57.39 51.5 58.747C46.613 56.557 36.878 44.27 33.786 39.431L34.93 38.633C32.911 37.554 32.657 36.897 31.475 35L33.358 32.456L36.892 33.239L38.127 35.5L38.023 36.739L40.109 35.99L51.934 30.991L53.005 29.233L53.878 29.469L56.993 30.156C59.598 32.404 60.408 33.302 61.558 36.444L62.351 37.895C64.53 37.555 65.594 37.724 67.197 36.152C72.33 31.663 79.358 27.367 86.058 25.922ZM143.253 9.709L144.693 12.399L145.058 13.241C145.295 13.852 145.98 17.597 146.205 17.831C147.26 18.926 150.621 19.952 152.114 20.985C154.15 22.395 157.125 21.972 159.5 22.561C161.734 23.114 163.773 24.332 165.939 25.095C169.905 26.494 172.768 30.832 176 33.49L177.256 32.693C178.608 31.854 179.532 31.808 180.995 31.35C182.703 30.815 184.111 29.023 185.301 27.754C183.739 28.263 181.095 29.298 179.5 28.926C177.648 28.495 173.845 25.191 171.97 24.128C165.778 20.618 158.788 18.866 151.804 17.826L151.579 5.778L148.5 9.51L143.253 9.709ZM67.197 36.152C65.594 37.724 64.53 37.555 62.351 37.895C63.059 40.404 63.562 41.71 65.5 43.49C71.516 39.688 78.333 31.853 84.904 29.648L85.5 29.49L86.058 25.922C79.358 27.367 72.33 31.663 67.197 36.152Z" fill="black"/>
<path d="M144.693 12.399C144.353 14.457 144.005 16.305 143.238 18.263C140.529 19.35 139.338 20.443 136.51 19.5C136.508 16.305 136.142 12.957 137.5 9.99998L143.253 9.70898L144.693 12.399Z" fill="#334569"/>
<path d="M199.392 147.069C206.706 145.72 214.999 143.521 221.753 140.481L220.688 149.43C214.14 148.927 205.52 149.253 199.392 147.069Z" fill="#9BA1AD"/>
<path d="M67.197 36.152C72.33 31.663 79.358 27.367 86.058 25.922L85.5 29.49L84.904 29.648C78.333 31.853 71.516 39.688 65.5 43.49C63.562 41.71 63.059 40.404 62.351 37.895C64.53 37.555 65.594 37.724 67.197 36.152Z" fill="black"/>
<path d="M145.726 24.979L147.665 24.985C155.902 25.531 169.542 29.318 175.176 35.5L171.814 39.726C170.876 39.954 169.956 40.543 169 40.41C167.127 40.15 162.378 36.162 160.507 35.016C155.805 32.135 150.463 29.913 145.5 27.49L145.726 24.979Z" fill="#222C54"/>
<path d="M51.934 30.991L54.637 31.5L60.608 40.889L52.072 49.503C48.325 44.644 44.73 40.05 40.109 35.99L51.934 30.991Z" fill="#334569"/>
<path d="M192.815 34.481L200 34.895C206.925 39.323 213.841 50.839 219.402 57.298L210.5 56.929L192.815 34.481Z" fill="#334569"/>
<path d="M143.253 9.70901L148.5 9.51001L151.579 5.77802L151.804 17.826C158.788 18.866 165.778 20.618 171.97 24.128C173.845 25.191 177.648 28.495 179.5 28.926C181.095 29.298 183.739 28.263 185.301 27.754C184.111 29.023 182.703 30.815 180.995 31.35C179.532 31.808 178.608 31.854 177.256 32.693L176 33.49C172.768 30.832 169.905 26.494 165.939 25.095C163.773 24.332 161.734 23.114 159.5 22.561C157.125 21.972 154.15 22.395 152.114 20.985C150.621 19.952 147.26 18.926 146.205 17.831C145.98 17.597 145.295 13.852 145.058 13.241L144.693 12.399L143.253 9.70901Z" fill="black"/>
<path d="M199.949 200.325L208.5 200.066L209.237 201L187.981 223.15L180 222.885L179.736 221.941L199.949 200.325Z" fill="#334569"/>
<path d="M230.548 119.237L240.35 113.469L239.314 144.944L228.627 148.643L230.548 119.237Z" fill="#334569"/>
<path d="M202.306 155.461L217.199 156.882C215.517 162.757 213.578 167.697 210.695 173.097C209.118 176.05 206.603 179.371 205.539 182.5C204.37 185.941 206.095 188.135 207.528 191.118L206 192.167C205.076 192.118 202.746 192.289 202 191.956C199.178 190.693 193.626 183.764 191.149 181.365C196.567 173.418 199.491 164.559 202.306 155.461Z" fill="#222C54"/>
<path d="M208.567 64.823L221.162 64.985C218.533 67.992 215.678 70.961 213.709 74.456C213.001 75.712 213.364 78.169 213.863 79.5C215.156 82.946 217.416 86.048 218.778 89.5C220.647 94.239 221.366 100.874 224.059 105.075C225.179 106.822 227.222 107.813 229.006 108.752L229.939 109.225L229.803 111.81C223.387 110.08 216.725 109.428 210.147 108.578C207.315 97.456 203.487 87.633 198.125 77.488L208.567 64.823Z" fill="#222C54"/>
<path d="M196.584 91.47C199.027 98.091 201.468 104.574 202.935 111.5C208.219 116.95 215.681 117.118 222.975 118.187L221.753 140.481C214.999 143.521 206.706 145.72 199.392 147.069L196.777 148.602C189.712 150.277 183.261 152.917 176.374 155.128C173.2 156.146 169.8 156.532 166.687 157.603C158.296 160.489 141.912 169.363 133.155 167.608C138.057 163.159 142.265 158.479 145.445 152.641L146.311 151.5C153.459 140.649 153.194 125.072 151.421 112.805C154.62 110.331 159.28 108.706 162.957 106.882L196.584 91.47Z" fill="#ACC4BD"/>
<path d="M33.786 39.431C36.878 44.27 46.613 56.557 51.5 58.747C56.108 57.39 58.735 53.371 62.108 50.003C65.659 46.456 69.492 43.264 73.667 40.472C77.288 38.05 81.422 35.486 85.5 33.918C88.64 32.71 91.506 32.364 94.327 30.32C97.512 25.38 95.59 14.456 95.327 8.54102L129.036 9.84401C128.935 15.191 129.241 20.976 127.966 26.182C128.793 27.381 129.899 29.596 130.947 30.5C133.286 32.518 140.734 33.891 144.011 35.406C148.675 37.562 153.337 39.792 157.696 42.521C162.017 45.225 166.187 48.656 170.989 50.399L184.548 36.848C187.528 39.493 189.781 43.569 192.133 46.822L202.639 59.947L196.624 67.046C193.472 71.232 190.258 73.93 191.246 79.608C191.895 83.339 194.859 88.014 196.584 91.47L162.957 106.882C159.28 108.706 154.62 110.331 151.421 112.805C153.194 125.072 153.459 140.649 146.311 151.5L145.445 152.641C142.265 158.479 138.057 163.159 133.155 167.608C127.539 170.918 122.525 173.375 116.255 175.182C115.352 175.442 115.711 175.312 114.843 175.763C110.397 175.892 105.917 175.817 101.531 174.993C88.869 172.616 79.82 164.299 72.885 153.928L69.706 147.811L43.149 169.731L36.75 152.065C31.308 149.858 24.719 149.592 18.903 148.834L13 147.961C12.352 147.474 11.416 147.226 11.056 146.5C10.506 145.391 10.646 141.026 10.536 139.603L8.27399 118.775C7.06899 115.181 9.10999 111.984 10.356 108.465C15.926 105.867 20.661 102.981 25.569 99.283C27.484 98.583 29.214 97.504 30.982 96.5C31.441 94.225 32.717 89.468 31.614 87.254C28.644 81.294 20.36 77.276 17.174 70.795C16.515 69.454 16.291 68.794 15.017 67.949L13.891 67.219C12.079 65.525 12.367 64.015 12.282 61.786C14.861 58.557 16.613 56.45 20.636 54.937C25.394 50.601 28.975 44.111 33.786 39.431ZM69.706 147.811L72.885 153.928C79.82 164.299 88.869 172.616 101.531 174.993C105.917 175.817 110.397 175.892 114.843 175.763C115.711 175.312 115.352 175.442 116.255 175.182C122.525 173.375 127.539 170.918 133.155 167.608C138.057 163.159 142.265 158.479 145.445 152.641L146.311 151.5C153.459 140.649 153.194 125.072 151.421 112.805L150.473 110.323C149.399 104.908 146.668 100.271 144.113 95.44C139.387 88.421 133.307 82.38 125.5 78.932L124.189 78.343C114.71 74.268 103.507 74.285 93.978 78.163C82.631 82.78 73.965 93.123 69.387 104.241C63.67 118.122 64.28 133.953 69.706 147.811Z" fill="#ACC4BD"/>
<path d="M144.113 95.44C150.083 91.368 156.32 88.424 162.5 84.787C173.175 78.506 184.668 70.562 196.624 67.046C193.472 71.232 190.258 73.93 191.246 79.608C191.895 83.339 194.859 88.014 196.584 91.47L162.957 106.882C159.28 108.706 154.62 110.331 151.421 112.805L150.473 110.323C149.399 104.908 146.668 100.271 144.113 95.44Z" fill="#9BA1AD"/>
<path d="M33.786 39.431C36.878 44.27 46.613 56.557 51.5 58.747C56.108 57.39 58.735 53.371 62.108 50.003C65.659 46.456 69.492 43.264 73.667 40.472C77.288 38.05 81.422 35.486 85.5 33.918C88.64 32.71 91.506 32.364 94.327 30.32C97.512 25.38 95.59 14.456 95.327 8.54102L129.036 9.84401C128.935 15.191 129.241 20.976 127.966 26.182L127 24.849C98.068 48.133 71.138 74.536 48.5 104.038C41.862 112.69 35.215 120.059 29.426 129.419C25.756 135.354 21.064 140.285 18.5 146.949L18.903 148.834L13 147.961C12.352 147.474 11.416 147.226 11.056 146.5C10.506 145.391 10.646 141.026 10.536 139.603L8.27399 118.775C7.06899 115.181 9.10999 111.984 10.356 108.465C15.926 105.867 20.661 102.981 25.569 99.283C27.484 98.583 29.214 97.504 30.982 96.5C31.441 94.225 32.717 89.468 31.614 87.254C28.644 81.294 20.36 77.276 17.174 70.795C16.515 69.454 16.291 68.794 15.017 67.949L13.891 67.219C12.079 65.525 12.367 64.015 12.282 61.786C14.861 58.557 16.613 56.45 20.636 54.937C25.394 50.601 28.975 44.111 33.786 39.431Z" fill="#9BA1AD"/>
<path d="M25.569 99.283C27.484 98.583 29.214 97.504 30.982 96.5C31.441 94.225 32.717 89.468 31.614 87.254C28.644 81.294 20.36 77.276 17.174 70.795C16.515 69.454 16.291 68.794 15.017 67.949L13.891 67.219C12.079 65.525 12.367 64.015 12.282 61.786C14.861 58.557 16.613 56.45 20.636 54.937C19.647 56.465 15.752 61.385 16.186 62.913C18.55 71.229 33.634 77.454 35.048 86L35.205 86.903C35.839 91.679 33.637 100.638 31.901 105.111C25.257 109.996 17.15 114.075 9.49999 117.133L8.27399 118.775C7.06899 115.181 9.10999 111.984 10.356 108.465C15.926 105.867 20.661 102.981 25.569 99.283Z" fill="black"/>
<path d="M69.706 147.811C64.28 133.953 63.67 118.122 69.387 104.241C73.965 93.123 82.631 82.78 93.978 78.163C103.507 74.285 114.71 74.268 124.189 78.343L125.5 78.932C133.307 82.38 139.387 88.421 144.113 95.44C146.668 100.271 149.399 104.908 150.473 110.323L151.421 112.805C153.194 125.072 153.459 140.649 146.311 151.5L145.445 152.641C142.265 158.479 138.057 163.159 133.155 167.608C127.539 170.918 122.525 173.375 116.255 175.182C115.352 175.442 115.711 175.312 114.843 175.763C110.397 175.892 105.917 175.817 101.531 174.993C88.869 172.616 79.82 164.299 72.885 153.928L69.706 147.811ZM121.02 85.906C107.501 95.853 101.04 105.323 98.489 122.132C96.435 135.664 99.432 147.957 107.546 158.911C107.745 160.918 107.843 163.061 108.436 164.994C109.173 167.392 109.927 167.306 112.007 168.319C115.143 167.559 119.505 166.831 122.594 168.035L123.5 168.432C128.181 165.196 133.174 162.068 137.598 158.5C140.181 156.417 141.457 154.6 144.621 153.035L145.445 152.641L146.311 151.5C153.459 140.649 153.194 125.072 151.421 112.805L150.473 110.323C146.918 108.71 145.92 105.886 144.188 102.585C143.531 101.332 143.362 101.015 142.25 100.052L141.047 100.057C138.386 95.373 135.189 91.797 130.887 88.54L129.5 87.51C127.481 85.682 125.404 83.519 122.51 83.5L121.02 85.906Z" fill="black"/>
<path d="M74.198 113.824C77.994 101.766 84.135 91.746 95.749 85.877C100.648 83.401 107.073 82.871 112.426 82.029C101.442 91.387 94.966 100.869 92.052 115.162C92.032 111.941 92.709 109.286 90.5 106.801L88.656 106.73C82.481 106.799 78.41 109.638 74.198 113.824Z" fill="#222C54"/>
<path d="M74.198 113.824C78.41 109.638 82.481 106.799 88.656 106.73L90.5 106.801C92.709 109.286 92.032 111.941 92.052 115.162C91.237 118.682 90.549 122.161 90.353 125.778C89.399 143.348 94.582 155.869 106.173 168.706C95.089 165.022 87.397 161.525 80.408 151.575C72.724 140.636 72.127 126.533 74.198 113.824Z" fill="#334569"/>
<path d="M121.02 85.906L122.51 83.5C125.404 83.519 127.481 85.682 129.5 87.51L130.887 88.54C135.189 91.797 138.386 95.373 141.047 100.057L142.25 100.052C143.362 101.015 143.531 101.332 144.188 102.585C145.92 105.886 146.918 108.71 150.473 110.323L151.421 112.805C153.194 125.072 153.459 140.649 146.311 151.5L145.445 152.641L144.621 153.035C141.457 154.6 140.181 156.417 137.598 158.5C133.174 162.068 128.181 165.196 123.5 168.432L122.594 168.035C119.505 166.831 115.143 167.559 112.007 168.319C109.927 167.306 109.173 167.392 108.436 164.994C107.843 163.061 107.745 160.918 107.546 158.911L108.39 159.556C110.267 161.016 112.315 162.813 114.5 163.782C117.141 164.954 120.46 165.532 123.055 164.307C132.404 159.891 138.817 150.834 142.099 141.275C146.138 129.51 145.657 115.718 140.063 104.489C136.098 96.528 129.704 88.837 121.02 85.906Z" fill="black"/>
<defs>
<linearGradient id="paint0_linear_1_249" x1="27.0237" y1="183.301" x2="22.7414" y2="186.671" gradientUnits="userSpaceOnUse">
<stop stop-opacity="0.952941"/>
<stop offset="1"/>
</linearGradient>
</defs>
</svg>
