<svg width="336" height="304" viewBox="0 0 336 304" fill="none" xmlns="http://www.w3.org/2000/svg">
<path d="M79.68 62.3967L103.337 30L117.531 37.1115L130.149 58.4459L136.457 78.9902L179.04 73.459L204.274 78.9902L215.314 52.9148L236.606 30L246.069 37.1115L268.937 87.682L274.457 139.833V173.81H280.766L292.594 178.551L306 194.354V219.639L288.651 228.331L261.051 219.639L268.937 228.331V261.518L253.166 271L231.874 266.259L215.314 252.036L204.274 257.567L189.291 266.259L170.366 271L145.131 266.259L125.417 252.036H117.531L103.337 266.259L83.6229 271L70.2171 257.567L67.0629 240.184L70.2171 222.8L51.2914 228.331L30 219.639V203.836L38.6743 185.662L51.2914 173.81H62.3314V156.426L67.0629 110.597L79.68 62.3967Z" fill="#EAD1A8" stroke="black"/>
<path d="M263.956 207.854C274.872 195.255 273.321 180.557 271.18 174.782C271.18 166.646 272.946 155.254 280.01 174.782C288.839 199.192 250.31 223.602 263.956 207.854Z" fill="#AAC7CE"/>
<path d="M280.01 221.24C298.632 212.421 299.007 193.943 296.866 185.806C301.147 191.843 309.067 206.121 306.498 214.94C303.288 225.964 256.732 232.264 280.01 221.24Z" fill="#AAC7CE"/>
<path d="M253.11 131.444C245.488 85.4039 224.527 64.4337 215 59.7036C221.881 47.8783 236.754 25.8044 241.2 32.1112C267.401 61.2803 253.11 139.327 253.11 131.444Z" fill="#AAC7CE"/>
<path d="M249.776 241.57C248.508 245.227 233.397 252.745 226 256.047C227.849 259.349 232.816 265.496 237.888 263.667C244.228 261.381 251.361 236.998 249.776 241.57Z" fill="#AAC7CE"/>
<path d="M256 153.383C263.562 142.677 270.179 115.333 272.542 103C274.643 117.17 278.372 147.085 276.481 153.383C274.591 159.681 262.039 171.752 256 177V153.383Z" fill="#AAC7CE"/>
<path d="M148.249 242.923C96.352 233.441 70.72 181.023 64.3911 156V173.385H53.3156L34.3289 182.077L28 198.671L34.3289 223.958H53.3156L77.84 216.846L69.1378 230.28V257.937L88.9156 269C101.573 265.312 123.566 257.937 110.276 257.937C93.6622 257.937 78.6311 233.441 88.9156 237.392C99.2 241.343 156.16 248.455 148.249 242.923Z" fill="#AAC7CE"/>
<path d="M98.7323 26.9398C89.6033 33.0258 84.0419 40.2661 75.8572 56.6355C63.0555 82.0289 55.5004 119.804 56.5498 152.333L57.0744 166.709L53.1919 167.338C48.575 168.073 38.3966 175.208 33.3599 181.189C27.9034 187.905 23.8111 197.034 23.1815 204.694C21.6075 220.644 32.2056 231.032 50.044 231.137C53.8215 231.242 58.4385 230.822 60.4322 230.402C63.6851 229.773 63.895 229.878 63.1605 231.557C61.4816 235.859 60.9569 245.618 62.2161 251.704C63.895 259.678 66.8331 265.45 71.4501 269.437C76.4868 273.949 81.5235 275.313 89.9181 274.789C98.2077 274.159 107.127 269.857 115.207 262.616L120.453 257.999L126.015 261.672C140.6 271.326 154.451 276.048 168.302 276.048C182.783 276.048 194.955 272.27 208.911 263.456C213.737 260.413 216.466 259.259 217.41 259.888C218.145 260.413 221.293 262.931 224.336 265.45C235.248 274.369 248.785 278.146 258.333 274.998C270.715 270.906 278.585 253.697 275.332 237.853C274.073 231.452 274.073 230.927 275.542 231.452C280.054 233.236 291.177 233.236 297.158 231.452C305.868 228.933 312.688 222.113 314.367 214.453C316.676 203.54 312.163 191.158 301.67 180.035C295.584 173.529 286.875 167.968 282.678 167.968C281.104 167.968 280.789 167.443 281.314 165.555C283.832 155.271 282.783 122.008 279.215 101.861C274.493 74.9985 263.37 47.8212 252.143 35.859C243.538 26.5201 236.718 24.3165 228.848 27.9891C220.663 31.8716 209.12 48.7656 203.664 64.5053C201.985 69.4371 200.096 73.5295 199.362 73.5295C198.627 73.5295 194.325 72.2703 189.918 70.8012C175.542 65.9744 158.543 66.3941 145.217 71.9555C142.174 73.2147 141.23 73.3196 140.81 72.2703C133.884 50.7593 127.589 38.902 119.194 31.0321C114.787 26.9398 109.016 24.2116 104.504 24.2116C103.559 24.2116 100.936 25.4707 98.7323 26.9398ZM113.108 42.2598C118.25 47.9261 124.755 61.0426 128.218 73.0048C132.835 88.5347 134.199 89.3742 145.217 84.4424C161.901 77.0971 176.277 77.0971 192.856 84.4424C202.195 88.5347 204.608 88.7446 207.651 85.5966C209.225 84.1276 211.114 80.2451 212.059 76.3626C215.941 62.4067 227.274 43.4141 233.884 39.8464C238.921 37.1182 248.365 48.3458 256.76 67.1286C266.203 88.4298 270.401 111.934 270.401 144.358C270.401 158.419 269.351 171.746 267.777 179.091C267.043 182.239 269.876 183.078 273.863 181.084C280.684 177.727 286.875 179.93 294.43 188.64C302.72 197.978 305.763 208.786 301.88 214.977C296.424 223.792 281.523 223.687 265.679 214.558C261.167 212.039 257.284 209.941 257.179 209.941C256.969 209.941 256.13 211.305 255.186 213.089C252.877 217.496 253.192 222.218 255.815 223.792C256.969 224.526 259.383 227.884 261.062 231.137C263.685 236.384 264.105 238.272 264.105 245.827C264.105 252.648 263.685 255.271 262.006 257.895C259.068 262.721 255.395 264.82 249.834 264.715C243.118 264.505 236.508 260.938 227.693 252.543C218.879 244.253 216.781 243.729 210.275 248.661C204.084 253.278 192.122 259.783 185.931 261.882C177.431 264.925 162.846 265.135 154.241 262.512C145.637 259.993 137.137 255.586 128.428 249.185C124.86 246.667 120.978 244.568 119.614 244.568C118.145 244.568 114.787 247.087 110.38 251.284C95.1646 266.184 80.789 267.968 74.8079 255.481C73.2339 252.228 73.024 249.71 73.3388 242.994C73.8635 233.655 76.0671 228.199 81.4186 223.162C85.1961 219.49 85.5109 217.076 82.5728 212.249C80.1594 208.262 80.0545 208.262 76.4868 210.885C64.2098 219.49 48.47 222.323 40.0755 217.496C35.2486 214.558 33.8845 211.41 34.724 204.379C35.6683 196.719 42.0692 186.856 49.4144 181.924C54.9758 178.146 59.3829 177.517 63.6851 180.035C69.981 183.603 70.5057 181.819 68.9317 160.203C66.0986 119.49 75.4375 76.3626 92.8561 50.7593C97.8929 43.3091 103.874 37.8527 106.917 37.8527C108.071 37.8527 110.799 39.7415 113.108 42.2598Z" fill="black"/>
<rect x="90.7202" y="165.945" width="114.9" height="114.9" rx="25" transform="rotate(-45 90.7202 165.945)" fill="#F1F0D7"/>
<path d="M159.503 103.366C143.663 115.06 117.227 142.345 106.632 157.937C101.807 165.101 101.807 168.472 106.527 176.373C121.214 200.814 159.398 236 171.252 236C182.686 235.895 218.668 204.079 234.508 180.06C241.432 169.736 241.641 166.681 236.082 158.042C233.564 154.25 228.424 147.402 224.542 142.767C214.367 130.757 189.505 106.632 181.847 101.365C172.616 95.1492 170.413 95.3599 159.503 103.366ZM181.742 115.692C196.219 127.386 224.542 158.042 224.542 162.045C224.542 164.152 202.198 188.488 191.498 198.18C187.512 201.867 182.896 205.976 181.428 207.345C175.553 212.613 163.909 212.402 152.579 206.819C143.243 202.289 120.375 179.849 115.339 170.473C113.556 167.208 115.025 163.942 121.424 156.251C139.257 134.866 166.427 109.582 171.777 109.582C173.035 109.582 177.546 112.321 181.742 115.692Z" fill="#AE0058"/>
<rect x="100.62" y="165.945" width="100.9" height="100.9" rx="18" transform="rotate(-45 100.62 165.945)" stroke="black" stroke-width="14"/>
<ellipse cx="172.5" cy="192" rx="13.5" ry="14" fill="#010004"/>
<circle cx="172.5" cy="138.5" r="13.5" fill="#010004"/>
<circle cx="145" cy="166" r="14" fill="#010004"/>
<ellipse cx="199.5" cy="166" rx="13.5" ry="14" fill="#010004"/>
</svg>
