<svg width="334" height="324" viewBox="0 0 334 324" fill="none" xmlns="http://www.w3.org/2000/svg">
<path d="M292.729 115.299C295.528 109.814 298.707 103.971 304.876 101.686C307.738 100.626 310.677 100.981 313.329 102.424C316.094 103.928 317.929 106.35 318.739 109.39C320.154 114.706 317.857 120.171 314.949 124.534C311.848 129.185 307.035 134.011 302.118 136.699C302.583 134.963 302.953 133.694 304.036 132.229C307.724 127.244 309.511 123.208 310.747 117.109L312.166 114.346L312.967 113.9C313.825 112.138 314.289 110.946 314.423 108.971C314.556 107.008 314.32 107.099 313.005 105.603C302.979 105.87 301.621 110.948 293.521 114.923L292.729 115.299Z" fill="#9F9086" fill-opacity="0.960784"/>
<path d="M41.094 12.773L58.282 54.688L59.562 54.325C68.963 51.718 82.089 51.761 91.36 55.096C84.429 55.385 78.511 55.024 72 57.826C69.483 58.909 66.868 59.331 64.25 60.059C62.787 60.466 61.506 60.558 60 60.5C59.188 58.051 59.083 57.935 57 56.406C54.016 56.781 52.853 58.402 50.34 58.772C50.583 54.138 45.967 46.062 44.26 41.375C44.772 33.41 42.591 28.539 40.097 21C40.741 18.335 40.85 15.504 41.094 12.773Z" fill="black"/>
<path d="M252.319 210.946C252.396 215.573 251.961 220.921 253.541 225.279C254.559 226.307 255.27 226.78 256.5 227.487L288.085 219.326C285.455 223.84 284.728 224.981 279.652 226.614C277.201 227.403 276.169 228.418 274.671 230.448C270.114 232.413 265.318 233.078 260.6 234.5C257.697 235.375 254.369 237.356 251.336 237.356C248.074 237.356 246.93 238.603 243.858 237.082L243.009 234.5C244.154 226.292 248.294 218.091 252.319 210.946Z" fill="#9F9086" fill-opacity="0.980392"/>
<path d="M292.729 115.299L293.521 114.923C301.621 110.948 302.979 105.87 313.005 105.603C314.32 107.099 314.556 107.008 314.423 108.971C314.289 110.946 313.825 112.138 312.967 113.9L312.166 114.346L310.747 117.109C309.511 123.208 307.724 127.244 304.036 132.229C302.953 133.694 302.583 134.963 302.118 136.699L301.765 137.243C299.308 139.957 294.597 142.93 291 143.433C288.162 142.317 287.988 142.502 286.5 139.642C286.413 130.913 289.352 123.225 292.729 115.299ZM310.747 117.109L312.166 114.346C311.104 111.57 311.253 110.353 308.5 109.037C304.909 110.086 303.413 111.889 301.611 115.112C298.486 120.705 296.273 126.587 295.138 132.892C301.056 127.985 306.258 123.437 310.747 117.109Z" fill="#9F9086"/>
<path d="M310.747 117.109C306.258 123.437 301.056 127.985 295.138 132.892C296.273 126.587 298.486 120.705 301.611 115.112C303.413 111.889 304.909 110.086 308.5 109.037C311.253 110.353 311.104 111.57 312.166 114.346L310.747 117.109Z" fill="#E4D6AF" fill-opacity="0.988235"/>
<path d="M222.153 209.241C223.447 211.749 224.502 212.797 223.718 215.664C222.118 221.52 216.239 228.848 212.961 234.116C195.396 262.346 174.633 288.088 149.095 309.5C143.416 314.261 136.507 318.288 130.339 322.463L119.224 321.514L130.5 319.554C130.923 318.584 131.331 317.714 131.99 316.877C133.859 314.503 134.876 312.118 136.027 309.352C138.357 306.849 141.997 305.158 144.654 302.902C152.189 296.507 159.642 289.465 166.491 282.346L185.572 260.074C188.894 256.553 191.618 252.221 194.436 248.28C196.796 247.399 198.172 246.501 199.886 244.654C205.733 238.357 211.942 231.704 215.602 223.796C216.705 221.414 217.018 218.533 218.005 216.005C219.48 215.703 220.292 215.416 221.5 214.51L222.153 209.241Z" fill="black"/>
<path d="M112.093 104.799L112.468 105.737C114.533 111.236 115.024 117.108 115.729 122.902C153.903 128.131 188.366 145.299 218.975 168.342C216.965 168.364 212.754 168.991 211 168.429C207.755 167.391 204.717 162.747 201.5 161.633C200.387 161.248 197.126 161.594 195.828 161.582C167.831 144.827 139.619 132.3 106.708 130.057L105.597 125.5L101.077 123.037L108.136 121.564C109.483 120.007 110.259 117.154 111.167 115.25L111.533 114.5C110.94 111.34 111.249 109 111.864 105.905L112.093 104.799Z" fill="url(#paint0_linear_1_250)"/>
<path d="M255.636 205.225C266.616 187.382 281.005 168.935 302.577 163.782C308.782 162.3 315.306 164.196 320.558 167.576C326.118 171.153 332.344 176.3 333.482 183.191C334.795 191.139 329.86 199.511 325.167 205.49C313.867 219.885 292.282 228.016 274.671 230.448C276.169 228.418 277.201 227.403 279.652 226.614C284.728 224.981 285.455 223.84 288.085 219.326C293.068 214.891 304.609 211.949 310.913 208.689L318.973 200.569C322.835 195.767 325.996 190.257 325.354 183.925C323.406 179.531 320.299 176.677 316.311 174.145C310.059 170.176 305.604 171.092 298.751 172.63C295.788 174.925 292.497 176.36 289.401 178.413C285.103 181.262 281.09 184.881 277.115 188.171C272.09 189.595 267.109 193.787 263.758 197.71C260.973 200.97 259.861 203.738 255.636 205.225Z" fill="#9F9086" fill-opacity="0.952941"/>
<path d="M298.751 172.63C301.782 169.905 306.986 167.351 311.156 167.697C316.228 168.119 320.772 171.488 323.811 175.414C327.238 179.841 329.881 184.152 328.845 190C328.585 191.469 328.583 191.132 327.996 192.5L327.579 193.536C326.398 196.399 325.199 197.962 323.11 200.172C319.531 203.96 316.377 207.949 310.913 208.689L318.973 200.569C322.835 195.767 325.996 190.257 325.354 183.925C323.406 179.531 320.299 176.677 316.311 174.145C310.059 170.176 305.604 171.092 298.751 172.63Z" fill="#9F9086"/>
<path d="M79.429 128.054C86.584 125.632 93.66 124.295 101.077 123.037L105.597 125.5L106.708 130.057L98.096 130.916L78.779 136.067C69.717 139.986 59.529 144.264 52.962 151.938L43.9911 240.373C39.7271 245.058 43.091 257.796 39.757 264.5C36.922 270.201 43.136 286.833 45.411 293.119C48.746 302.335 55.1141 306.138 60.6421 313.417C61.5311 314.587 61.3711 314.749 60.9781 316.157C56.5971 313.774 49.533 306.875 46.612 302.788C42.092 296.466 39.522 289.415 38.05 281.844C35.224 267.307 36.147 251.325 36.701 236.617C37.69 210.34 39.703 183.548 43.982 157.599C44.379 154.159 44.905 151.143 45.996 147.85C55.203 138.363 65.404 133.734 77.261 128.353L79.429 128.054ZM79.429 128.054L78.5 130.731C84.956 131.033 91.711 130.133 98.096 130.916L106.708 130.057L105.597 125.5L101.077 123.037C93.66 124.295 86.584 125.632 79.429 128.054Z" fill="url(#paint1_linear_1_250)"/>
<path d="M79.429 128.054C86.584 125.632 93.66 124.295 101.077 123.037L105.597 125.5L106.708 130.057L98.096 130.916C91.711 130.133 84.956 131.033 78.5 130.731L79.429 128.054Z" fill="black"/>
<path d="M298.751 172.63C305.604 171.092 310.059 170.176 316.311 174.145C320.299 176.677 323.406 179.531 325.354 183.925C325.996 190.257 322.835 195.767 318.973 200.569L310.913 208.689C304.609 211.949 293.068 214.891 288.085 219.326L256.5 227.487C255.27 226.78 254.559 226.307 253.541 225.279C251.961 220.921 252.396 215.573 252.319 210.946L255.636 205.225C259.861 203.738 260.973 200.97 263.758 197.71C267.109 193.787 272.09 189.595 277.115 188.171C281.09 184.881 285.103 181.262 289.401 178.413C292.497 176.36 295.788 174.925 298.751 172.63Z" fill="#E4D6AF"/>
<path d="M255.636 205.225C259.861 203.738 260.973 200.97 263.758 197.71C267.109 193.787 272.09 189.595 277.115 188.171C267.491 199.325 259.803 211.976 253.541 225.279C251.961 220.921 252.396 215.573 252.319 210.946L255.636 205.225Z" fill="#9F9086"/>
<path d="M1.71997 19.716L1.198 17.5C1.711 15.748 2.22702 14.754 3.41302 13.33C11.403 3.732 25.442 1.7556 37.063 0.465698C38.966 4.386 39.952 8.585 41.094 12.773C40.85 15.504 40.741 18.335 40.097 21C42.591 28.539 44.772 33.41 44.26 41.375C45.967 46.062 50.583 54.138 50.34 58.772C52.853 58.402 54.016 56.781 57 56.406C59.083 57.935 59.188 58.051 60 60.5C61.506 60.558 62.787 60.466 64.25 60.059C66.868 59.331 69.483 58.909 72 57.826C78.511 55.024 84.429 55.385 91.36 55.096C94.789 56.454 96.681 57.638 99.029 60.5C100.681 66.361 101.067 73.262 101.15 79.355L103.483 100.287C106.3 101.571 109.777 102.737 112.093 104.799L111.864 105.905C111.249 109 110.94 111.34 111.533 114.5L111.167 115.25C110.259 117.154 109.483 120.007 108.136 121.564L101.077 123.037C93.66 124.295 86.584 125.632 79.429 128.054L77.261 128.353C65.404 133.734 55.203 138.363 45.996 147.85C44.905 151.143 44.379 154.159 43.982 157.599L36.672 149.085C32.776 144.195 29.003 140.331 29.798 133.752L29.9 133C19.009 123.197 9.89503 110.322 0.603027 98.963C6.08603 87.292 14.858 80.451 24.134 72L23.317 68.265L1.71997 19.716ZM20.757 11.154C16.983 13.013 12.649 14.554 10.085 18C10.356 22.649 13.835 27.805 15.729 32.123C20.675 43.403 25.042 55.721 31.127 66.408C34.275 64.825 37.199 63.476 40.5 62.268L43.735 60.659L50.34 58.772C50.583 54.138 45.967 46.062 44.26 41.375L30.5 9.671C27.237 9.426 23.929 10.458 20.757 11.154ZM39.924 132.761L37.746 137C39.547 141.217 42.85 144.584 45.996 147.85C55.203 138.363 65.404 133.734 77.261 128.353C76.535 128.218 75.973 128.16 75.289 127.794C73.553 126.865 72.562 124.924 71.946 123.136C70.359 118.526 72.331 116.122 74.407 112.227C61.271 117.868 51.224 124.206 39.924 132.761ZM74.407 112.227C72.331 116.122 70.359 118.526 71.946 123.136C72.562 124.924 73.553 126.865 75.289 127.794C75.973 128.16 76.535 128.218 77.261 128.353L79.429 128.054C86.584 125.632 93.66 124.295 101.077 123.037L108.136 121.564C107.092 117.678 106.8 113.786 105.5 109.906C102.131 107.229 98.497 107.958 94.5 108.129C87.627 108.422 81.029 110.48 74.407 112.227ZM1.71997 19.716L23.317 68.265C23.52 65.845 23.677 63.728 23.007 61.362C22.72 60.348 22.421 59.413 22.256 58.368C20.899 49.787 15.747 43.808 12.645 35.934C10.836 31.342 10.172 26.383 8.08002 21.927C6.03602 20.902 3.90797 20.341 1.71997 19.716Z" fill="black"/>
<path d="M76.0771 90.803C79.2351 92.292 80.188 92.646 81.62 96L82.5 99.114C84.314 98.121 85.012 96.706 86.032 94.994L88.5 93.097L90.845 93.5C92.678 96.131 91.8801 98.173 94.1631 100.023C87.9561 102.312 81.178 101.482 75.003 103.858C73.831 98.551 73.4041 95.536 76.0771 90.803Z" fill="#AD6E5E"/>
<path d="M1.71997 19.716C3.90797 20.341 6.03602 20.902 8.08002 21.927C10.172 26.383 10.836 31.342 12.645 35.934C15.747 43.808 20.899 49.787 22.256 58.368C22.421 59.413 22.72 60.348 23.007 61.362C23.677 63.728 23.52 65.845 23.317 68.265L1.71997 19.716Z" fill="black"/>
<path d="M74.407 112.227C81.029 110.48 87.627 108.422 94.5 108.129C98.497 107.958 102.131 107.229 105.5 109.906C106.8 113.786 107.092 117.678 108.136 121.564L101.077 123.037C93.66 124.295 86.584 125.632 79.429 128.054L77.261 128.353C76.535 128.218 75.973 128.16 75.289 127.794C73.553 126.865 72.562 124.924 71.946 123.136C70.359 118.526 72.331 116.122 74.407 112.227Z" fill="#7B2B4A" fill-opacity="0.980392"/>
<path d="M39.924 132.761C51.224 124.206 61.271 117.868 74.407 112.227C72.331 116.122 70.359 118.526 71.946 123.136C72.562 124.924 73.553 126.865 75.289 127.794C75.973 128.16 76.535 128.218 77.261 128.353C65.404 133.734 55.203 138.363 45.996 147.85C42.85 144.584 39.547 141.217 37.746 137L39.924 132.761Z" fill="#6C3625" fill-opacity="0.988235"/>
<path d="M72.67 60.275C77.493 60.369 82.14 60.467 86.9 61.344C90.643 63.273 91.282 63.183 92.849 67.009L94.191 84.72C94.76 89.611 96.103 95.366 94.163 100.023C91.88 98.173 92.678 96.131 90.845 93.5L88.5 93.097L86.032 94.994C85.012 96.706 84.314 98.121 82.5 99.114L81.62 96C80.188 92.646 79.235 92.292 76.077 90.803L77.297 90.433C78.082 87.655 76.741 83.738 76.22 80.908L72.67 60.275Z" fill="#F2BF78"/>
<path d="M72.67 60.275C77.493 60.369 82.14 60.467 86.9 61.344L81.106 62.189C79.968 65.337 80.64 69.293 80.812 72.593C81.144 78.968 80.762 86.889 82.769 93C83.022 93.768 83.226 93.984 83.645 94.571L86.032 94.994C85.012 96.706 84.314 98.121 82.5 99.114L81.62 96C80.188 92.646 79.235 92.292 76.077 90.803L77.297 90.433C78.082 87.655 76.741 83.738 76.22 80.908L72.67 60.275Z" fill="#D2A16C"/>
<path d="M20.757 11.154C23.929 10.458 27.237 9.42598 30.5 9.67098L44.26 41.375C45.967 46.062 50.583 54.138 50.34 58.772L43.735 60.659L40.5 62.268C37.199 63.476 34.275 64.825 31.127 66.408C25.042 55.721 20.675 43.403 15.729 32.123C13.835 27.805 10.356 22.649 10.085 18C12.649 14.554 16.983 13.013 20.757 11.154ZM20.757 11.154C21.514 17.082 24.886 23.124 27.168 28.65C31.38 38.847 35.384 48.928 40.5 58.721C41.595 59.503 42.464 60.19 43.735 60.659L50.34 58.772C50.583 54.138 45.967 46.062 44.26 41.375L30.5 9.67098C27.237 9.42598 23.929 10.458 20.757 11.154Z" fill="#6C3625" fill-opacity="0.988235"/>
<path d="M20.757 11.154C23.929 10.458 27.237 9.42598 30.5 9.67098L44.26 41.375C45.967 46.062 50.583 54.138 50.34 58.772L43.735 60.659C42.464 60.19 41.595 59.503 40.5 58.721C35.384 48.928 31.38 38.847 27.168 28.65C24.886 23.124 21.514 17.082 20.757 11.154Z" fill="#7B2B4A" fill-opacity="0.988235"/>
<path d="M59.537 63.21C63.911 61.845 68.144 60.976 72.67 60.275L76.22 80.908C76.741 83.738 78.082 87.655 77.297 90.433L76.077 90.803C73.404 95.536 73.831 98.551 75.003 103.858L72.522 105.8C68.306 106.418 64.775 108.045 60.927 109.76C57.408 110.417 53.619 112.501 51.386 115.332C48.101 116.797 45.619 118.44 42.863 120.747C40.824 122.379 38.598 123.909 36.924 125.918C36.124 125.843 34.141 125.909 33.5 125.595C31.431 124.582 28.086 119.857 26.563 118.035L9.586 97.903C20.634 81.037 40.83 69.442 59.537 63.21Z" fill="#D2A16C"/>
<path d="M42.863 120.747C39.691 118.572 37.192 116.886 36.423 113.012L38.379 110.5C43.184 110.361 46.018 113.701 50.636 115.115L51.386 115.332C48.101 116.797 45.619 118.44 42.863 120.747Z" fill="#AD6E5E"/>
<path d="M51.386 115.332C51.336 111.05 49.55 107.251 49.072 103C50.825 100.77 50.725 100.766 53.5 100.239C57.287 103.321 57.072 106.941 60.927 109.76C57.408 110.417 53.619 112.501 51.386 115.332Z" fill="#AD6E5E"/>
<path d="M59.537 63.21C63.911 61.845 68.144 60.976 72.67 60.275L76.22 80.908C76.741 83.738 78.082 87.655 77.297 90.433L76.077 90.803C73.404 95.536 73.831 98.551 75.003 103.858L72.522 105.8L68 105.232C62.865 98.768 60.213 71.852 59.537 63.21Z" fill="#F2BF78"/>
<path d="M43.991 240.373L52.9619 151.938C59.5289 144.264 69.717 139.986 78.779 136.067L78.817 137.006C78.898 139.976 78.731 141.425 77.257 144L78.071 145.604L82.43 146.579C87.438 159.55 90.681 173.359 96.763 185.941L97.14 192C111.255 216.568 127.259 238.241 145.282 260.044C151.383 267.424 158.632 276.898 166.491 282.346C159.642 289.465 152.189 296.507 144.654 302.902C141.997 305.158 138.357 306.849 136.027 309.352C134.876 312.118 133.859 314.503 131.99 316.877C131.331 317.714 130.923 318.584 130.5 319.554L119.224 321.514C108.322 316.992 100.374 311.92 91.1599 304.726C87.3789 309.987 81.467 314.706 76.991 319.511C74.219 322.488 71.98 323.066 68 323.234C64.884 321.222 63.1 319.181 60.978 316.157C61.371 314.749 61.531 314.587 60.642 313.417C55.114 306.138 48.746 302.335 45.411 293.119C43.136 286.833 36.922 270.201 39.757 264.5C43.091 257.796 39.727 245.058 43.991 240.373Z" fill="#D2A16C"/>
<path d="M96.763 185.941C95.966 189.001 96.33 189.555 93.5 191.219L90.844 190.18C85.631 182.776 82.627 172.173 79.421 163.644C77.927 173.932 80.652 185.702 80.668 196.133C80.67 197.555 79.473 198.122 78.5 199.088L75.5 198.883C74.923 198.309 74.59 198.058 74.179 197.4C72.237 194.288 72.241 188.859 72.011 185.249C71.27 173.628 70.128 160.363 72.852 149C75.92 146.049 78.322 146.775 82.43 146.579C87.438 159.55 90.681 173.359 96.763 185.941Z" fill="#AD6E5E"/>
<path d="M60.978 316.157C61.371 314.749 61.531 314.587 60.642 313.417C55.114 306.138 48.746 302.335 45.411 293.119C43.136 286.833 36.922 270.201 39.757 264.5C43.091 257.796 39.727 245.058 43.991 240.373C44.382 260.46 40.6399 286.924 56.5869 302.122L61.692 306.538L55.008 246.5C56.688 244.286 56.692 243.958 59.5 243.196C62.525 244.986 62.697 245.449 63.632 249.006C64.751 253.261 65.292 257.001 67.101 261.13C74.205 277.339 91.531 297.022 106.294 306.736C113.316 311.355 119.798 313.159 127.978 314.469L136.027 309.352C134.876 312.118 133.859 314.503 131.99 316.877C131.331 317.714 130.923 318.584 130.5 319.554L119.224 321.514C108.322 316.992 100.374 311.92 91.1599 304.726C87.3789 309.987 81.467 314.706 76.991 319.511C74.219 322.488 71.98 323.066 68 323.234C64.884 321.222 63.1 319.181 60.978 316.157Z" fill="black"/>
<path d="M64.212 273.054L86.84 300.515C84.593 301.671 82.71 303.137 80.716 304.681L71.674 313.339C67.505 300.326 66.064 286.537 64.212 273.054Z" fill="#C0793B"/>
<path d="M106.708 130.057C139.619 132.3 167.831 144.827 195.828 161.582C197.126 161.594 200.387 161.248 201.5 161.633C204.717 162.747 207.755 167.391 211 168.429C212.754 168.991 216.965 168.364 218.975 168.342L232.676 176.556C233.353 183.029 235.62 197.405 230.872 202.675C228.666 205.125 224.449 206.81 221.5 208.26L222.153 209.241L221.5 214.51C220.292 215.416 219.48 215.703 218.005 216.005C217.018 218.533 216.705 221.414 215.602 223.796C211.942 231.704 205.733 238.357 199.886 244.654C198.172 246.501 196.796 247.399 194.436 248.28C191.618 252.221 188.894 256.553 185.572 260.074L166.491 282.346C158.632 276.898 151.383 267.424 145.282 260.044C127.259 238.241 111.255 216.568 97.14 192L96.763 185.941C90.681 173.359 87.438 159.55 82.43 146.579L78.071 145.604L77.257 144C78.731 141.425 78.898 139.976 78.817 137.006L78.779 136.067L98.096 130.916L106.708 130.057Z" fill="#F2BF78"/>
<path d="M126.138 158.461L124.507 158.768C118.92 159.594 114.047 153.364 109.68 150.352C105.635 147.562 101.247 145.406 97.266 142.5L96.885 139L98.5 137.013C104.699 136.275 113.187 143.204 118.072 146.727C121.39 149.618 124.536 151.751 125.584 156.198L125.947 157.561L126.138 158.461Z" fill="#AD6E5E"/>
<path d="M110.288 168.056L95.811 155.331C94.257 153.941 91.598 152.08 90.691 150.186C89.825 148.378 90.746 147.432 91.5 145.779L94 145.137C98.627 146.312 102.373 150.452 105.949 153.516L123.99 168.505C123.03 171.389 123.128 171.738 120.5 173.533C116.51 172.987 113.499 170.33 110.288 168.056Z" fill="#AD6E5E"/>
<path d="M118.072 146.727C145.12 153.711 171.675 161.442 197.561 172.069C203.419 174.474 209.695 176.851 215.379 179.598C218.916 181.308 221.898 184.231 226.003 183.93C225.898 186.919 226.598 191.106 224.5 193.242C199.342 179.036 174.047 162.185 145.227 156.683C140.489 155.778 138.851 157.273 135.215 159.724L134.469 158.85C131.842 156.723 129.037 157.827 126.138 158.461L125.947 157.561L125.584 156.198C124.536 151.751 121.39 149.618 118.072 146.727Z" fill="#D2A16C"/>
<path d="M123.99 168.505C151.736 189.968 175.309 215.049 199.945 239.845L194.436 248.28C191.618 252.221 188.894 256.553 185.572 260.074C170.816 235.691 150.239 213.073 131.313 191.818C124.306 183.948 116.731 176.395 110.288 168.056C113.499 170.33 116.51 172.987 120.5 173.533C123.128 171.738 123.03 171.389 123.99 168.505Z" fill="#D2A16C"/>
<path d="M135.215 159.724C138.851 157.273 140.489 155.778 145.227 156.683C174.047 162.185 199.342 179.036 224.5 193.242C226.598 191.106 225.898 186.919 226.003 183.93C223.774 180.147 219.569 177.885 216.028 175.447L195.828 161.582C197.126 161.594 200.387 161.248 201.5 161.633C204.717 162.747 207.755 167.391 211 168.429C212.754 168.991 216.965 168.364 218.975 168.342L232.676 176.556C233.353 183.029 235.62 197.405 230.872 202.675C228.666 205.125 224.449 206.81 221.5 208.26L222.153 209.241L221.5 214.51C220.292 215.416 219.48 215.703 218.005 216.005C217.018 218.533 216.705 221.414 215.602 223.796C211.942 231.704 205.733 238.357 199.886 244.654C198.172 246.501 196.796 247.399 194.436 248.28L199.945 239.845C205.839 232.477 210.521 223.203 215.393 215.095C197.664 201.723 181.764 186.976 162.607 175.369C157.942 172.543 153.229 169.876 148.191 167.763C145.39 166.588 140.496 165.441 138.152 163.753C137.214 163.078 135.957 160.741 135.215 159.724Z" fill="black"/>
<path d="M182.718 179.113C191.014 182.382 198.044 186.91 205.733 191.298C210.044 193.759 215.22 196.024 218.577 199.724L210.5 201.086L182.718 179.113Z" fill="#C0793B"/>
<defs>
<linearGradient id="paint0_linear_1_250" x1="150.219" y1="133.468" x2="146.465" y2="142.827" gradientUnits="userSpaceOnUse">
<stop stop-opacity="0.941176"/>
<stop offset="1"/>
</linearGradient>
<linearGradient id="paint1_linear_1_250" x1="79.9358" y1="214.536" x2="28.2737" y2="171.068" gradientUnits="userSpaceOnUse">
<stop stop-opacity="0.941176"/>
<stop offset="1" stop-color="#060504"/>
</linearGradient>
</defs>
</svg>
