<svg width="1736" height="949" viewBox="0 0 1736 949" fill="none" xmlns="http://www.w3.org/2000/svg">
<g clip-path="url(#clip0_1_12)" filter="url(#filter0_d_1_12)">
<rect x="-52" y="380" width="1904" height="70" fill="#452416"/>
<rect x="-48" y="392" width="1896" height="54" fill="#7C5748" stroke="#8D6651" stroke-width="8"/>
<line x1="121.939" y1="411.5" x2="267.94" y2="409.527" stroke="#755142" stroke-width="9"/>
<line x1="408.939" y1="411.5" x2="554.94" y2="409.527" stroke="#755142" stroke-width="9"/>
<line x1="494.947" y1="428.5" x2="579.947" y2="427.5" stroke="#755142" stroke-width="9"/>
<line x1="1008.95" y1="409.5" x2="1093.95" y2="408.5" stroke="#755142" stroke-width="9"/>
<line x1="1076.95" y1="429.5" x2="1161.95" y2="428.5" stroke="#755142" stroke-width="9"/>
<line x1="1162" y1="408.5" x2="1314" y2="408.5" stroke="#755142" stroke-width="9"/>
<line x1="57.9392" y1="428.5" x2="203.94" y2="426.527" stroke="#755142" stroke-width="9"/>
<mask id="path-10-inside-1_1_12" fill="white">
<path fill-rule="evenodd" clip-rule="evenodd" d="M426.772 448C428.883 439.009 430 429.635 430 420C430 352.621 375.379 298 308 298C240.621 298 186 352.621 186 420C186 429.635 187.117 439.009 189.228 448H-76V980H1828V448H426.772Z"/>
</mask>
<path fill-rule="evenodd" clip-rule="evenodd" d="M426.772 448C428.883 439.009 430 429.635 430 420C430 352.621 375.379 298 308 298C240.621 298 186 352.621 186 420C186 429.635 187.117 439.009 189.228 448H-76V980H1828V448H426.772Z" fill="#CBB9AB"/>
<path d="M426.772 448L417.037 445.714L414.151 458H426.772V448ZM189.228 448V458H201.849L198.963 445.714L189.228 448ZM-76 448V438H-86V448H-76ZM-76 980H-86V990H-76V980ZM1828 980V990H1838V980H1828ZM1828 448H1838V438H1828V448ZM420 420C420 428.86 418.973 437.467 417.037 445.714L436.507 450.286C438.793 440.551 440 430.41 440 420H420ZM308 308C369.856 308 420 358.144 420 420H440C440 347.098 380.902 288 308 288V308ZM196 420C196 358.144 246.144 308 308 308V288C235.098 288 176 347.098 176 420H196ZM198.963 445.714C197.027 437.467 196 428.86 196 420H176C176 430.41 177.207 440.551 179.493 450.286L198.963 445.714ZM-76 458H189.228V438H-76V458ZM-66 980V448H-86V980H-66ZM1828 970H-76V990H1828V970ZM1818 448V980H1838V448H1818ZM426.772 458H1828V438H426.772V458Z" fill="#452416" mask="url(#path-10-inside-1_1_12)"/>
<rect x="-47" y="513" width="1894" height="522" fill="#F4EDE9" stroke="#D7CABE" stroke-width="10"/>
</g>
<defs>
<filter id="filter0_d_1_12" x="0" y="0" width="1736" height="949" filterUnits="userSpaceOnUse" color-interpolation-filters="sRGB">
<feFlood flood-opacity="0" result="BackgroundImageFix"/>
<feColorMatrix in="SourceAlpha" type="matrix" values="0 0 0 0 0 0 0 0 0 0 0 0 0 0 0 0 0 0 127 0" result="hardAlpha"/>
<feOffset dy="4"/>
<feGaussianBlur stdDeviation="2"/>
<feComposite in2="hardAlpha" operator="out"/>
<feColorMatrix type="matrix" values="0 0 0 0 0 0 0 0 0 0 0 0 0 0 0 0 0 0 0.25 0"/>
<feBlend mode="normal" in2="BackgroundImageFix" result="effect1_dropShadow_1_12"/>
<feBlend mode="normal" in="SourceGraphic" in2="effect1_dropShadow_1_12" result="shape"/>
</filter>
<clipPath id="clip0_1_12">
<rect width="1728" height="941" fill="white" transform="translate(4)"/>
</clipPath>
</defs>
</svg>
