<?xml version="1.0" standalone="no"?>
<!DOCTYPE svg PUBLIC "-//W3C//DTD SVG 20010904//EN"
 "http://www.w3.org/TR/2001/REC-SVG-20010904/DTD/svg10.dtd">
<svg version="1.0" xmlns="http://www.w3.org/2000/svg"
 width="1500.000000pt" height="1400.000000pt" viewBox="0 0 1500.000000 1400.000000"
 preserveAspectRatio="xMidYMid meet">

<g transform="translate(0.000000,1400.000000) scale(0.100000,-0.100000)"
fill="#000000" stroke="none">
<path d="M8894 11991 c-32 -15 -117 -64 -189 -108 -165 -101 -561 -345 -640
-394 -33 -21 -109 -68 -170 -105 -60 -37 -144 -90 -186 -117 l-76 -49 -27
-136 c-15 -75 -71 -364 -126 -642 -109 -553 -145 -753 -154 -847 -5 -57 -4
-62 20 -78 35 -23 57 -13 229 102 148 99 166 112 456 319 530 377 649 461 701
497 l56 39 11 82 c7 44 14 97 16 116 2 19 11 85 19 145 9 61 36 272 61 470 25
198 52 409 60 470 16 120 20 251 7 259 -5 3 -35 -8 -68 -23z"/>
<path d="M6368 9457 c-308 -216 -1660 -1208 -1654 -1214 2 -3 141 41 308 96
451 150 433 146 738 145 280 -2 660 -19 757 -35 67 -10 285 -77 376 -115 32
-14 110 -59 175 -101 219 -144 334 -284 580 -709 76 -131 156 -267 179 -301
68 -104 66 -182 -8 -258 l-39 -41 42 -41 c29 -28 65 -49 112 -65 74 -27 74
-36 -3 -45 -43 -5 -50 -9 -65 -40 -9 -18 -16 -40 -16 -48 0 -37 -21 -20 -35
29 -9 31 -35 79 -58 109 l-43 55 -41 -24 c-22 -14 -71 -31 -109 -39 -88 -18
-114 -12 -271 71 -67 36 -189 91 -271 123 -182 70 -252 109 -452 253 -265 190
-415 274 -609 338 -265 88 -452 78 -806 -43 -342 -117 -671 -350 -901 -639
-92 -116 -130 -180 -171 -290 -40 -110 -63 -233 -63 -343 0 -220 66 -391 239
-622 350 -466 943 -644 1528 -459 175 55 410 164 574 266 89 56 289 205 425
318 238 196 312 251 445 331 270 162 598 291 848 333 121 21 138 22 307 10
346 -24 669 -106 949 -242 318 -154 539 -371 662 -651 53 -119 70 -183 83
-312 23 -225 -43 -543 -163 -782 -23 -46 -123 -229 -164 -298 -6 -10 330 231
505 363 142 107 130 85 157 270 13 92 97 631 226 1455 23 143 41 274 41 290 1
30 -568 1470 -653 1655 -19 41 -58 72 -431 345 -226 165 -505 370 -622 455
-528 386 -721 520 -750 520 -31 0 -232 -74 -621 -229 -239 -95 -251 -98 -278
-85 -36 19 -617 247 -724 285 -46 16 -94 29 -107 29 -13 0 -69 -32 -128 -73z"/>
<path d="M6616 7831 c-4 -5 -4 -15 -1 -23 2 -7 12 -80 20 -163 9 -82 22 -159
30 -171 13 -20 292 -140 302 -130 8 8 -320 496 -334 496 -6 0 -14 -4 -17 -9z"/>
<path d="M8186 5509 c-123 -20 -425 -208 -655 -407 -544 -470 -1180 -752
-1806 -803 -154 -12 -332 -8 -420 10 -27 6 -112 22 -187 36 -248 46 -499 139
-654 242 -92 61 -90 60 -67 22 20 -32 145 -127 473 -363 63 -45 309 -221 545
-391 237 -170 474 -340 528 -378 l97 -69 63 4 c67 4 100 18 871 349 204 88
378 159 387 159 14 0 298 -117 715 -296 55 -24 86 -32 100 -27 11 4 105 58
208 118 161 94 211 129 341 242 160 138 229 209 300 308 145 201 215 405 215
623 0 229 -88 415 -230 487 -67 34 -211 83 -340 116 -105 26 -129 29 -275 28
-88 -1 -182 -5 -209 -10z"/>
</g>
</svg>
