<?xml version="1.0" encoding="UTF-8"?>
<svg id="_Слой_2" data-name="Слой 2" xmlns="http://www.w3.org/2000/svg" xmlns:xlink="http://www.w3.org/1999/xlink" viewBox="0 0 1920 1080">
  <defs>
    <style>
      .cls-1, .cls-2, .cls-3 {
        stroke-width: 0px;
      }

      .cls-2 {
        fill: url(#_Безымянный_градиент_6);
      }

      .cls-3 {
        fill: #8cc943;
      }
    </style>
    <linearGradient id="_Безымянный_градиент_6" data-name="Безымянный градиент 6" x1="952.48" y1="728.54" x2="1139.01" y2="341.66" gradientUnits="userSpaceOnUse">
      <stop offset="0" stop-color="#628b50"/>
      <stop offset=".28" stop-color="#69944e"/>
      <stop offset=".53" stop-color="#73a24c"/>
      <stop offset="1" stop-color="#8ec146"/>
    </linearGradient>
  </defs>
  <path class="cls-3" d="M944.58,599.7c-6.81,28.22-13.14,58.09-18.68,89.51-8.27,46.85-13.82,91.22-17.37,132.47-5.84-1.99-10.31-6.52-12.21-12.36-12.41-38.14-29.29-80.95-52.54-126.19-39.79-77.55-85.52-137.48-124.64-181.22,14.3-17.17,30.45-35.17,48.65-53.51,20.04-20.24,39.75-37.99,58.38-53.51,15.71,15.81,32.5,36.44,49.23,61.39,23.74,35.27,47.97,82.07,52.39,130.47.54,5.84,4.38,11.09,10.12,12.41.05.05.1.05.15.05,2.48.54,4.72.58,6.52.49Z"/>
  <path class="cls-2" d="M1244.55,321.92c-14.59,14.59-136.22,194.59-199.46,374.59-8.37,21.6-18.24,44.56-29.77,68.5-9.39,19.31-18.92,37.31-28.41,54.05-3.26,5.74-9.15,9.53-15.71,10.12-10.56.97-23.5,1.02-37.99-1.31-9.29-1.51-17.56-3.75-24.66-6.18,2.06-37.84,5.95-78.95,12.5-122.74,5.46-36.51,12.15-70.62,19.46-102.16,1.4-8.06,3.01-16.17,4.86-24.32,31.5-138.68,120.4-243.5,211.62-318.65,11.04,2.72,27.1,8.12,43.78,19.46,24.47,16.59,37.61,37.22,43.78,48.65Z"/>
  <path class="cls-1" d="M1270.24,308.06c-12.75-23.69-31.14-44.08-53.08-58.96-16.2-10.95-34.05-18.88-53.17-23.59l-5.61-1.39c-5.47-1.36-11.26-.04-15.59,3.56l-4.44,3.67c-103.04,85.28-163.46,218.09-194.01,295.93-9.73-28.22-24.62-57.41-44.71-87.23-17.42-25.93-35.17-48.06-52.78-65.72l-9.65-9.7c-5.19-5.22-13.51-5.61-19.17-.9l-10.53,8.76c-20.92,17.42-41.25,36.05-60.42,55.36-17.51,17.66-34.44,36.34-50.35,55.41l-8.98,10.77c-4.12,4.94-3.99,12.14.3,16.93l9.36,10.44c47.58,53.17,88.1,112.04,120.45,175.09,20.04,39.02,37.12,80.08,50.74,121.91,4.67,14.45,16.1,26.03,30.5,30.94,9.54,3.26,19.46,5.74,29.43,7.35,9.54,1.56,19.26,2.34,28.95,2.34,5.45,0,10.95-.24,16.35-.73,16.1-1.46,30.5-10.75,38.48-24.81,10.26-18.1,20.14-36.88,29.29-55.75,11.14-23.06,21.45-46.8,30.7-70.64l.34-.88c61.39-174.7,178.39-348.23,192.55-363.65l9.03-9.03c3.77-3.77,4.61-9.56,2.08-14.24l-6.05-11.22ZM1045.09,696.51c-8.37,21.6-18.24,44.56-29.77,68.5-9.39,19.31-18.92,37.31-28.41,54.05-3.26,5.74-9.15,9.53-15.71,10.12-10.56.97-23.5,1.02-37.99-1.31-9.29-1.51-17.56-3.75-24.66-6.18-5.84-1.99-10.31-6.52-12.21-12.36-12.41-38.14-29.29-80.95-52.54-126.19-39.79-77.55-85.52-137.48-124.64-181.22,14.3-17.17,30.45-35.17,48.65-53.51,20.04-20.24,39.75-37.99,58.38-53.51,15.71,15.81,32.5,36.44,49.23,61.39,23.74,35.27,47.97,82.07,52.39,130.47.54,5.84,4.38,11.09,10.12,12.41.05.05.1.05.15.05,2.48.54,4.72.58,6.52.49,2.04-.15,3.79-1.41,4.67-3.26,13.18-29.14,72.39-230.64,207.73-342.63,11.04,2.72,27.1,8.12,43.78,19.46,24.47,16.59,37.61,37.22,43.78,48.65-14.59,14.59-136.22,194.59-199.46,374.59Z"/>
</svg>