<?xml version="1.0" encoding="UTF-8"?>
<svg id="_Слой_2" data-name="Слой 2" xmlns="http://www.w3.org/2000/svg" viewBox="0 0 178.54 180.99">
  <defs>
    <style>
      .cls-1 {
        fill: #eba5ab;
      }

      .cls-2 {
        fill: #f9e7d0;
      }

      .cls-3 {
        fill: #fad8d7;
      }

      .cls-4 {
        fill: #f6b7b9;
      }
    </style>
  </defs>
  <g id="_Слой_1-2" data-name="Слой 1">
    <path class="cls-2" d="m106.6.11c6.11-.62,12.61,1.45,17.67,4.85,8.75,5.88,14.38,16.84,14.85,27.32.07,1.6.08,3.24-.04,4.84-.11,1.45-.39,3.29-.07,4.72l.06.23c.18.78.45,1.44.9,2.1,2.64,3.82,8.66,2.2,12.6,2.9,7.92,1.4,14.79,6.25,19.39,12.81,5.72,8.16,7.72,18.85,5.98,28.63-1.45,8.15-6.04,16.2-12.78,21.08-1.8,1.3-3.93,2.04-5.73,3.32-2.2,1.57-2.92,3.63-2.72,6.29.14,1.83,1.42,3.55,2.05,5.25,2.3,6.21,2.95,13.11,1.9,19.65-1.39,8.57-6.04,15.49-13,20.51-6.86,4.94-14.97,8.12-23.01,10.5-19.24,5.71-40.56,7.54-60.39,4.27-9.33-1.51-19.69-4.6-26.99-10.93-8.32-7.21-11.62-19.35-10.36-30.08.19-1.64.53-3.21.93-4.81.32-1.27.76-2.64.63-3.96-.49-4.98-5.31-5.37-8.92-7.01-2.54-1.15-5.01-2.73-7.16-4.52C5.03,111.91.94,102.74.13,93.27c-1.17-13.83,5.52-28.75,18.76-34.26,1.34-.56,2.74-1.1,4.15-1.42,2.9-.65,6.36-.37,8.42-2.89,2.3-2.82,1.2-5.78.44-8.96-.36-1.51-.62-3.08-.78-4.62-.94-8.95,1.64-19.11,7.37-26.13,4.65-5.69,11.51-9.95,18.88-10.63,7.13-.66,14.16,1.38,19.86,5.79,1.38,1.07,2.54,2.39,3.89,3.5.74.61,1.4.87,2.37.73,1.43-.21,2.53-2.27,3.31-3.34C91.63,4.46,98.75,1.3,106.6.11Z"/>
    <path class="cls-1" d="m61.11,18.6c1.14-.13,2.64.05,3.75.33,4.88,1.22,8.98,4.59,11.53,8.94,3.6,6.14,4.56,13.25,2.72,20.13-1.25,4.7-4.28,9.66-8.61,12.09-2.09,1.17-4.8,2.19-7.21,2.23-3.62.02-6.78-.75-9.79-2.86-4.99-3.5-8.13-9.18-9.14-15.16-1.12-6.56.22-13.31,4.02-18.77l.61-.82c3.14-3.72,7.31-5.7,12.1-6.1Z"/>
    <path class="cls-4" d="m60.12,20.9c3.18-.41,6.47.66,9.11,2.4,3.09,2.03,5.5,5.26,6.22,8.92,1.1,5.6-.43,11.57-3.57,16.25-2.47,3.68-5.55,5.72-9.84,6.56-3.13.41-8.31.17-11.1-1.54-2.22-1.36-3.68-6.24-4.18-8.65-1.2-5.71-.39-12.31,2.88-17.22,2.68-4.02,5.88-5.81,10.48-6.72Z"/>
    <path class="cls-3" d="m56.78,26.01c.69,0,.71.11,1.22.54.02,1.47-1.65,2.34-2.49,3.48-2.22,3.04-1.8,6.5-1.38,9.99.09.76.05,1.28-.49,1.87-.43.47-1.08.53-1.67.58l-.5-.14c-.49-.19-.69-.57-.89-1.03-1.18-2.73-.35-7.25.7-9.91,1.04-2.61,2.98-4.29,5.5-5.38Z"/>
    <path class="cls-1" d="m105.74,14.66c3.91-.27,7.4.39,10.76,2.49,4.8,3,8.13,8.66,9.38,14.12,1.45,6.31.47,13.36-2.96,18.88-2.56,4.11-6.42,6.94-11.13,8.01-3.84.69-7.44-.02-10.81-2.02-4.94-2.93-8.37-8.41-9.72-13.93-1.62-6.62-.65-13.77,2.91-19.59,2.69-4.4,6.66-6.79,11.57-7.95Z"/>
    <path class="cls-4" d="m106.45,16.83c3.09-.16,5.88.42,8.55,2.03,3.33,2,6.04,5.22,6.96,9.06,1.21,5.06-.19,11.25-2.87,15.61-2.45,3.99-5.67,6.38-10.19,7.47-3.44.6-9.07.25-11.97-1.87-.6-.44-1.03-1.25-1.37-1.9-1.13-2.12-1.94-4.42-2.38-6.78-1.11-5.95-.26-12.2,3.25-17.24,2.44-3.51,5.84-5.63,10.02-6.37Z"/>
    <path class="cls-3" d="m103,22.12c.32-.07.67-.07.99-.1l.54.55c.04.17.16.35.13.52-.05.31-.62.82-.85,1.04-.78.77-1.61,1.51-2.17,2.47-.79,1.35-1.09,2.64-1.31,4.17-.23,1.52.1,3.09.26,4.61.06.61.21,1.48-.07,2.04-.3.59-.96.91-1.56,1.09l-.66-.07c-.44-.09-.89-.42-1.09-.83-.48-.96-.47-2.03-.48-3.07-.02-2.28.1-4.54.91-6.7.99-2.65,2.8-4.55,5.35-5.73Z"/>
    <path class="cls-1" d="m145.72,59.26c3.71.19,6.75,1.26,9.75,3.48,4.94,3.65,7.75,9.99,8.59,15.95.85,6.03-.75,12.71-4.38,17.59-3.22,4.33-7.22,6.15-12.41,6.9-4.01-.27-7.63-1.29-10.76-3.9-4.83-4.05-7.66-10.08-8.19-16.34-.5-5.87.85-12.72,4.72-17.31,3.43-4.07,7.45-5.95,12.67-6.37Z"/>
    <path class="cls-4" d="m144.22,61.56c3.45-.12,6.24.55,9.17,2.4,2.82,1.79,5.53,5.07,6.26,8.41,1.2,5.55-.18,11.76-3.24,16.48-2.27,3.51-5.69,5.99-9.78,6.85-3.09.69-8.81.21-11.5-1.5-2.38-1.52-3.61-5.72-4.15-8.34-1.2-5.83-.52-12.38,2.78-17.42,2.5-3.83,6.05-5.97,10.46-6.88Z"/>
    <path class="cls-3" d="m140.61,66.87l.17-.03c.73-.08.91.05,1.49.45.08.34.17.46-.03.78-.27.44-.83.82-1.21,1.18-1.2,1.14-2.06,2.58-2.55,4.16-.33,1.08-.49,2.31-.47,3.44.02,1.29.77,4.3.18,5.36-.33.59-.89.75-1.5.94l-1-.1c-.26-.22-.63-.5-.81-.8-.73-1.2-.55-4.55-.3-5.95.28-1.58.47-3.58,1.28-4.99,1.1-1.93,2.75-3.49,4.76-4.43Z"/>
    <path class="cls-1" d="m30.33,68.97c3.85-.23,7.07.66,10.35,2.71,4.65,2.91,7.73,8.49,8.95,13.75,1.53,6.56.59,13.67-3.01,19.41-2.68,4.28-6.82,6.77-11.66,7.85-3.91.2-7.56-.4-10.84-2.7-5.25-3.68-8.34-9.27-9.42-15.55-1.12-6.48.25-13.26,4.09-18.62,2.72-3.8,7.02-6.1,11.54-6.84Z"/>
    <path class="cls-4" d="m29.92,71.29c1.32-.12,3.09-.22,4.39.09,1.2.29,2.33.68,3.44,1.23,3.21,1.57,6.65,4.77,7.79,8.27,1.62,5,.53,11-1.8,15.57-2.34,4.59-5.89,7.43-10.74,8.99-3.5.52-8.51.45-11.6-1.52-2.31-1.47-3.74-5.98-4.28-8.57-1.24-6.01-.31-12.52,3.1-17.67,2.31-3.49,5.67-5.56,9.7-6.39Z"/>
    <path class="cls-3" d="m27.16,76.41h.62c.45.37.53.38.67.97-.3,1.08-1.58,1.73-2.27,2.59-.77.96-1.36,2.28-1.7,3.47-.33,1.15-.39,2.38-.34,3.57.04,1.16.77,4.36-.05,5.23-.59.63-1.16.58-1.93.6l-.13-.05c-.56-.27-.95-.78-1.14-1.35-1-2.96-.18-7.82,1.19-10.56,1.05-2.11,2.85-3.73,5.07-4.48Z"/>
    <path class="cls-1" d="m90.15,69.19c3.31-.3,7.22.6,10.27,1.78,6.88,2.65,12.29,8.64,15.37,15.26,2.23,4.79,3.82,9.74,6.66,14.24,4.08,6.48,9.14,11.15,15.24,15.61,5.05,3.69,8.62,9.4,9.54,15.63.94,6.35-.79,13.01-4.6,18.14-4.75,6.39-13.95,10.36-21.84,9.01-3.62-.62-7.07-2.09-10.68-2.69-5.8-.96-11.74-1.14-17.57-.31-1.71.03-3.56.52-5.22.93-2.83.71-5.6,1.5-8.31,2.59-4.89,1.97-9.03,4.44-14.44,4.81-5.88.4-12.48-2.06-16.86-6-4.39-3.95-7.54-10.06-7.82-16.03-.3-6.31,1.58-12.05,5.65-16.86l5.1-5.56c3.02-3.57,5.58-7.5,7.49-11.78,1.25-2.82,2.27-5.85,2.98-8.85.74-3.13,1.24-6.32,2.2-9.4,1.27-4.1,3.46-8.49,6.33-11.7,5.39-6.04,12.68-8.39,20.52-8.84Z"/>
    <path class="cls-4" d="m88.09,71.52c2.97-.31,6.21-.07,9.1.66,2.98.75,6.49,2.25,8.67,4.47,1.04,1.07,1.88,2.4,2.65,3.68,2.33,3.86,4.39,8.06,5.84,12.34,1.59,4.67,2.43,9.52,3.14,14.39.98,6.71,1.73,13.36.08,20.04-.82,3.33-2.64,6.56-5.07,8.97-8.6,8.55-17.43,1.5-27.23,2.99-5.08.78-9.87,3.94-14.21,6.55l-.17.1c-5.63,3.12-11,4.59-17.31,2.66-4.89-1.49-8.86-5.21-11.26-9.68.14-4.22,1.96-8.55,4.63-11.78,1.75-2.11,3.86-3.92,5.65-5.99,2.15-2.49,4.05-5.39,5.63-8.27,1.8-3.27,3.32-6.85,4.34-10.45,2.09-7.36,2.71-14.66,7.42-21.04,4.58-6.2,10.77-8.53,18.1-9.64Z"/>
  </g>
</svg>